<?xml version="1.0" encoding="utf-8" standalone="no"?>
<!DOCTYPE svg PUBLIC "-//W3C//DTD SVG 1.1//EN"
  "http://www.w3.org/Graphics/SVG/1.1/DTD/svg11.dtd">
<svg xmlns:xlink="http://www.w3.org/1999/xlink" width="683.543125pt" height="426.353187pt" viewBox="0 0 683.543125 426.353187" xmlns="http://www.w3.org/2000/svg" version="1.1">
 <metadata>
  <rdf:RDF xmlns:dc="http://purl.org/dc/elements/1.1/" xmlns:cc="http://creativecommons.org/ns#" xmlns:rdf="http://www.w3.org/1999/02/22-rdf-syntax-ns#">
   <cc:Work>
    <dc:type rdf:resource="http://purl.org/dc/dcmitype/StillImage"/>
    <dc:date>2026-05-27T10:38:55.388615</dc:date>
    <dc:format>image/svg+xml</dc:format>
    <dc:creator>
     <cc:Agent>
      <dc:title>Matplotlib v3.10.9, https://matplotlib.org/</dc:title>
     </cc:Agent>
    </dc:creator>
   </cc:Work>
  </rdf:RDF>
 </metadata>
 <defs>
  <style type="text/css">*{stroke-linejoin: round; stroke-linecap: butt}</style>
 </defs>
 <g id="figure_1">
  <g id="patch_1">
   <path d="M 0 426.353187 
L 683.543125 426.353187 
L 683.543125 0 
L 0 0 
z
" style="fill: #ffffff"/>
  </g>
  <g id="axes_1">
   <g id="patch_2">
    <path d="M 40.603125 363.857812 
L 676.343125 363.857812 
L 676.343125 33.961812 
L 40.603125 33.961812 
z
" style="fill: #ffffff"/>
   </g>
   <g id="matplotlib.axis_1">
    <g id="xtick_1">
     <g id="line2d_1">
      <defs>
       <path id="ma647fc1f7a" d="M 0 0 
L 0 3.5 
" style="stroke: #000000; stroke-width: 0.8"/>
      </defs>
      <g>
       <use xlink:href="#ma647fc1f7a" x="80.336875" y="363.857812" style="stroke: #000000; stroke-width: 0.8"/>
      </g>
     </g>
     <g id="text_1">
      <!-- biometrics -->
      <g transform="translate(59.274375 376.936562) scale(0.08 -0.08)">
       <defs>
        <path id="DejaVuSans-62" d="M 3116 1747 
Q 3116 2381 2855 2742 
Q 2594 3103 2138 3103 
Q 1681 3103 1420 2742 
Q 1159 2381 1159 1747 
Q 1159 1113 1420 752 
Q 1681 391 2138 391 
Q 2594 391 2855 752 
Q 3116 1113 3116 1747 
z
M 1159 2969 
Q 1341 3281 1617 3432 
Q 1894 3584 2278 3584 
Q 2916 3584 3314 3078 
Q 3713 2572 3713 1747 
Q 3713 922 3314 415 
Q 2916 -91 2278 -91 
Q 1894 -91 1617 61 
Q 1341 213 1159 525 
L 1159 0 
L 581 0 
L 581 4863 
L 1159 4863 
L 1159 2969 
z
" transform="scale(0.015625)"/>
        <path id="DejaVuSans-69" d="M 603 3500 
L 1178 3500 
L 1178 0 
L 603 0 
L 603 3500 
z
M 603 4863 
L 1178 4863 
L 1178 4134 
L 603 4134 
L 603 4863 
z
" transform="scale(0.015625)"/>
        <path id="DejaVuSans-6f" d="M 1959 3097 
Q 1497 3097 1228 2736 
Q 959 2375 959 1747 
Q 959 1119 1226 758 
Q 1494 397 1959 397 
Q 2419 397 2687 759 
Q 2956 1122 2956 1747 
Q 2956 2369 2687 2733 
Q 2419 3097 1959 3097 
z
M 1959 3584 
Q 2709 3584 3137 3096 
Q 3566 2609 3566 1747 
Q 3566 888 3137 398 
Q 2709 -91 1959 -91 
Q 1206 -91 779 398 
Q 353 888 353 1747 
Q 353 2609 779 3096 
Q 1206 3584 1959 3584 
z
" transform="scale(0.015625)"/>
        <path id="DejaVuSans-6d" d="M 3328 2828 
Q 3544 3216 3844 3400 
Q 4144 3584 4550 3584 
Q 5097 3584 5394 3201 
Q 5691 2819 5691 2113 
L 5691 0 
L 5113 0 
L 5113 2094 
Q 5113 2597 4934 2840 
Q 4756 3084 4391 3084 
Q 3944 3084 3684 2787 
Q 3425 2491 3425 1978 
L 3425 0 
L 2847 0 
L 2847 2094 
Q 2847 2600 2669 2842 
Q 2491 3084 2119 3084 
Q 1678 3084 1418 2786 
Q 1159 2488 1159 1978 
L 1159 0 
L 581 0 
L 581 3500 
L 1159 3500 
L 1159 2956 
Q 1356 3278 1631 3431 
Q 1906 3584 2284 3584 
Q 2666 3584 2933 3390 
Q 3200 3197 3328 2828 
z
" transform="scale(0.015625)"/>
        <path id="DejaVuSans-65" d="M 3597 1894 
L 3597 1613 
L 953 1613 
Q 991 1019 1311 708 
Q 1631 397 2203 397 
Q 2534 397 2845 478 
Q 3156 559 3463 722 
L 3463 178 
Q 3153 47 2828 -22 
Q 2503 -91 2169 -91 
Q 1331 -91 842 396 
Q 353 884 353 1716 
Q 353 2575 817 3079 
Q 1281 3584 2069 3584 
Q 2775 3584 3186 3129 
Q 3597 2675 3597 1894 
z
M 3022 2063 
Q 3016 2534 2758 2815 
Q 2500 3097 2075 3097 
Q 1594 3097 1305 2825 
Q 1016 2553 972 2059 
L 3022 2063 
z
" transform="scale(0.015625)"/>
        <path id="DejaVuSans-74" d="M 1172 4494 
L 1172 3500 
L 2356 3500 
L 2356 3053 
L 1172 3053 
L 1172 1153 
Q 1172 725 1289 603 
Q 1406 481 1766 481 
L 2356 481 
L 2356 0 
L 1766 0 
Q 1100 0 847 248 
Q 594 497 594 1153 
L 594 3053 
L 172 3053 
L 172 3500 
L 594 3500 
L 594 4494 
L 1172 4494 
z
" transform="scale(0.015625)"/>
        <path id="DejaVuSans-72" d="M 2631 2963 
Q 2534 3019 2420 3045 
Q 2306 3072 2169 3072 
Q 1681 3072 1420 2755 
Q 1159 2438 1159 1844 
L 1159 0 
L 581 0 
L 581 3500 
L 1159 3500 
L 1159 2956 
Q 1341 3275 1631 3429 
Q 1922 3584 2338 3584 
Q 2397 3584 2469 3576 
Q 2541 3569 2628 3553 
L 2631 2963 
z
" transform="scale(0.015625)"/>
        <path id="DejaVuSans-63" d="M 3122 3366 
L 3122 2828 
Q 2878 2963 2633 3030 
Q 2388 3097 2138 3097 
Q 1578 3097 1268 2742 
Q 959 2388 959 1747 
Q 959 1106 1268 751 
Q 1578 397 2138 397 
Q 2388 397 2633 464 
Q 2878 531 3122 666 
L 3122 134 
Q 2881 22 2623 -34 
Q 2366 -91 2075 -91 
Q 1284 -91 818 406 
Q 353 903 353 1747 
Q 353 2603 823 3093 
Q 1294 3584 2113 3584 
Q 2378 3584 2631 3529 
Q 2884 3475 3122 3366 
z
" transform="scale(0.015625)"/>
        <path id="DejaVuSans-73" d="M 2834 3397 
L 2834 2853 
Q 2591 2978 2328 3040 
Q 2066 3103 1784 3103 
Q 1356 3103 1142 2972 
Q 928 2841 928 2578 
Q 928 2378 1081 2264 
Q 1234 2150 1697 2047 
L 1894 2003 
Q 2506 1872 2764 1633 
Q 3022 1394 3022 966 
Q 3022 478 2636 193 
Q 2250 -91 1575 -91 
Q 1294 -91 989 -36 
Q 684 19 347 128 
L 347 722 
Q 666 556 975 473 
Q 1284 391 1588 391 
Q 1994 391 2212 530 
Q 2431 669 2431 922 
Q 2431 1156 2273 1281 
Q 2116 1406 1581 1522 
L 1381 1569 
Q 847 1681 609 1914 
Q 372 2147 372 2553 
Q 372 3047 722 3315 
Q 1072 3584 1716 3584 
Q 2034 3584 2315 3537 
Q 2597 3491 2834 3397 
z
" transform="scale(0.015625)"/>
       </defs>
       <use xlink:href="#DejaVuSans-62"/>
       <use xlink:href="#DejaVuSans-69" transform="translate(63.476562 0)"/>
       <use xlink:href="#DejaVuSans-6f" transform="translate(91.259766 0)"/>
       <use xlink:href="#DejaVuSans-6d" transform="translate(152.441406 0)"/>
       <use xlink:href="#DejaVuSans-65" transform="translate(249.853516 0)"/>
       <use xlink:href="#DejaVuSans-74" transform="translate(311.376953 0)"/>
       <use xlink:href="#DejaVuSans-72" transform="translate(350.585938 0)"/>
       <use xlink:href="#DejaVuSans-69" transform="translate(391.699219 0)"/>
       <use xlink:href="#DejaVuSans-63" transform="translate(419.482422 0)"/>
       <use xlink:href="#DejaVuSans-73" transform="translate(474.462891 0)"/>
      </g>
     </g>
    </g>
    <g id="xtick_2">
     <g id="line2d_2">
      <g>
       <use xlink:href="#ma647fc1f7a" x="159.804375" y="363.857812" style="stroke: #000000; stroke-width: 0.8"/>
      </g>
     </g>
     <g id="text_2">
      <!-- education -->
      <g transform="translate(139.95625 376.936562) scale(0.08 -0.08)">
       <defs>
        <path id="DejaVuSans-64" d="M 2906 2969 
L 2906 4863 
L 3481 4863 
L 3481 0 
L 2906 0 
L 2906 525 
Q 2725 213 2448 61 
Q 2172 -91 1784 -91 
Q 1150 -91 751 415 
Q 353 922 353 1747 
Q 353 2572 751 3078 
Q 1150 3584 1784 3584 
Q 2172 3584 2448 3432 
Q 2725 3281 2906 2969 
z
M 947 1747 
Q 947 1113 1208 752 
Q 1469 391 1925 391 
Q 2381 391 2643 752 
Q 2906 1113 2906 1747 
Q 2906 2381 2643 2742 
Q 2381 3103 1925 3103 
Q 1469 3103 1208 2742 
Q 947 2381 947 1747 
z
" transform="scale(0.015625)"/>
        <path id="DejaVuSans-75" d="M 544 1381 
L 544 3500 
L 1119 3500 
L 1119 1403 
Q 1119 906 1312 657 
Q 1506 409 1894 409 
Q 2359 409 2629 706 
Q 2900 1003 2900 1516 
L 2900 3500 
L 3475 3500 
L 3475 0 
L 2900 0 
L 2900 538 
Q 2691 219 2414 64 
Q 2138 -91 1772 -91 
Q 1169 -91 856 284 
Q 544 659 544 1381 
z
M 1991 3584 
L 1991 3584 
z
" transform="scale(0.015625)"/>
        <path id="DejaVuSans-61" d="M 2194 1759 
Q 1497 1759 1228 1600 
Q 959 1441 959 1056 
Q 959 750 1161 570 
Q 1363 391 1709 391 
Q 2188 391 2477 730 
Q 2766 1069 2766 1631 
L 2766 1759 
L 2194 1759 
z
M 3341 1997 
L 3341 0 
L 2766 0 
L 2766 531 
Q 2569 213 2275 61 
Q 1981 -91 1556 -91 
Q 1019 -91 701 211 
Q 384 513 384 1019 
Q 384 1609 779 1909 
Q 1175 2209 1959 2209 
L 2766 2209 
L 2766 2266 
Q 2766 2663 2505 2880 
Q 2244 3097 1772 3097 
Q 1472 3097 1187 3025 
Q 903 2953 641 2809 
L 641 3341 
Q 956 3463 1253 3523 
Q 1550 3584 1831 3584 
Q 2591 3584 2966 3190 
Q 3341 2797 3341 1997 
z
" transform="scale(0.015625)"/>
        <path id="DejaVuSans-6e" d="M 3513 2113 
L 3513 0 
L 2938 0 
L 2938 2094 
Q 2938 2591 2744 2837 
Q 2550 3084 2163 3084 
Q 1697 3084 1428 2787 
Q 1159 2491 1159 1978 
L 1159 0 
L 581 0 
L 581 3500 
L 1159 3500 
L 1159 2956 
Q 1366 3272 1645 3428 
Q 1925 3584 2291 3584 
Q 2894 3584 3203 3211 
Q 3513 2838 3513 2113 
z
" transform="scale(0.015625)"/>
       </defs>
       <use xlink:href="#DejaVuSans-65"/>
       <use xlink:href="#DejaVuSans-64" transform="translate(61.523438 0)"/>
       <use xlink:href="#DejaVuSans-75" transform="translate(125 0)"/>
       <use xlink:href="#DejaVuSans-63" transform="translate(188.378906 0)"/>
       <use xlink:href="#DejaVuSans-61" transform="translate(243.359375 0)"/>
       <use xlink:href="#DejaVuSans-74" transform="translate(304.638672 0)"/>
       <use xlink:href="#DejaVuSans-69" transform="translate(343.847656 0)"/>
       <use xlink:href="#DejaVuSans-6f" transform="translate(371.630859 0)"/>
       <use xlink:href="#DejaVuSans-6e" transform="translate(432.8125 0)"/>
      </g>
      <!-- vocational -->
      <g transform="translate(139.114375 385.894813) scale(0.08 -0.08)">
       <defs>
        <path id="DejaVuSans-76" d="M 191 3500 
L 800 3500 
L 1894 563 
L 2988 3500 
L 3597 3500 
L 2284 0 
L 1503 0 
L 191 3500 
z
" transform="scale(0.015625)"/>
        <path id="DejaVuSans-6c" d="M 603 4863 
L 1178 4863 
L 1178 0 
L 603 0 
L 603 4863 
z
" transform="scale(0.015625)"/>
       </defs>
       <use xlink:href="#DejaVuSans-76"/>
       <use xlink:href="#DejaVuSans-6f" transform="translate(59.179688 0)"/>
       <use xlink:href="#DejaVuSans-63" transform="translate(120.361328 0)"/>
       <use xlink:href="#DejaVuSans-61" transform="translate(175.341797 0)"/>
       <use xlink:href="#DejaVuSans-74" transform="translate(236.621094 0)"/>
       <use xlink:href="#DejaVuSans-69" transform="translate(275.830078 0)"/>
       <use xlink:href="#DejaVuSans-6f" transform="translate(303.613281 0)"/>
       <use xlink:href="#DejaVuSans-6e" transform="translate(364.794922 0)"/>
       <use xlink:href="#DejaVuSans-61" transform="translate(428.173828 0)"/>
       <use xlink:href="#DejaVuSans-6c" transform="translate(489.453125 0)"/>
      </g>
      <!-- training -->
      <g transform="translate(144.30875 394.853062) scale(0.08 -0.08)">
       <defs>
        <path id="DejaVuSans-67" d="M 2906 1791 
Q 2906 2416 2648 2759 
Q 2391 3103 1925 3103 
Q 1463 3103 1205 2759 
Q 947 2416 947 1791 
Q 947 1169 1205 825 
Q 1463 481 1925 481 
Q 2391 481 2648 825 
Q 2906 1169 2906 1791 
z
M 3481 434 
Q 3481 -459 3084 -895 
Q 2688 -1331 1869 -1331 
Q 1566 -1331 1297 -1286 
Q 1028 -1241 775 -1147 
L 775 -588 
Q 1028 -725 1275 -790 
Q 1522 -856 1778 -856 
Q 2344 -856 2625 -561 
Q 2906 -266 2906 331 
L 2906 616 
Q 2728 306 2450 153 
Q 2172 0 1784 0 
Q 1141 0 747 490 
Q 353 981 353 1791 
Q 353 2603 747 3093 
Q 1141 3584 1784 3584 
Q 2172 3584 2450 3431 
Q 2728 3278 2906 2969 
L 2906 3500 
L 3481 3500 
L 3481 434 
z
" transform="scale(0.015625)"/>
       </defs>
       <use xlink:href="#DejaVuSans-74"/>
       <use xlink:href="#DejaVuSans-72" transform="translate(39.208984 0)"/>
       <use xlink:href="#DejaVuSans-61" transform="translate(80.322266 0)"/>
       <use xlink:href="#DejaVuSans-69" transform="translate(141.601562 0)"/>
       <use xlink:href="#DejaVuSans-6e" transform="translate(169.384766 0)"/>
       <use xlink:href="#DejaVuSans-69" transform="translate(232.763672 0)"/>
       <use xlink:href="#DejaVuSans-6e" transform="translate(260.546875 0)"/>
       <use xlink:href="#DejaVuSans-67" transform="translate(323.925781 0)"/>
      </g>
     </g>
    </g>
    <g id="xtick_3">
     <g id="line2d_3">
      <g>
       <use xlink:href="#ma647fc1f7a" x="239.271875" y="363.857812" style="stroke: #000000; stroke-width: 0.8"/>
      </g>
     </g>
     <g id="text_3">
      <!-- employment -->
      <g transform="translate(213.988125 376.936562) scale(0.08 -0.08)">
       <defs>
        <path id="DejaVuSans-70" d="M 1159 525 
L 1159 -1331 
L 581 -1331 
L 581 3500 
L 1159 3500 
L 1159 2969 
Q 1341 3281 1617 3432 
Q 1894 3584 2278 3584 
Q 2916 3584 3314 3078 
Q 3713 2572 3713 1747 
Q 3713 922 3314 415 
Q 2916 -91 2278 -91 
Q 1894 -91 1617 61 
Q 1341 213 1159 525 
z
M 3116 1747 
Q 3116 2381 2855 2742 
Q 2594 3103 2138 3103 
Q 1681 3103 1420 2742 
Q 1159 2381 1159 1747 
Q 1159 1113 1420 752 
Q 1681 391 2138 391 
Q 2594 391 2855 752 
Q 3116 1113 3116 1747 
z
" transform="scale(0.015625)"/>
        <path id="DejaVuSans-79" d="M 2059 -325 
Q 1816 -950 1584 -1140 
Q 1353 -1331 966 -1331 
L 506 -1331 
L 506 -850 
L 844 -850 
Q 1081 -850 1212 -737 
Q 1344 -625 1503 -206 
L 1606 56 
L 191 3500 
L 800 3500 
L 1894 763 
L 2988 3500 
L 3597 3500 
L 2059 -325 
z
" transform="scale(0.015625)"/>
       </defs>
       <use xlink:href="#DejaVuSans-65"/>
       <use xlink:href="#DejaVuSans-6d" transform="translate(61.523438 0)"/>
       <use xlink:href="#DejaVuSans-70" transform="translate(158.935547 0)"/>
       <use xlink:href="#DejaVuSans-6c" transform="translate(222.412109 0)"/>
       <use xlink:href="#DejaVuSans-6f" transform="translate(250.195312 0)"/>
       <use xlink:href="#DejaVuSans-79" transform="translate(311.376953 0)"/>
       <use xlink:href="#DejaVuSans-6d" transform="translate(370.556641 0)"/>
       <use xlink:href="#DejaVuSans-65" transform="translate(467.96875 0)"/>
       <use xlink:href="#DejaVuSans-6e" transform="translate(529.492188 0)"/>
       <use xlink:href="#DejaVuSans-74" transform="translate(592.871094 0)"/>
      </g>
      <!-- worker -->
      <g transform="translate(225.631875 385.894813) scale(0.08 -0.08)">
       <defs>
        <path id="DejaVuSans-77" d="M 269 3500 
L 844 3500 
L 1563 769 
L 2278 3500 
L 2956 3500 
L 3675 769 
L 4391 3500 
L 4966 3500 
L 4050 0 
L 3372 0 
L 2619 2869 
L 1863 0 
L 1184 0 
L 269 3500 
z
" transform="scale(0.015625)"/>
        <path id="DejaVuSans-6b" d="M 581 4863 
L 1159 4863 
L 1159 1991 
L 2875 3500 
L 3609 3500 
L 1753 1863 
L 3688 0 
L 2938 0 
L 1159 1709 
L 1159 0 
L 581 0 
L 581 4863 
z
" transform="scale(0.015625)"/>
       </defs>
       <use xlink:href="#DejaVuSans-77"/>
       <use xlink:href="#DejaVuSans-6f" transform="translate(81.787109 0)"/>
       <use xlink:href="#DejaVuSans-72" transform="translate(142.96875 0)"/>
       <use xlink:href="#DejaVuSans-6b" transform="translate(184.082031 0)"/>
       <use xlink:href="#DejaVuSans-65" transform="translate(238.367188 0)"/>
       <use xlink:href="#DejaVuSans-72" transform="translate(299.890625 0)"/>
      </g>
      <!-- management -->
      <g transform="translate(212.476875 394.853062) scale(0.08 -0.08)">
       <use xlink:href="#DejaVuSans-6d"/>
       <use xlink:href="#DejaVuSans-61" transform="translate(97.412109 0)"/>
       <use xlink:href="#DejaVuSans-6e" transform="translate(158.691406 0)"/>
       <use xlink:href="#DejaVuSans-61" transform="translate(222.070312 0)"/>
       <use xlink:href="#DejaVuSans-67" transform="translate(283.349609 0)"/>
       <use xlink:href="#DejaVuSans-65" transform="translate(346.826172 0)"/>
       <use xlink:href="#DejaVuSans-6d" transform="translate(408.349609 0)"/>
       <use xlink:href="#DejaVuSans-65" transform="translate(505.761719 0)"/>
       <use xlink:href="#DejaVuSans-6e" transform="translate(567.285156 0)"/>
       <use xlink:href="#DejaVuSans-74" transform="translate(630.664062 0)"/>
      </g>
     </g>
    </g>
    <g id="xtick_4">
     <g id="line2d_4">
      <g>
       <use xlink:href="#ma647fc1f7a" x="318.739375" y="363.857812" style="stroke: #000000; stroke-width: 0.8"/>
      </g>
     </g>
     <g id="text_4">
      <!-- essential -->
      <g transform="translate(300.8725 376.936562) scale(0.08 -0.08)">
       <use xlink:href="#DejaVuSans-65"/>
       <use xlink:href="#DejaVuSans-73" transform="translate(61.523438 0)"/>
       <use xlink:href="#DejaVuSans-73" transform="translate(113.623047 0)"/>
       <use xlink:href="#DejaVuSans-65" transform="translate(165.722656 0)"/>
       <use xlink:href="#DejaVuSans-6e" transform="translate(227.246094 0)"/>
       <use xlink:href="#DejaVuSans-74" transform="translate(290.625 0)"/>
       <use xlink:href="#DejaVuSans-69" transform="translate(329.833984 0)"/>
       <use xlink:href="#DejaVuSans-61" transform="translate(357.617188 0)"/>
       <use xlink:href="#DejaVuSans-6c" transform="translate(418.896484 0)"/>
      </g>
      <!-- services -->
      <g transform="translate(302.326875 385.894813) scale(0.08 -0.08)">
       <use xlink:href="#DejaVuSans-73"/>
       <use xlink:href="#DejaVuSans-65" transform="translate(52.099609 0)"/>
       <use xlink:href="#DejaVuSans-72" transform="translate(113.623047 0)"/>
       <use xlink:href="#DejaVuSans-76" transform="translate(154.736328 0)"/>
       <use xlink:href="#DejaVuSans-69" transform="translate(213.916016 0)"/>
       <use xlink:href="#DejaVuSans-63" transform="translate(241.699219 0)"/>
       <use xlink:href="#DejaVuSans-65" transform="translate(296.679688 0)"/>
       <use xlink:href="#DejaVuSans-73" transform="translate(358.203125 0)"/>
      </g>
      <!-- benefits -->
      <g transform="translate(302.57125 394.853062) scale(0.08 -0.08)">
       <defs>
        <path id="DejaVuSans-66" d="M 2375 4863 
L 2375 4384 
L 1825 4384 
Q 1516 4384 1395 4259 
Q 1275 4134 1275 3809 
L 1275 3500 
L 2222 3500 
L 2222 3053 
L 1275 3053 
L 1275 0 
L 697 0 
L 697 3053 
L 147 3053 
L 147 3500 
L 697 3500 
L 697 3744 
Q 697 4328 969 4595 
Q 1241 4863 1831 4863 
L 2375 4863 
z
" transform="scale(0.015625)"/>
       </defs>
       <use xlink:href="#DejaVuSans-62"/>
       <use xlink:href="#DejaVuSans-65" transform="translate(63.476562 0)"/>
       <use xlink:href="#DejaVuSans-6e" transform="translate(125 0)"/>
       <use xlink:href="#DejaVuSans-65" transform="translate(188.378906 0)"/>
       <use xlink:href="#DejaVuSans-66" transform="translate(249.902344 0)"/>
       <use xlink:href="#DejaVuSans-69" transform="translate(285.107422 0)"/>
       <use xlink:href="#DejaVuSans-74" transform="translate(312.890625 0)"/>
       <use xlink:href="#DejaVuSans-73" transform="translate(352.099609 0)"/>
      </g>
     </g>
    </g>
    <g id="xtick_5">
     <g id="line2d_5">
      <g>
       <use xlink:href="#ma647fc1f7a" x="398.206875" y="363.857812" style="stroke: #000000; stroke-width: 0.8"/>
      </g>
     </g>
     <g id="text_5">
      <!-- justice -->
      <g transform="translate(385.136875 376.936562) scale(0.08 -0.08)">
       <defs>
        <path id="DejaVuSans-6a" d="M 603 3500 
L 1178 3500 
L 1178 -63 
Q 1178 -731 923 -1031 
Q 669 -1331 103 -1331 
L -116 -1331 
L -116 -844 
L 38 -844 
Q 366 -844 484 -692 
Q 603 -541 603 -63 
L 603 3500 
z
M 603 4863 
L 1178 4863 
L 1178 4134 
L 603 4134 
L 603 4863 
z
" transform="scale(0.015625)"/>
       </defs>
       <use xlink:href="#DejaVuSans-6a"/>
       <use xlink:href="#DejaVuSans-75" transform="translate(27.783203 0)"/>
       <use xlink:href="#DejaVuSans-73" transform="translate(91.162109 0)"/>
       <use xlink:href="#DejaVuSans-74" transform="translate(143.261719 0)"/>
       <use xlink:href="#DejaVuSans-69" transform="translate(182.470703 0)"/>
       <use xlink:href="#DejaVuSans-63" transform="translate(210.253906 0)"/>
       <use xlink:href="#DejaVuSans-65" transform="translate(265.234375 0)"/>
      </g>
      <!-- democratic -->
      <g transform="translate(375.68875 385.894813) scale(0.08 -0.08)">
       <use xlink:href="#DejaVuSans-64"/>
       <use xlink:href="#DejaVuSans-65" transform="translate(63.476562 0)"/>
       <use xlink:href="#DejaVuSans-6d" transform="translate(125 0)"/>
       <use xlink:href="#DejaVuSans-6f" transform="translate(222.412109 0)"/>
       <use xlink:href="#DejaVuSans-63" transform="translate(283.59375 0)"/>
       <use xlink:href="#DejaVuSans-72" transform="translate(338.574219 0)"/>
       <use xlink:href="#DejaVuSans-61" transform="translate(379.6875 0)"/>
       <use xlink:href="#DejaVuSans-74" transform="translate(440.966797 0)"/>
       <use xlink:href="#DejaVuSans-69" transform="translate(480.175781 0)"/>
       <use xlink:href="#DejaVuSans-63" transform="translate(507.958984 0)"/>
      </g>
      <!-- processes -->
      <g transform="translate(378.2925 394.853062) scale(0.08 -0.08)">
       <use xlink:href="#DejaVuSans-70"/>
       <use xlink:href="#DejaVuSans-72" transform="translate(63.476562 0)"/>
       <use xlink:href="#DejaVuSans-6f" transform="translate(102.339844 0)"/>
       <use xlink:href="#DejaVuSans-63" transform="translate(163.521484 0)"/>
       <use xlink:href="#DejaVuSans-65" transform="translate(218.501953 0)"/>
       <use xlink:href="#DejaVuSans-73" transform="translate(280.025391 0)"/>
       <use xlink:href="#DejaVuSans-73" transform="translate(332.125 0)"/>
       <use xlink:href="#DejaVuSans-65" transform="translate(384.224609 0)"/>
       <use xlink:href="#DejaVuSans-73" transform="translate(445.748047 0)"/>
      </g>
     </g>
    </g>
    <g id="xtick_6">
     <g id="line2d_6">
      <g>
       <use xlink:href="#ma647fc1f7a" x="477.674375" y="363.857812" style="stroke: #000000; stroke-width: 0.8"/>
      </g>
     </g>
     <g id="text_6">
      <!-- law -->
      <g transform="translate(470.840625 376.936562) scale(0.08 -0.08)">
       <use xlink:href="#DejaVuSans-6c"/>
       <use xlink:href="#DejaVuSans-61" transform="translate(27.783203 0)"/>
       <use xlink:href="#DejaVuSans-77" transform="translate(89.0625 0)"/>
      </g>
      <!-- enforcement -->
      <g transform="translate(452.146875 385.894813) scale(0.08 -0.08)">
       <use xlink:href="#DejaVuSans-65"/>
       <use xlink:href="#DejaVuSans-6e" transform="translate(61.523438 0)"/>
       <use xlink:href="#DejaVuSans-66" transform="translate(124.902344 0)"/>
       <use xlink:href="#DejaVuSans-6f" transform="translate(160.107422 0)"/>
       <use xlink:href="#DejaVuSans-72" transform="translate(221.289062 0)"/>
       <use xlink:href="#DejaVuSans-63" transform="translate(260.152344 0)"/>
       <use xlink:href="#DejaVuSans-65" transform="translate(315.132812 0)"/>
       <use xlink:href="#DejaVuSans-6d" transform="translate(376.65625 0)"/>
       <use xlink:href="#DejaVuSans-65" transform="translate(474.068359 0)"/>
       <use xlink:href="#DejaVuSans-6e" transform="translate(535.591797 0)"/>
       <use xlink:href="#DejaVuSans-74" transform="translate(598.970703 0)"/>
      </g>
     </g>
    </g>
    <g id="xtick_7">
     <g id="line2d_7">
      <g>
       <use xlink:href="#ma647fc1f7a" x="557.141875" y="363.857812" style="stroke: #000000; stroke-width: 0.8"/>
      </g>
     </g>
     <g id="text_7">
      <!-- migration -->
      <g transform="translate(537.8375 376.936562) scale(0.08 -0.08)">
       <use xlink:href="#DejaVuSans-6d"/>
       <use xlink:href="#DejaVuSans-69" transform="translate(97.412109 0)"/>
       <use xlink:href="#DejaVuSans-67" transform="translate(125.195312 0)"/>
       <use xlink:href="#DejaVuSans-72" transform="translate(188.671875 0)"/>
       <use xlink:href="#DejaVuSans-61" transform="translate(229.785156 0)"/>
       <use xlink:href="#DejaVuSans-74" transform="translate(291.064453 0)"/>
       <use xlink:href="#DejaVuSans-69" transform="translate(330.273438 0)"/>
       <use xlink:href="#DejaVuSans-6f" transform="translate(358.056641 0)"/>
       <use xlink:href="#DejaVuSans-6e" transform="translate(419.238281 0)"/>
      </g>
      <!-- asylum -->
      <g transform="translate(542.696875 385.894813) scale(0.08 -0.08)">
       <use xlink:href="#DejaVuSans-61"/>
       <use xlink:href="#DejaVuSans-73" transform="translate(61.279297 0)"/>
       <use xlink:href="#DejaVuSans-79" transform="translate(113.378906 0)"/>
       <use xlink:href="#DejaVuSans-6c" transform="translate(172.558594 0)"/>
       <use xlink:href="#DejaVuSans-75" transform="translate(200.341797 0)"/>
       <use xlink:href="#DejaVuSans-6d" transform="translate(263.720703 0)"/>
      </g>
      <!-- border -->
      <g transform="translate(543.935625 394.853062) scale(0.08 -0.08)">
       <use xlink:href="#DejaVuSans-62"/>
       <use xlink:href="#DejaVuSans-6f" transform="translate(63.476562 0)"/>
       <use xlink:href="#DejaVuSans-72" transform="translate(124.658203 0)"/>
       <use xlink:href="#DejaVuSans-64" transform="translate(164.021484 0)"/>
       <use xlink:href="#DejaVuSans-65" transform="translate(227.498047 0)"/>
       <use xlink:href="#DejaVuSans-72" transform="translate(289.021484 0)"/>
      </g>
      <!-- control -->
      <g transform="translate(543.27875 403.811312) scale(0.08 -0.08)">
       <use xlink:href="#DejaVuSans-63"/>
       <use xlink:href="#DejaVuSans-6f" transform="translate(54.980469 0)"/>
       <use xlink:href="#DejaVuSans-6e" transform="translate(116.162109 0)"/>
       <use xlink:href="#DejaVuSans-74" transform="translate(179.541016 0)"/>
       <use xlink:href="#DejaVuSans-72" transform="translate(218.75 0)"/>
       <use xlink:href="#DejaVuSans-6f" transform="translate(257.613281 0)"/>
       <use xlink:href="#DejaVuSans-6c" transform="translate(318.794922 0)"/>
      </g>
     </g>
    </g>
    <g id="xtick_8">
     <g id="line2d_8">
      <g>
       <use xlink:href="#ma647fc1f7a" x="636.609375" y="363.857812" style="stroke: #000000; stroke-width: 0.8"/>
      </g>
     </g>
     <g id="text_8">
      <!-- non -->
      <g transform="translate(629.091875 376.936562) scale(0.08 -0.08)">
       <use xlink:href="#DejaVuSans-6e"/>
       <use xlink:href="#DejaVuSans-6f" transform="translate(63.378906 0)"/>
       <use xlink:href="#DejaVuSans-6e" transform="translate(124.560547 0)"/>
      </g>
      <!-- annex -->
      <g transform="translate(624.329375 385.894813) scale(0.08 -0.08)">
       <defs>
        <path id="DejaVuSans-78" d="M 3513 3500 
L 2247 1797 
L 3578 0 
L 2900 0 
L 1881 1375 
L 863 0 
L 184 0 
L 1544 1831 
L 300 3500 
L 978 3500 
L 1906 2253 
L 2834 3500 
L 3513 3500 
z
" transform="scale(0.015625)"/>
       </defs>
       <use xlink:href="#DejaVuSans-61"/>
       <use xlink:href="#DejaVuSans-6e" transform="translate(61.279297 0)"/>
       <use xlink:href="#DejaVuSans-6e" transform="translate(124.658203 0)"/>
       <use xlink:href="#DejaVuSans-65" transform="translate(188.037109 0)"/>
       <use xlink:href="#DejaVuSans-78" transform="translate(247.810547 0)"/>
      </g>
      <!-- comparator -->
      <g transform="translate(613.32 394.853062) scale(0.08 -0.08)">
       <use xlink:href="#DejaVuSans-63"/>
       <use xlink:href="#DejaVuSans-6f" transform="translate(54.980469 0)"/>
       <use xlink:href="#DejaVuSans-6d" transform="translate(116.162109 0)"/>
       <use xlink:href="#DejaVuSans-70" transform="translate(213.574219 0)"/>
       <use xlink:href="#DejaVuSans-61" transform="translate(277.050781 0)"/>
       <use xlink:href="#DejaVuSans-72" transform="translate(338.330078 0)"/>
       <use xlink:href="#DejaVuSans-61" transform="translate(379.443359 0)"/>
       <use xlink:href="#DejaVuSans-74" transform="translate(440.722656 0)"/>
       <use xlink:href="#DejaVuSans-6f" transform="translate(479.931641 0)"/>
       <use xlink:href="#DejaVuSans-72" transform="translate(541.113281 0)"/>
      </g>
     </g>
    </g>
    <g id="text_9">
     <!-- EU AI Act Annex III Area (analytical reference frame) -->
     <g transform="translate(227.573906 417.0735) scale(0.1 -0.1)">
      <defs>
       <path id="DejaVuSans-45" d="M 628 4666 
L 3578 4666 
L 3578 4134 
L 1259 4134 
L 1259 2753 
L 3481 2753 
L 3481 2222 
L 1259 2222 
L 1259 531 
L 3634 531 
L 3634 0 
L 628 0 
L 628 4666 
z
" transform="scale(0.015625)"/>
       <path id="DejaVuSans-55" d="M 556 4666 
L 1191 4666 
L 1191 1831 
Q 1191 1081 1462 751 
Q 1734 422 2344 422 
Q 2950 422 3222 751 
Q 3494 1081 3494 1831 
L 3494 4666 
L 4128 4666 
L 4128 1753 
Q 4128 841 3676 375 
Q 3225 -91 2344 -91 
Q 1459 -91 1007 375 
Q 556 841 556 1753 
L 556 4666 
z
" transform="scale(0.015625)"/>
       <path id="DejaVuSans-20" transform="scale(0.015625)"/>
       <path id="DejaVuSans-41" d="M 2188 4044 
L 1331 1722 
L 3047 1722 
L 2188 4044 
z
M 1831 4666 
L 2547 4666 
L 4325 0 
L 3669 0 
L 3244 1197 
L 1141 1197 
L 716 0 
L 50 0 
L 1831 4666 
z
" transform="scale(0.015625)"/>
       <path id="DejaVuSans-49" d="M 628 4666 
L 1259 4666 
L 1259 0 
L 628 0 
L 628 4666 
z
" transform="scale(0.015625)"/>
       <path id="DejaVuSans-28" d="M 1984 4856 
Q 1566 4138 1362 3434 
Q 1159 2731 1159 2009 
Q 1159 1288 1364 580 
Q 1569 -128 1984 -844 
L 1484 -844 
Q 1016 -109 783 600 
Q 550 1309 550 2009 
Q 550 2706 781 3412 
Q 1013 4119 1484 4856 
L 1984 4856 
z
" transform="scale(0.015625)"/>
       <path id="DejaVuSans-29" d="M 513 4856 
L 1013 4856 
Q 1481 4119 1714 3412 
Q 1947 2706 1947 2009 
Q 1947 1309 1714 600 
Q 1481 -109 1013 -844 
L 513 -844 
Q 928 -128 1133 580 
Q 1338 1288 1338 2009 
Q 1338 2731 1133 3434 
Q 928 4138 513 4856 
z
" transform="scale(0.015625)"/>
      </defs>
      <use xlink:href="#DejaVuSans-45"/>
      <use xlink:href="#DejaVuSans-55" transform="translate(63.183594 0)"/>
      <use xlink:href="#DejaVuSans-20" transform="translate(136.376953 0)"/>
      <use xlink:href="#DejaVuSans-41" transform="translate(168.164062 0)"/>
      <use xlink:href="#DejaVuSans-49" transform="translate(236.572266 0)"/>
      <use xlink:href="#DejaVuSans-20" transform="translate(266.064453 0)"/>
      <use xlink:href="#DejaVuSans-41" transform="translate(297.851562 0)"/>
      <use xlink:href="#DejaVuSans-63" transform="translate(364.509766 0)"/>
      <use xlink:href="#DejaVuSans-74" transform="translate(419.490234 0)"/>
      <use xlink:href="#DejaVuSans-20" transform="translate(458.699219 0)"/>
      <use xlink:href="#DejaVuSans-41" transform="translate(490.486328 0)"/>
      <use xlink:href="#DejaVuSans-6e" transform="translate(558.894531 0)"/>
      <use xlink:href="#DejaVuSans-6e" transform="translate(622.273438 0)"/>
      <use xlink:href="#DejaVuSans-65" transform="translate(685.652344 0)"/>
      <use xlink:href="#DejaVuSans-78" transform="translate(745.425781 0)"/>
      <use xlink:href="#DejaVuSans-20" transform="translate(804.605469 0)"/>
      <use xlink:href="#DejaVuSans-49" transform="translate(836.392578 0)"/>
      <use xlink:href="#DejaVuSans-49" transform="translate(865.884766 0)"/>
      <use xlink:href="#DejaVuSans-49" transform="translate(895.376953 0)"/>
      <use xlink:href="#DejaVuSans-20" transform="translate(924.869141 0)"/>
      <use xlink:href="#DejaVuSans-41" transform="translate(956.65625 0)"/>
      <use xlink:href="#DejaVuSans-72" transform="translate(1025.064453 0)"/>
      <use xlink:href="#DejaVuSans-65" transform="translate(1063.927734 0)"/>
      <use xlink:href="#DejaVuSans-61" transform="translate(1125.451172 0)"/>
      <use xlink:href="#DejaVuSans-20" transform="translate(1186.730469 0)"/>
      <use xlink:href="#DejaVuSans-28" transform="translate(1218.517578 0)"/>
      <use xlink:href="#DejaVuSans-61" transform="translate(1257.53125 0)"/>
      <use xlink:href="#DejaVuSans-6e" transform="translate(1318.810547 0)"/>
      <use xlink:href="#DejaVuSans-61" transform="translate(1382.189453 0)"/>
      <use xlink:href="#DejaVuSans-6c" transform="translate(1443.46875 0)"/>
      <use xlink:href="#DejaVuSans-79" transform="translate(1471.251953 0)"/>
      <use xlink:href="#DejaVuSans-74" transform="translate(1530.431641 0)"/>
      <use xlink:href="#DejaVuSans-69" transform="translate(1569.640625 0)"/>
      <use xlink:href="#DejaVuSans-63" transform="translate(1597.423828 0)"/>
      <use xlink:href="#DejaVuSans-61" transform="translate(1652.404297 0)"/>
      <use xlink:href="#DejaVuSans-6c" transform="translate(1713.683594 0)"/>
      <use xlink:href="#DejaVuSans-20" transform="translate(1741.466797 0)"/>
      <use xlink:href="#DejaVuSans-72" transform="translate(1773.253906 0)"/>
      <use xlink:href="#DejaVuSans-65" transform="translate(1812.117188 0)"/>
      <use xlink:href="#DejaVuSans-66" transform="translate(1873.640625 0)"/>
      <use xlink:href="#DejaVuSans-65" transform="translate(1908.845703 0)"/>
      <use xlink:href="#DejaVuSans-72" transform="translate(1970.369141 0)"/>
      <use xlink:href="#DejaVuSans-65" transform="translate(2009.232422 0)"/>
      <use xlink:href="#DejaVuSans-6e" transform="translate(2070.755859 0)"/>
      <use xlink:href="#DejaVuSans-63" transform="translate(2134.134766 0)"/>
      <use xlink:href="#DejaVuSans-65" transform="translate(2189.115234 0)"/>
      <use xlink:href="#DejaVuSans-20" transform="translate(2250.638672 0)"/>
      <use xlink:href="#DejaVuSans-66" transform="translate(2282.425781 0)"/>
      <use xlink:href="#DejaVuSans-72" transform="translate(2317.630859 0)"/>
      <use xlink:href="#DejaVuSans-61" transform="translate(2358.744141 0)"/>
      <use xlink:href="#DejaVuSans-6d" transform="translate(2420.023438 0)"/>
      <use xlink:href="#DejaVuSans-65" transform="translate(2517.435547 0)"/>
      <use xlink:href="#DejaVuSans-29" transform="translate(2578.958984 0)"/>
     </g>
    </g>
   </g>
   <g id="matplotlib.axis_2">
    <g id="ytick_1">
     <g id="line2d_9">
      <defs>
       <path id="mbbcbb37d18" d="M 0 0 
L -3.5 0 
" style="stroke: #000000; stroke-width: 0.8"/>
      </defs>
      <g>
       <use xlink:href="#mbbcbb37d18" x="40.603125" y="354.154989" style="stroke: #000000; stroke-width: 0.8"/>
      </g>
     </g>
     <g id="text_10">
      <!-- 0 -->
      <g transform="translate(27.240625 357.954208) scale(0.1 -0.1)">
       <defs>
        <path id="DejaVuSans-30" d="M 2034 4250 
Q 1547 4250 1301 3770 
Q 1056 3291 1056 2328 
Q 1056 1369 1301 889 
Q 1547 409 2034 409 
Q 2525 409 2770 889 
Q 3016 1369 3016 2328 
Q 3016 3291 2770 3770 
Q 2525 4250 2034 4250 
z
M 2034 4750 
Q 2819 4750 3233 4129 
Q 3647 3509 3647 2328 
Q 3647 1150 3233 529 
Q 2819 -91 2034 -91 
Q 1250 -91 836 529 
Q 422 1150 422 2328 
Q 422 3509 836 4129 
Q 1250 4750 2034 4750 
z
" transform="scale(0.015625)"/>
       </defs>
       <use xlink:href="#DejaVuSans-30"/>
      </g>
     </g>
    </g>
    <g id="ytick_2">
     <g id="line2d_10">
      <g>
       <use xlink:href="#mbbcbb37d18" x="40.603125" y="315.343695" style="stroke: #000000; stroke-width: 0.8"/>
      </g>
     </g>
     <g id="text_11">
      <!-- 2 -->
      <g transform="translate(27.240625 319.142914) scale(0.1 -0.1)">
       <defs>
        <path id="DejaVuSans-32" d="M 1228 531 
L 3431 531 
L 3431 0 
L 469 0 
L 469 531 
Q 828 903 1448 1529 
Q 2069 2156 2228 2338 
Q 2531 2678 2651 2914 
Q 2772 3150 2772 3378 
Q 2772 3750 2511 3984 
Q 2250 4219 1831 4219 
Q 1534 4219 1204 4116 
Q 875 4013 500 3803 
L 500 4441 
Q 881 4594 1212 4672 
Q 1544 4750 1819 4750 
Q 2544 4750 2975 4387 
Q 3406 4025 3406 3419 
Q 3406 3131 3298 2873 
Q 3191 2616 2906 2266 
Q 2828 2175 2409 1742 
Q 1991 1309 1228 531 
z
" transform="scale(0.015625)"/>
       </defs>
       <use xlink:href="#DejaVuSans-32"/>
      </g>
     </g>
    </g>
    <g id="ytick_3">
     <g id="line2d_11">
      <g>
       <use xlink:href="#mbbcbb37d18" x="40.603125" y="276.532401" style="stroke: #000000; stroke-width: 0.8"/>
      </g>
     </g>
     <g id="text_12">
      <!-- 4 -->
      <g transform="translate(27.240625 280.331619) scale(0.1 -0.1)">
       <defs>
        <path id="DejaVuSans-34" d="M 2419 4116 
L 825 1625 
L 2419 1625 
L 2419 4116 
z
M 2253 4666 
L 3047 4666 
L 3047 1625 
L 3713 1625 
L 3713 1100 
L 3047 1100 
L 3047 0 
L 2419 0 
L 2419 1100 
L 313 1100 
L 313 1709 
L 2253 4666 
z
" transform="scale(0.015625)"/>
       </defs>
       <use xlink:href="#DejaVuSans-34"/>
      </g>
     </g>
    </g>
    <g id="ytick_4">
     <g id="line2d_12">
      <g>
       <use xlink:href="#mbbcbb37d18" x="40.603125" y="237.721107" style="stroke: #000000; stroke-width: 0.8"/>
      </g>
     </g>
     <g id="text_13">
      <!-- 6 -->
      <g transform="translate(27.240625 241.520325) scale(0.1 -0.1)">
       <defs>
        <path id="DejaVuSans-36" d="M 2113 2584 
Q 1688 2584 1439 2293 
Q 1191 2003 1191 1497 
Q 1191 994 1439 701 
Q 1688 409 2113 409 
Q 2538 409 2786 701 
Q 3034 994 3034 1497 
Q 3034 2003 2786 2293 
Q 2538 2584 2113 2584 
z
M 3366 4563 
L 3366 3988 
Q 3128 4100 2886 4159 
Q 2644 4219 2406 4219 
Q 1781 4219 1451 3797 
Q 1122 3375 1075 2522 
Q 1259 2794 1537 2939 
Q 1816 3084 2150 3084 
Q 2853 3084 3261 2657 
Q 3669 2231 3669 1497 
Q 3669 778 3244 343 
Q 2819 -91 2113 -91 
Q 1303 -91 875 529 
Q 447 1150 447 2328 
Q 447 3434 972 4092 
Q 1497 4750 2381 4750 
Q 2619 4750 2861 4703 
Q 3103 4656 3366 4563 
z
" transform="scale(0.015625)"/>
       </defs>
       <use xlink:href="#DejaVuSans-36"/>
      </g>
     </g>
    </g>
    <g id="ytick_5">
     <g id="line2d_13">
      <g>
       <use xlink:href="#mbbcbb37d18" x="40.603125" y="198.909812" style="stroke: #000000; stroke-width: 0.8"/>
      </g>
     </g>
     <g id="text_14">
      <!-- 8 -->
      <g transform="translate(27.240625 202.709031) scale(0.1 -0.1)">
       <defs>
        <path id="DejaVuSans-38" d="M 2034 2216 
Q 1584 2216 1326 1975 
Q 1069 1734 1069 1313 
Q 1069 891 1326 650 
Q 1584 409 2034 409 
Q 2484 409 2743 651 
Q 3003 894 3003 1313 
Q 3003 1734 2745 1975 
Q 2488 2216 2034 2216 
z
M 1403 2484 
Q 997 2584 770 2862 
Q 544 3141 544 3541 
Q 544 4100 942 4425 
Q 1341 4750 2034 4750 
Q 2731 4750 3128 4425 
Q 3525 4100 3525 3541 
Q 3525 3141 3298 2862 
Q 3072 2584 2669 2484 
Q 3125 2378 3379 2068 
Q 3634 1759 3634 1313 
Q 3634 634 3220 271 
Q 2806 -91 2034 -91 
Q 1263 -91 848 271 
Q 434 634 434 1313 
Q 434 1759 690 2068 
Q 947 2378 1403 2484 
z
M 1172 3481 
Q 1172 3119 1398 2916 
Q 1625 2713 2034 2713 
Q 2441 2713 2670 2916 
Q 2900 3119 2900 3481 
Q 2900 3844 2670 4047 
Q 2441 4250 2034 4250 
Q 1625 4250 1398 4047 
Q 1172 3844 1172 3481 
z
" transform="scale(0.015625)"/>
       </defs>
       <use xlink:href="#DejaVuSans-38"/>
      </g>
     </g>
    </g>
    <g id="ytick_6">
     <g id="line2d_14">
      <g>
       <use xlink:href="#mbbcbb37d18" x="40.603125" y="160.098518" style="stroke: #000000; stroke-width: 0.8"/>
      </g>
     </g>
     <g id="text_15">
      <!-- 10 -->
      <g transform="translate(20.878125 163.897737) scale(0.1 -0.1)">
       <defs>
        <path id="DejaVuSans-31" d="M 794 531 
L 1825 531 
L 1825 4091 
L 703 3866 
L 703 4441 
L 1819 4666 
L 2450 4666 
L 2450 531 
L 3481 531 
L 3481 0 
L 794 0 
L 794 531 
z
" transform="scale(0.015625)"/>
       </defs>
       <use xlink:href="#DejaVuSans-31"/>
       <use xlink:href="#DejaVuSans-30" transform="translate(63.623047 0)"/>
      </g>
     </g>
    </g>
    <g id="ytick_7">
     <g id="line2d_15">
      <g>
       <use xlink:href="#mbbcbb37d18" x="40.603125" y="121.287224" style="stroke: #000000; stroke-width: 0.8"/>
      </g>
     </g>
     <g id="text_16">
      <!-- 12 -->
      <g transform="translate(20.878125 125.086443) scale(0.1 -0.1)">
       <use xlink:href="#DejaVuSans-31"/>
       <use xlink:href="#DejaVuSans-32" transform="translate(63.623047 0)"/>
      </g>
     </g>
    </g>
    <g id="ytick_8">
     <g id="line2d_16">
      <g>
       <use xlink:href="#mbbcbb37d18" x="40.603125" y="82.47593" style="stroke: #000000; stroke-width: 0.8"/>
      </g>
     </g>
     <g id="text_17">
      <!-- 14 -->
      <g transform="translate(20.878125 86.275149) scale(0.1 -0.1)">
       <use xlink:href="#DejaVuSans-31"/>
       <use xlink:href="#DejaVuSans-34" transform="translate(63.623047 0)"/>
      </g>
     </g>
    </g>
    <g id="ytick_9">
     <g id="line2d_17">
      <g>
       <use xlink:href="#mbbcbb37d18" x="40.603125" y="43.664636" style="stroke: #000000; stroke-width: 0.8"/>
      </g>
     </g>
     <g id="text_18">
      <!-- 16 -->
      <g transform="translate(20.878125 47.463855) scale(0.1 -0.1)">
       <use xlink:href="#DejaVuSans-31"/>
       <use xlink:href="#DejaVuSans-36" transform="translate(63.623047 0)"/>
      </g>
     </g>
    </g>
    <g id="text_19">
     <!-- Context Severity Index (CSI, neutral imputation) -->
     <g transform="translate(14.798438 319.578562) rotate(-90) scale(0.1 -0.1)">
      <defs>
       <path id="DejaVuSans-43" d="M 4122 4306 
L 4122 3641 
Q 3803 3938 3442 4084 
Q 3081 4231 2675 4231 
Q 1875 4231 1450 3742 
Q 1025 3253 1025 2328 
Q 1025 1406 1450 917 
Q 1875 428 2675 428 
Q 3081 428 3442 575 
Q 3803 722 4122 1019 
L 4122 359 
Q 3791 134 3420 21 
Q 3050 -91 2638 -91 
Q 1578 -91 968 557 
Q 359 1206 359 2328 
Q 359 3453 968 4101 
Q 1578 4750 2638 4750 
Q 3056 4750 3426 4639 
Q 3797 4528 4122 4306 
z
" transform="scale(0.015625)"/>
       <path id="DejaVuSans-53" d="M 3425 4513 
L 3425 3897 
Q 3066 4069 2747 4153 
Q 2428 4238 2131 4238 
Q 1616 4238 1336 4038 
Q 1056 3838 1056 3469 
Q 1056 3159 1242 3001 
Q 1428 2844 1947 2747 
L 2328 2669 
Q 3034 2534 3370 2195 
Q 3706 1856 3706 1288 
Q 3706 609 3251 259 
Q 2797 -91 1919 -91 
Q 1588 -91 1214 -16 
Q 841 59 441 206 
L 441 856 
Q 825 641 1194 531 
Q 1563 422 1919 422 
Q 2459 422 2753 634 
Q 3047 847 3047 1241 
Q 3047 1584 2836 1778 
Q 2625 1972 2144 2069 
L 1759 2144 
Q 1053 2284 737 2584 
Q 422 2884 422 3419 
Q 422 4038 858 4394 
Q 1294 4750 2059 4750 
Q 2388 4750 2728 4690 
Q 3069 4631 3425 4513 
z
" transform="scale(0.015625)"/>
       <path id="DejaVuSans-2c" d="M 750 794 
L 1409 794 
L 1409 256 
L 897 -744 
L 494 -744 
L 750 256 
L 750 794 
z
" transform="scale(0.015625)"/>
      </defs>
      <use xlink:href="#DejaVuSans-43"/>
      <use xlink:href="#DejaVuSans-6f" transform="translate(69.824219 0)"/>
      <use xlink:href="#DejaVuSans-6e" transform="translate(131.005859 0)"/>
      <use xlink:href="#DejaVuSans-74" transform="translate(194.384766 0)"/>
      <use xlink:href="#DejaVuSans-65" transform="translate(233.59375 0)"/>
      <use xlink:href="#DejaVuSans-78" transform="translate(293.367188 0)"/>
      <use xlink:href="#DejaVuSans-74" transform="translate(352.546875 0)"/>
      <use xlink:href="#DejaVuSans-20" transform="translate(391.755859 0)"/>
      <use xlink:href="#DejaVuSans-53" transform="translate(423.542969 0)"/>
      <use xlink:href="#DejaVuSans-65" transform="translate(487.019531 0)"/>
      <use xlink:href="#DejaVuSans-76" transform="translate(548.542969 0)"/>
      <use xlink:href="#DejaVuSans-65" transform="translate(607.722656 0)"/>
      <use xlink:href="#DejaVuSans-72" transform="translate(669.246094 0)"/>
      <use xlink:href="#DejaVuSans-69" transform="translate(710.359375 0)"/>
      <use xlink:href="#DejaVuSans-74" transform="translate(738.142578 0)"/>
      <use xlink:href="#DejaVuSans-79" transform="translate(777.351562 0)"/>
      <use xlink:href="#DejaVuSans-20" transform="translate(836.53125 0)"/>
      <use xlink:href="#DejaVuSans-49" transform="translate(868.318359 0)"/>
      <use xlink:href="#DejaVuSans-6e" transform="translate(897.810547 0)"/>
      <use xlink:href="#DejaVuSans-64" transform="translate(961.189453 0)"/>
      <use xlink:href="#DejaVuSans-65" transform="translate(1024.666016 0)"/>
      <use xlink:href="#DejaVuSans-78" transform="translate(1084.439453 0)"/>
      <use xlink:href="#DejaVuSans-20" transform="translate(1143.619141 0)"/>
      <use xlink:href="#DejaVuSans-28" transform="translate(1175.40625 0)"/>
      <use xlink:href="#DejaVuSans-43" transform="translate(1214.419922 0)"/>
      <use xlink:href="#DejaVuSans-53" transform="translate(1284.244141 0)"/>
      <use xlink:href="#DejaVuSans-49" transform="translate(1347.720703 0)"/>
      <use xlink:href="#DejaVuSans-2c" transform="translate(1377.212891 0)"/>
      <use xlink:href="#DejaVuSans-20" transform="translate(1409 0)"/>
      <use xlink:href="#DejaVuSans-6e" transform="translate(1440.787109 0)"/>
      <use xlink:href="#DejaVuSans-65" transform="translate(1504.166016 0)"/>
      <use xlink:href="#DejaVuSans-75" transform="translate(1565.689453 0)"/>
      <use xlink:href="#DejaVuSans-74" transform="translate(1629.068359 0)"/>
      <use xlink:href="#DejaVuSans-72" transform="translate(1668.277344 0)"/>
      <use xlink:href="#DejaVuSans-61" transform="translate(1709.390625 0)"/>
      <use xlink:href="#DejaVuSans-6c" transform="translate(1770.669922 0)"/>
      <use xlink:href="#DejaVuSans-20" transform="translate(1798.453125 0)"/>
      <use xlink:href="#DejaVuSans-69" transform="translate(1830.240234 0)"/>
      <use xlink:href="#DejaVuSans-6d" transform="translate(1858.023438 0)"/>
      <use xlink:href="#DejaVuSans-70" transform="translate(1955.435547 0)"/>
      <use xlink:href="#DejaVuSans-75" transform="translate(2018.912109 0)"/>
      <use xlink:href="#DejaVuSans-74" transform="translate(2082.291016 0)"/>
      <use xlink:href="#DejaVuSans-61" transform="translate(2121.5 0)"/>
      <use xlink:href="#DejaVuSans-74" transform="translate(2182.779297 0)"/>
      <use xlink:href="#DejaVuSans-69" transform="translate(2221.988281 0)"/>
      <use xlink:href="#DejaVuSans-6f" transform="translate(2249.771484 0)"/>
      <use xlink:href="#DejaVuSans-6e" transform="translate(2310.953125 0)"/>
      <use xlink:href="#DejaVuSans-29" transform="translate(2374.332031 0)"/>
     </g>
    </g>
   </g>
   <g id="patch_3">
    <path d="M 60.47 179.504165 
L 100.20375 179.504165 
L 100.20375 101.881577 
L 60.47 101.881577 
L 60.47 179.504165 
z
" clip-path="url(#pa45b4cf379)" style="fill: #bbdefb; stroke: #1565c0; stroke-linejoin: miter"/>
   </g>
   <g id="line2d_18">
    <path d="M 80.336875 179.504165 
L 80.336875 179.504165 
" clip-path="url(#pa45b4cf379)" style="fill: none; stroke: #1565c0; stroke-linecap: square"/>
   </g>
   <g id="line2d_19">
    <path d="M 80.336875 101.881577 
L 80.336875 43.664636 
" clip-path="url(#pa45b4cf379)" style="fill: none; stroke: #1565c0; stroke-linecap: square"/>
   </g>
   <g id="line2d_20">
    <path d="M 70.403438 179.504165 
L 90.270313 179.504165 
" clip-path="url(#pa45b4cf379)" style="fill: none; stroke: #1565c0; stroke-linecap: square"/>
   </g>
   <g id="line2d_21">
    <path d="M 70.403438 43.664636 
L 90.270313 43.664636 
" clip-path="url(#pa45b4cf379)" style="fill: none; stroke: #1565c0; stroke-linecap: square"/>
   </g>
   <g id="line2d_22"/>
   <g id="patch_4">
    <path d="M 139.9375 140.692871 
L 179.67125 140.692871 
L 179.67125 101.881577 
L 139.9375 101.881577 
L 139.9375 140.692871 
z
" clip-path="url(#pa45b4cf379)" style="fill: #bbdefb; stroke: #1565c0; stroke-linejoin: miter"/>
   </g>
   <g id="line2d_23">
    <path d="M 159.804375 140.692871 
L 159.804375 160.098518 
" clip-path="url(#pa45b4cf379)" style="fill: none; stroke: #1565c0; stroke-linecap: square"/>
   </g>
   <g id="line2d_24">
    <path d="M 159.804375 101.881577 
L 159.804375 82.47593 
" clip-path="url(#pa45b4cf379)" style="fill: none; stroke: #1565c0; stroke-linecap: square"/>
   </g>
   <g id="line2d_25">
    <path d="M 149.870938 160.098518 
L 169.737813 160.098518 
" clip-path="url(#pa45b4cf379)" style="fill: none; stroke: #1565c0; stroke-linecap: square"/>
   </g>
   <g id="line2d_26">
    <path d="M 149.870938 82.47593 
L 169.737813 82.47593 
" clip-path="url(#pa45b4cf379)" style="fill: none; stroke: #1565c0; stroke-linecap: square"/>
   </g>
   <g id="line2d_27"/>
   <g id="patch_5">
    <path d="M 219.405 140.692871 
L 259.13875 140.692871 
L 259.13875 101.881577 
L 219.405 101.881577 
L 219.405 140.692871 
z
" clip-path="url(#pa45b4cf379)" style="fill: #bbdefb; stroke: #1565c0; stroke-linejoin: miter"/>
   </g>
   <g id="line2d_28">
    <path d="M 239.271875 140.692871 
L 239.271875 179.504165 
" clip-path="url(#pa45b4cf379)" style="fill: none; stroke: #1565c0; stroke-linecap: square"/>
   </g>
   <g id="line2d_29">
    <path d="M 239.271875 101.881577 
L 239.271875 101.881577 
" clip-path="url(#pa45b4cf379)" style="fill: none; stroke: #1565c0; stroke-linecap: square"/>
   </g>
   <g id="line2d_30">
    <path d="M 229.338438 179.504165 
L 249.205313 179.504165 
" clip-path="url(#pa45b4cf379)" style="fill: none; stroke: #1565c0; stroke-linecap: square"/>
   </g>
   <g id="line2d_31">
    <path d="M 229.338438 101.881577 
L 249.205313 101.881577 
" clip-path="url(#pa45b4cf379)" style="fill: none; stroke: #1565c0; stroke-linecap: square"/>
   </g>
   <g id="line2d_32"/>
   <g id="patch_6">
    <path d="M 298.8725 92.178754 
L 338.60625 92.178754 
L 338.60625 63.070283 
L 298.8725 63.070283 
L 298.8725 92.178754 
z
" clip-path="url(#pa45b4cf379)" style="fill: #bbdefb; stroke: #1565c0; stroke-linejoin: miter"/>
   </g>
   <g id="line2d_33">
    <path d="M 318.739375 92.178754 
L 318.739375 101.881577 
" clip-path="url(#pa45b4cf379)" style="fill: none; stroke: #1565c0; stroke-linecap: square"/>
   </g>
   <g id="line2d_34">
    <path d="M 318.739375 63.070283 
L 318.739375 43.664636 
" clip-path="url(#pa45b4cf379)" style="fill: none; stroke: #1565c0; stroke-linecap: square"/>
   </g>
   <g id="line2d_35">
    <path d="M 308.805938 101.881577 
L 328.672813 101.881577 
" clip-path="url(#pa45b4cf379)" style="fill: none; stroke: #1565c0; stroke-linecap: square"/>
   </g>
   <g id="line2d_36">
    <path d="M 308.805938 43.664636 
L 328.672813 43.664636 
" clip-path="url(#pa45b4cf379)" style="fill: none; stroke: #1565c0; stroke-linecap: square"/>
   </g>
   <g id="line2d_37">
    <defs>
     <path id="m2761953b23" d="M 0 2 
C 0.530406 2 1.03916 1.789267 1.414214 1.414214 
C 1.789267 1.03916 2 0.530406 2 0 
C 2 -0.530406 1.789267 -1.03916 1.414214 -1.414214 
C 1.03916 -1.789267 0.530406 -2 0 -2 
C -0.530406 -2 -1.03916 -1.789267 -1.414214 -1.414214 
C -1.789267 -1.03916 -2 -0.530406 -2 0 
C -2 0.530406 -1.789267 1.03916 -1.414214 1.414214 
C -1.03916 1.789267 -0.530406 2 0 2 
z
" style="stroke: #000000; stroke-opacity: 0.5"/>
    </defs>
    <g clip-path="url(#pa45b4cf379)">
     <use xlink:href="#m2761953b23" x="318.739375" y="160.098518" style="fill-opacity: 0; stroke: #000000; stroke-opacity: 0.5"/>
    </g>
   </g>
   <g id="patch_7">
    <path d="M 378.34 198.909812 
L 418.07375 198.909812 
L 418.07375 198.909812 
L 378.34 198.909812 
L 378.34 198.909812 
z
" clip-path="url(#pa45b4cf379)" style="fill: #bbdefb; stroke: #1565c0; stroke-linejoin: miter"/>
   </g>
   <g id="line2d_38">
    <path d="M 398.206875 198.909812 
L 398.206875 198.909812 
" clip-path="url(#pa45b4cf379)" style="fill: none; stroke: #1565c0; stroke-linecap: square"/>
   </g>
   <g id="line2d_39">
    <path d="M 398.206875 198.909812 
L 398.206875 198.909812 
" clip-path="url(#pa45b4cf379)" style="fill: none; stroke: #1565c0; stroke-linecap: square"/>
   </g>
   <g id="line2d_40">
    <path d="M 388.273438 198.909812 
L 408.140313 198.909812 
" clip-path="url(#pa45b4cf379)" style="fill: none; stroke: #1565c0; stroke-linecap: square"/>
   </g>
   <g id="line2d_41">
    <path d="M 388.273438 198.909812 
L 408.140313 198.909812 
" clip-path="url(#pa45b4cf379)" style="fill: none; stroke: #1565c0; stroke-linecap: square"/>
   </g>
   <g id="line2d_42"/>
   <g id="patch_8">
    <path d="M 457.8075 140.692871 
L 497.54125 140.692871 
L 497.54125 101.881577 
L 457.8075 101.881577 
L 457.8075 140.692871 
z
" clip-path="url(#pa45b4cf379)" style="fill: #bbdefb; stroke: #1565c0; stroke-linejoin: miter"/>
   </g>
   <g id="line2d_43">
    <path d="M 477.674375 140.692871 
L 477.674375 140.692871 
" clip-path="url(#pa45b4cf379)" style="fill: none; stroke: #1565c0; stroke-linecap: square"/>
   </g>
   <g id="line2d_44">
    <path d="M 477.674375 101.881577 
L 477.674375 82.47593 
" clip-path="url(#pa45b4cf379)" style="fill: none; stroke: #1565c0; stroke-linecap: square"/>
   </g>
   <g id="line2d_45">
    <path d="M 467.740938 140.692871 
L 487.607813 140.692871 
" clip-path="url(#pa45b4cf379)" style="fill: none; stroke: #1565c0; stroke-linecap: square"/>
   </g>
   <g id="line2d_46">
    <path d="M 467.740938 82.47593 
L 487.607813 82.47593 
" clip-path="url(#pa45b4cf379)" style="fill: none; stroke: #1565c0; stroke-linecap: square"/>
   </g>
   <g id="line2d_47"/>
   <g id="patch_9">
    <path d="M 537.275 130.990048 
L 577.00875 130.990048 
L 577.00875 82.47593 
L 537.275 82.47593 
L 537.275 130.990048 
z
" clip-path="url(#pa45b4cf379)" style="fill: #bbdefb; stroke: #1565c0; stroke-linejoin: miter"/>
   </g>
   <g id="line2d_48">
    <path d="M 557.141875 130.990048 
L 557.141875 140.692871 
" clip-path="url(#pa45b4cf379)" style="fill: none; stroke: #1565c0; stroke-linecap: square"/>
   </g>
   <g id="line2d_49">
    <path d="M 557.141875 82.47593 
L 557.141875 43.664636 
" clip-path="url(#pa45b4cf379)" style="fill: none; stroke: #1565c0; stroke-linecap: square"/>
   </g>
   <g id="line2d_50">
    <path d="M 547.208437 140.692871 
L 567.075313 140.692871 
" clip-path="url(#pa45b4cf379)" style="fill: none; stroke: #1565c0; stroke-linecap: square"/>
   </g>
   <g id="line2d_51">
    <path d="M 547.208437 43.664636 
L 567.075313 43.664636 
" clip-path="url(#pa45b4cf379)" style="fill: none; stroke: #1565c0; stroke-linecap: square"/>
   </g>
   <g id="line2d_52"/>
   <g id="patch_10">
    <path d="M 616.7425 208.612636 
L 656.47625 208.612636 
L 656.47625 130.990048 
L 616.7425 130.990048 
L 616.7425 208.612636 
z
" clip-path="url(#pa45b4cf379)" style="fill: #bbdefb; stroke: #1565c0; stroke-linejoin: miter"/>
   </g>
   <g id="line2d_53">
    <path d="M 636.609375 208.612636 
L 636.609375 218.31546 
" clip-path="url(#pa45b4cf379)" style="fill: none; stroke: #1565c0; stroke-linecap: square"/>
   </g>
   <g id="line2d_54">
    <path d="M 636.609375 130.990048 
L 636.609375 121.287224 
" clip-path="url(#pa45b4cf379)" style="fill: none; stroke: #1565c0; stroke-linecap: square"/>
   </g>
   <g id="line2d_55">
    <path d="M 626.675937 218.31546 
L 646.542813 218.31546 
" clip-path="url(#pa45b4cf379)" style="fill: none; stroke: #1565c0; stroke-linecap: square"/>
   </g>
   <g id="line2d_56">
    <path d="M 626.675937 121.287224 
L 646.542813 121.287224 
" clip-path="url(#pa45b4cf379)" style="fill: none; stroke: #1565c0; stroke-linecap: square"/>
   </g>
   <g id="line2d_57"/>
   <g id="line2d_58">
    <path d="M 60.47 121.287224 
L 100.20375 121.287224 
" clip-path="url(#pa45b4cf379)" style="fill: none; stroke: #b71c1c; stroke-width: 2"/>
   </g>
   <g id="line2d_59">
    <path d="M 139.9375 121.287224 
L 179.67125 121.287224 
" clip-path="url(#pa45b4cf379)" style="fill: none; stroke: #b71c1c; stroke-width: 2"/>
   </g>
   <g id="line2d_60">
    <path d="M 219.405 101.881577 
L 259.13875 101.881577 
" clip-path="url(#pa45b4cf379)" style="fill: none; stroke: #b71c1c; stroke-width: 2"/>
   </g>
   <g id="line2d_61">
    <path d="M 298.8725 82.47593 
L 338.60625 82.47593 
" clip-path="url(#pa45b4cf379)" style="fill: none; stroke: #b71c1c; stroke-width: 2"/>
   </g>
   <g id="line2d_62">
    <path d="M 378.34 198.909812 
L 418.07375 198.909812 
" clip-path="url(#pa45b4cf379)" style="fill: none; stroke: #b71c1c; stroke-width: 2"/>
   </g>
   <g id="line2d_63">
    <path d="M 457.8075 140.692871 
L 497.54125 140.692871 
" clip-path="url(#pa45b4cf379)" style="fill: none; stroke: #b71c1c; stroke-width: 2"/>
   </g>
   <g id="line2d_64">
    <path d="M 537.275 121.287224 
L 577.00875 121.287224 
" clip-path="url(#pa45b4cf379)" style="fill: none; stroke: #b71c1c; stroke-width: 2"/>
   </g>
   <g id="line2d_65">
    <path d="M 616.7425 160.098518 
L 656.47625 160.098518 
" clip-path="url(#pa45b4cf379)" style="fill: none; stroke: #b71c1c; stroke-width: 2"/>
   </g>
   <g id="patch_11">
    <path d="M 40.603125 363.857812 
L 40.603125 33.961812 
" style="fill: none; stroke: #000000; stroke-width: 0.8; stroke-linejoin: miter; stroke-linecap: square"/>
   </g>
   <g id="patch_12">
    <path d="M 40.603125 363.857812 
L 676.343125 363.857812 
" style="fill: none; stroke: #000000; stroke-width: 0.8; stroke-linejoin: miter; stroke-linecap: square"/>
   </g>
   <g id="PathCollection_1">
    <defs>
     <path id="m38691f824a" d="M 0 2.5 
C 0.663008 2.5 1.29895 2.236584 1.767767 1.767767 
C 2.236584 1.29895 2.5 0.663008 2.5 0 
C 2.5 -0.663008 2.236584 -1.29895 1.767767 -1.767767 
C 1.29895 -2.236584 0.663008 -2.5 0 -2.5 
C -0.663008 -2.5 -1.29895 -2.236584 -1.767767 -1.767767 
C -2.236584 -1.29895 -2.5 -0.663008 -2.5 0 
C -2.5 0.663008 -2.236584 1.29895 -1.767767 1.767767 
C -1.29895 2.236584 -0.663008 2.5 0 2.5 
z
" style="stroke: #f57c00; stroke-opacity: 0.6"/>
    </defs>
    <g clip-path="url(#pa45b4cf379)">
     <use xlink:href="#m38691f824a" x="88.174292" y="121.287224" style="fill: #f57c00; fill-opacity: 0.6; stroke: #f57c00; stroke-opacity: 0.6"/>
     <use xlink:href="#m38691f824a" x="78.588291" y="101.881577" style="fill: #f57c00; fill-opacity: 0.6; stroke: #f57c00; stroke-opacity: 0.6"/>
     <use xlink:href="#m38691f824a" x="90.595752" y="179.504165" style="fill: #f57c00; fill-opacity: 0.6; stroke: #f57c00; stroke-opacity: 0.6"/>
     <use xlink:href="#m38691f824a" x="85.983239" y="43.664636" style="fill: #f57c00; fill-opacity: 0.6; stroke: #f57c00; stroke-opacity: 0.6"/>
     <use xlink:href="#m38691f824a" x="68.726979" y="179.504165" style="fill: #f57c00; fill-opacity: 0.6; stroke: #f57c00; stroke-opacity: 0.6"/>
    </g>
   </g>
   <g id="PathCollection_2">
    <g clip-path="url(#pa45b4cf379)">
     <use xlink:href="#m38691f824a" x="173.411122" y="82.47593" style="fill: #f57c00; fill-opacity: 0.6; stroke: #f57c00; stroke-opacity: 0.6"/>
     <use xlink:href="#m38691f824a" x="167.275138" y="160.098518" style="fill: #f57c00; fill-opacity: 0.6; stroke: #f57c00; stroke-opacity: 0.6"/>
    </g>
   </g>
   <g id="PathCollection_3">
    <g clip-path="url(#pa45b4cf379)">
     <use xlink:href="#m38691f824a" x="247.455688" y="121.287224" style="fill: #f57c00; fill-opacity: 0.6; stroke: #f57c00; stroke-opacity: 0.6"/>
     <use xlink:href="#m38691f824a" x="228.632838" y="101.881577" style="fill: #f57c00; fill-opacity: 0.6; stroke: #f57c00; stroke-opacity: 0.6"/>
     <use xlink:href="#m38691f824a" x="237.852501" y="101.881577" style="fill: #f57c00; fill-opacity: 0.6; stroke: #f57c00; stroke-opacity: 0.6"/>
     <use xlink:href="#m38691f824a" x="235.575626" y="101.881577" style="fill: #f57c00; fill-opacity: 0.6; stroke: #f57c00; stroke-opacity: 0.6"/>
     <use xlink:href="#m38691f824a" x="251.480896" y="179.504165" style="fill: #f57c00; fill-opacity: 0.6; stroke: #f57c00; stroke-opacity: 0.6"/>
     <use xlink:href="#m38691f824a" x="243.387612" y="140.692871" style="fill: #f57c00; fill-opacity: 0.6; stroke: #f57c00; stroke-opacity: 0.6"/>
     <use xlink:href="#m38691f824a" x="248.505536" y="140.692871" style="fill: #f57c00; fill-opacity: 0.6; stroke: #f57c00; stroke-opacity: 0.6"/>
     <use xlink:href="#m38691f824a" x="237.653051" y="101.881577" style="fill: #f57c00; fill-opacity: 0.6; stroke: #f57c00; stroke-opacity: 0.6"/>
     <use xlink:href="#m38691f824a" x="231.468639" y="101.881577" style="fill: #f57c00; fill-opacity: 0.6; stroke: #f57c00; stroke-opacity: 0.6"/>
    </g>
   </g>
   <g id="PathCollection_4">
    <g clip-path="url(#pa45b4cf379)">
     <use xlink:href="#m38691f824a" x="320.300953" y="43.664636" style="fill: #f57c00; fill-opacity: 0.6; stroke: #f57c00; stroke-opacity: 0.6"/>
     <use xlink:href="#m38691f824a" x="306.260928" y="43.664636" style="fill: #f57c00; fill-opacity: 0.6; stroke: #f57c00; stroke-opacity: 0.6"/>
     <use xlink:href="#m38691f824a" x="328.112346" y="160.098518" style="fill: #f57c00; fill-opacity: 0.6; stroke: #f57c00; stroke-opacity: 0.6"/>
     <use xlink:href="#m38691f824a" x="322.50607" y="43.664636" style="fill: #f57c00; fill-opacity: 0.6; stroke: #f57c00; stroke-opacity: 0.6"/>
     <use xlink:href="#m38691f824a" x="326.122826" y="82.47593" style="fill: #f57c00; fill-opacity: 0.6; stroke: #f57c00; stroke-opacity: 0.6"/>
     <use xlink:href="#m38691f824a" x="314.57761" y="82.47593" style="fill: #f57c00; fill-opacity: 0.6; stroke: #f57c00; stroke-opacity: 0.6"/>
     <use xlink:href="#m38691f824a" x="332.205245" y="101.881577" style="fill: #f57c00; fill-opacity: 0.6; stroke: #f57c00; stroke-opacity: 0.6"/>
     <use xlink:href="#m38691f824a" x="329.985902" y="82.47593" style="fill: #f57c00; fill-opacity: 0.6; stroke: #f57c00; stroke-opacity: 0.6"/>
     <use xlink:href="#m38691f824a" x="326.703454" y="82.47593" style="fill: #f57c00; fill-opacity: 0.6; stroke: #f57c00; stroke-opacity: 0.6"/>
     <use xlink:href="#m38691f824a" x="310.003508" y="101.881577" style="fill: #f57c00; fill-opacity: 0.6; stroke: #f57c00; stroke-opacity: 0.6"/>
     <use xlink:href="#m38691f824a" x="317.787319" y="82.47593" style="fill: #f57c00; fill-opacity: 0.6; stroke: #f57c00; stroke-opacity: 0.6"/>
    </g>
   </g>
   <g id="PathCollection_5">
    <g clip-path="url(#pa45b4cf379)">
     <use xlink:href="#m38691f824a" x="385.155876" y="198.909812" style="fill: #f57c00; fill-opacity: 0.6; stroke: #f57c00; stroke-opacity: 0.6"/>
    </g>
   </g>
   <g id="PathCollection_6">
    <g clip-path="url(#pa45b4cf379)">
     <use xlink:href="#m38691f824a" x="467.784185" y="82.47593" style="fill: #f57c00; fill-opacity: 0.6; stroke: #f57c00; stroke-opacity: 0.6"/>
     <use xlink:href="#m38691f824a" x="482.911094" y="121.287224" style="fill: #f57c00; fill-opacity: 0.6; stroke: #f57c00; stroke-opacity: 0.6"/>
     <use xlink:href="#m38691f824a" x="484.676604" y="140.692871" style="fill: #f57c00; fill-opacity: 0.6; stroke: #f57c00; stroke-opacity: 0.6"/>
     <use xlink:href="#m38691f824a" x="491.049034" y="140.692871" style="fill: #f57c00; fill-opacity: 0.6; stroke: #f57c00; stroke-opacity: 0.6"/>
     <use xlink:href="#m38691f824a" x="472.691535" y="140.692871" style="fill: #f57c00; fill-opacity: 0.6; stroke: #f57c00; stroke-opacity: 0.6"/>
     <use xlink:href="#m38691f824a" x="473.968447" y="140.692871" style="fill: #f57c00; fill-opacity: 0.6; stroke: #f57c00; stroke-opacity: 0.6"/>
     <use xlink:href="#m38691f824a" x="476.803419" y="82.47593" style="fill: #f57c00; fill-opacity: 0.6; stroke: #f57c00; stroke-opacity: 0.6"/>
    </g>
   </g>
   <g id="PathCollection_7">
    <g clip-path="url(#pa45b4cf379)">
     <use xlink:href="#m38691f824a" x="548.258178" y="43.664636" style="fill: #f57c00; fill-opacity: 0.6; stroke: #f57c00; stroke-opacity: 0.6"/>
     <use xlink:href="#m38691f824a" x="546.554558" y="140.692871" style="fill: #f57c00; fill-opacity: 0.6; stroke: #f57c00; stroke-opacity: 0.6"/>
     <use xlink:href="#m38691f824a" x="556.446834" y="121.287224" style="fill: #f57c00; fill-opacity: 0.6; stroke: #f57c00; stroke-opacity: 0.6"/>
    </g>
   </g>
   <g id="PathCollection_8">
    <g clip-path="url(#pa45b4cf379)">
     <use xlink:href="#m38691f824a" x="628.796716" y="160.098518" style="fill: #f57c00; fill-opacity: 0.6; stroke: #f57c00; stroke-opacity: 0.6"/>
     <use xlink:href="#m38691f824a" x="641.467465" y="121.287224" style="fill: #f57c00; fill-opacity: 0.6; stroke: #f57c00; stroke-opacity: 0.6"/>
     <use xlink:href="#m38691f824a" x="634.811398" y="218.31546" style="fill: #f57c00; fill-opacity: 0.6; stroke: #f57c00; stroke-opacity: 0.6"/>
     <use xlink:href="#m38691f824a" x="646.126733" y="218.31546" style="fill: #f57c00; fill-opacity: 0.6; stroke: #f57c00; stroke-opacity: 0.6"/>
     <use xlink:href="#m38691f824a" x="642.338619" y="121.287224" style="fill: #f57c00; fill-opacity: 0.6; stroke: #f57c00; stroke-opacity: 0.6"/>
     <use xlink:href="#m38691f824a" x="631.241504" y="140.692871" style="fill: #f57c00; fill-opacity: 0.6; stroke: #f57c00; stroke-opacity: 0.6"/>
     <use xlink:href="#m38691f824a" x="646.114763" y="198.909812" style="fill: #f57c00; fill-opacity: 0.6; stroke: #f57c00; stroke-opacity: 0.6"/>
    </g>
   </g>
   <g id="text_20">
    <!-- Context Severity Index by Annex III Analytical Area -->
    <g transform="translate(199.646016 15.558281) scale(0.11 -0.11)">
     <defs>
      <path id="DejaVuSans-Bold-43" d="M 4288 256 
Q 3956 84 3597 -3 
Q 3238 -91 2847 -91 
Q 1681 -91 1000 561 
Q 319 1213 319 2328 
Q 319 3447 1000 4098 
Q 1681 4750 2847 4750 
Q 3238 4750 3597 4662 
Q 3956 4575 4288 4403 
L 4288 3438 
Q 3953 3666 3628 3772 
Q 3303 3878 2944 3878 
Q 2300 3878 1931 3465 
Q 1563 3053 1563 2328 
Q 1563 1606 1931 1193 
Q 2300 781 2944 781 
Q 3303 781 3628 887 
Q 3953 994 4288 1222 
L 4288 256 
z
" transform="scale(0.015625)"/>
      <path id="DejaVuSans-Bold-6f" d="M 2203 2784 
Q 1831 2784 1636 2517 
Q 1441 2250 1441 1747 
Q 1441 1244 1636 976 
Q 1831 709 2203 709 
Q 2569 709 2762 976 
Q 2956 1244 2956 1747 
Q 2956 2250 2762 2517 
Q 2569 2784 2203 2784 
z
M 2203 3584 
Q 3106 3584 3614 3096 
Q 4122 2609 4122 1747 
Q 4122 884 3614 396 
Q 3106 -91 2203 -91 
Q 1297 -91 786 396 
Q 275 884 275 1747 
Q 275 2609 786 3096 
Q 1297 3584 2203 3584 
z
" transform="scale(0.015625)"/>
      <path id="DejaVuSans-Bold-6e" d="M 4056 2131 
L 4056 0 
L 2931 0 
L 2931 347 
L 2931 1631 
Q 2931 2084 2911 2256 
Q 2891 2428 2841 2509 
Q 2775 2619 2662 2680 
Q 2550 2741 2406 2741 
Q 2056 2741 1856 2470 
Q 1656 2200 1656 1722 
L 1656 0 
L 538 0 
L 538 3500 
L 1656 3500 
L 1656 2988 
Q 1909 3294 2193 3439 
Q 2478 3584 2822 3584 
Q 3428 3584 3742 3212 
Q 4056 2841 4056 2131 
z
" transform="scale(0.015625)"/>
      <path id="DejaVuSans-Bold-74" d="M 1759 4494 
L 1759 3500 
L 2913 3500 
L 2913 2700 
L 1759 2700 
L 1759 1216 
Q 1759 972 1856 886 
Q 1953 800 2241 800 
L 2816 800 
L 2816 0 
L 1856 0 
Q 1194 0 917 276 
Q 641 553 641 1216 
L 641 2700 
L 84 2700 
L 84 3500 
L 641 3500 
L 641 4494 
L 1759 4494 
z
" transform="scale(0.015625)"/>
      <path id="DejaVuSans-Bold-65" d="M 4031 1759 
L 4031 1441 
L 1416 1441 
Q 1456 1047 1700 850 
Q 1944 653 2381 653 
Q 2734 653 3104 758 
Q 3475 863 3866 1075 
L 3866 213 
Q 3469 63 3072 -14 
Q 2675 -91 2278 -91 
Q 1328 -91 801 392 
Q 275 875 275 1747 
Q 275 2603 792 3093 
Q 1309 3584 2216 3584 
Q 3041 3584 3536 3087 
Q 4031 2591 4031 1759 
z
M 2881 2131 
Q 2881 2450 2695 2645 
Q 2509 2841 2209 2841 
Q 1884 2841 1681 2658 
Q 1478 2475 1428 2131 
L 2881 2131 
z
" transform="scale(0.015625)"/>
      <path id="DejaVuSans-Bold-78" d="M 1422 1791 
L 159 3500 
L 1344 3500 
L 2059 2463 
L 2784 3500 
L 3969 3500 
L 2706 1797 
L 4031 0 
L 2847 0 
L 2059 1106 
L 1281 0 
L 97 0 
L 1422 1791 
z
" transform="scale(0.015625)"/>
      <path id="DejaVuSans-Bold-20" transform="scale(0.015625)"/>
      <path id="DejaVuSans-Bold-53" d="M 3834 4519 
L 3834 3531 
Q 3450 3703 3084 3790 
Q 2719 3878 2394 3878 
Q 1963 3878 1756 3759 
Q 1550 3641 1550 3391 
Q 1550 3203 1689 3098 
Q 1828 2994 2194 2919 
L 2706 2816 
Q 3484 2659 3812 2340 
Q 4141 2022 4141 1434 
Q 4141 663 3683 286 
Q 3225 -91 2284 -91 
Q 1841 -91 1394 -6 
Q 947 78 500 244 
L 500 1259 
Q 947 1022 1364 901 
Q 1781 781 2169 781 
Q 2563 781 2772 912 
Q 2981 1044 2981 1288 
Q 2981 1506 2839 1625 
Q 2697 1744 2272 1838 
L 1806 1941 
Q 1106 2091 782 2419 
Q 459 2747 459 3303 
Q 459 4000 909 4375 
Q 1359 4750 2203 4750 
Q 2588 4750 2994 4692 
Q 3400 4634 3834 4519 
z
" transform="scale(0.015625)"/>
      <path id="DejaVuSans-Bold-76" d="M 97 3500 
L 1216 3500 
L 2088 1081 
L 2956 3500 
L 4078 3500 
L 2700 0 
L 1472 0 
L 97 3500 
z
" transform="scale(0.015625)"/>
      <path id="DejaVuSans-Bold-72" d="M 3138 2547 
Q 2991 2616 2845 2648 
Q 2700 2681 2553 2681 
Q 2122 2681 1889 2404 
Q 1656 2128 1656 1613 
L 1656 0 
L 538 0 
L 538 3500 
L 1656 3500 
L 1656 2925 
Q 1872 3269 2151 3426 
Q 2431 3584 2822 3584 
Q 2878 3584 2943 3579 
Q 3009 3575 3134 3559 
L 3138 2547 
z
" transform="scale(0.015625)"/>
      <path id="DejaVuSans-Bold-69" d="M 538 3500 
L 1656 3500 
L 1656 0 
L 538 0 
L 538 3500 
z
M 538 4863 
L 1656 4863 
L 1656 3950 
L 538 3950 
L 538 4863 
z
" transform="scale(0.015625)"/>
      <path id="DejaVuSans-Bold-79" d="M 78 3500 
L 1197 3500 
L 2138 1125 
L 2938 3500 
L 4056 3500 
L 2584 -331 
Q 2363 -916 2067 -1148 
Q 1772 -1381 1288 -1381 
L 641 -1381 
L 641 -647 
L 991 -647 
Q 1275 -647 1404 -556 
Q 1534 -466 1606 -231 
L 1638 -134 
L 78 3500 
z
" transform="scale(0.015625)"/>
      <path id="DejaVuSans-Bold-49" d="M 588 4666 
L 1791 4666 
L 1791 0 
L 588 0 
L 588 4666 
z
" transform="scale(0.015625)"/>
      <path id="DejaVuSans-Bold-64" d="M 2919 2988 
L 2919 4863 
L 4044 4863 
L 4044 0 
L 2919 0 
L 2919 506 
Q 2688 197 2409 53 
Q 2131 -91 1766 -91 
Q 1119 -91 703 423 
Q 288 938 288 1747 
Q 288 2556 703 3070 
Q 1119 3584 1766 3584 
Q 2128 3584 2408 3439 
Q 2688 3294 2919 2988 
z
M 2181 722 
Q 2541 722 2730 984 
Q 2919 1247 2919 1747 
Q 2919 2247 2730 2509 
Q 2541 2772 2181 2772 
Q 1825 2772 1636 2509 
Q 1447 2247 1447 1747 
Q 1447 1247 1636 984 
Q 1825 722 2181 722 
z
" transform="scale(0.015625)"/>
      <path id="DejaVuSans-Bold-62" d="M 2400 722 
Q 2759 722 2948 984 
Q 3138 1247 3138 1747 
Q 3138 2247 2948 2509 
Q 2759 2772 2400 2772 
Q 2041 2772 1848 2508 
Q 1656 2244 1656 1747 
Q 1656 1250 1848 986 
Q 2041 722 2400 722 
z
M 1656 2988 
Q 1888 3294 2169 3439 
Q 2450 3584 2816 3584 
Q 3463 3584 3878 3070 
Q 4294 2556 4294 1747 
Q 4294 938 3878 423 
Q 3463 -91 2816 -91 
Q 2450 -91 2169 54 
Q 1888 200 1656 506 
L 1656 0 
L 538 0 
L 538 4863 
L 1656 4863 
L 1656 2988 
z
" transform="scale(0.015625)"/>
      <path id="DejaVuSans-Bold-41" d="M 3419 850 
L 1538 850 
L 1241 0 
L 31 0 
L 1759 4666 
L 3194 4666 
L 4922 0 
L 3713 0 
L 3419 850 
z
M 1838 1716 
L 3116 1716 
L 2478 3572 
L 1838 1716 
z
" transform="scale(0.015625)"/>
      <path id="DejaVuSans-Bold-61" d="M 2106 1575 
Q 1756 1575 1579 1456 
Q 1403 1338 1403 1106 
Q 1403 894 1545 773 
Q 1688 653 1941 653 
Q 2256 653 2472 879 
Q 2688 1106 2688 1447 
L 2688 1575 
L 2106 1575 
z
M 3816 1997 
L 3816 0 
L 2688 0 
L 2688 519 
Q 2463 200 2181 54 
Q 1900 -91 1497 -91 
Q 953 -91 614 226 
Q 275 544 275 1050 
Q 275 1666 698 1953 
Q 1122 2241 2028 2241 
L 2688 2241 
L 2688 2328 
Q 2688 2594 2478 2717 
Q 2269 2841 1825 2841 
Q 1466 2841 1156 2769 
Q 847 2697 581 2553 
L 581 3406 
Q 941 3494 1303 3539 
Q 1666 3584 2028 3584 
Q 2975 3584 3395 3211 
Q 3816 2838 3816 1997 
z
" transform="scale(0.015625)"/>
      <path id="DejaVuSans-Bold-6c" d="M 538 4863 
L 1656 4863 
L 1656 0 
L 538 0 
L 538 4863 
z
" transform="scale(0.015625)"/>
      <path id="DejaVuSans-Bold-63" d="M 3366 3391 
L 3366 2478 
Q 3138 2634 2908 2709 
Q 2678 2784 2431 2784 
Q 1963 2784 1702 2511 
Q 1441 2238 1441 1747 
Q 1441 1256 1702 982 
Q 1963 709 2431 709 
Q 2694 709 2930 787 
Q 3166 866 3366 1019 
L 3366 103 
Q 3103 6 2833 -42 
Q 2563 -91 2291 -91 
Q 1344 -91 809 395 
Q 275 881 275 1747 
Q 275 2613 809 3098 
Q 1344 3584 2291 3584 
Q 2566 3584 2833 3536 
Q 3100 3488 3366 3391 
z
" transform="scale(0.015625)"/>
     </defs>
     <use xlink:href="#DejaVuSans-Bold-43"/>
     <use xlink:href="#DejaVuSans-Bold-6f" transform="translate(73.388672 0)"/>
     <use xlink:href="#DejaVuSans-Bold-6e" transform="translate(142.089844 0)"/>
     <use xlink:href="#DejaVuSans-Bold-74" transform="translate(213.28125 0)"/>
     <use xlink:href="#DejaVuSans-Bold-65" transform="translate(261.083984 0)"/>
     <use xlink:href="#DejaVuSans-Bold-78" transform="translate(328.90625 0)"/>
     <use xlink:href="#DejaVuSans-Bold-74" transform="translate(393.408203 0)"/>
     <use xlink:href="#DejaVuSans-Bold-20" transform="translate(441.210938 0)"/>
     <use xlink:href="#DejaVuSans-Bold-53" transform="translate(476.025391 0)"/>
     <use xlink:href="#DejaVuSans-Bold-65" transform="translate(548.046875 0)"/>
     <use xlink:href="#DejaVuSans-Bold-76" transform="translate(615.869141 0)"/>
     <use xlink:href="#DejaVuSans-Bold-65" transform="translate(681.054688 0)"/>
     <use xlink:href="#DejaVuSans-Bold-72" transform="translate(748.876953 0)"/>
     <use xlink:href="#DejaVuSans-Bold-69" transform="translate(798.193359 0)"/>
     <use xlink:href="#DejaVuSans-Bold-74" transform="translate(832.470703 0)"/>
     <use xlink:href="#DejaVuSans-Bold-79" transform="translate(880.273438 0)"/>
     <use xlink:href="#DejaVuSans-Bold-20" transform="translate(945.458984 0)"/>
     <use xlink:href="#DejaVuSans-Bold-49" transform="translate(980.273438 0)"/>
     <use xlink:href="#DejaVuSans-Bold-6e" transform="translate(1017.480469 0)"/>
     <use xlink:href="#DejaVuSans-Bold-64" transform="translate(1088.671875 0)"/>
     <use xlink:href="#DejaVuSans-Bold-65" transform="translate(1160.253906 0)"/>
     <use xlink:href="#DejaVuSans-Bold-78" transform="translate(1228.076172 0)"/>
     <use xlink:href="#DejaVuSans-Bold-20" transform="translate(1292.578125 0)"/>
     <use xlink:href="#DejaVuSans-Bold-62" transform="translate(1327.392578 0)"/>
     <use xlink:href="#DejaVuSans-Bold-79" transform="translate(1398.974609 0)"/>
     <use xlink:href="#DejaVuSans-Bold-20" transform="translate(1464.160156 0)"/>
     <use xlink:href="#DejaVuSans-Bold-41" transform="translate(1498.974609 0)"/>
     <use xlink:href="#DejaVuSans-Bold-6e" transform="translate(1576.367188 0)"/>
     <use xlink:href="#DejaVuSans-Bold-6e" transform="translate(1647.558594 0)"/>
     <use xlink:href="#DejaVuSans-Bold-65" transform="translate(1718.75 0)"/>
     <use xlink:href="#DejaVuSans-Bold-78" transform="translate(1786.572266 0)"/>
     <use xlink:href="#DejaVuSans-Bold-20" transform="translate(1851.074219 0)"/>
     <use xlink:href="#DejaVuSans-Bold-49" transform="translate(1885.888672 0)"/>
     <use xlink:href="#DejaVuSans-Bold-49" transform="translate(1923.095703 0)"/>
     <use xlink:href="#DejaVuSans-Bold-49" transform="translate(1960.302734 0)"/>
     <use xlink:href="#DejaVuSans-Bold-20" transform="translate(1997.509766 0)"/>
     <use xlink:href="#DejaVuSans-Bold-41" transform="translate(2032.324219 0)"/>
     <use xlink:href="#DejaVuSans-Bold-6e" transform="translate(2109.716797 0)"/>
     <use xlink:href="#DejaVuSans-Bold-61" transform="translate(2180.908203 0)"/>
     <use xlink:href="#DejaVuSans-Bold-6c" transform="translate(2248.388672 0)"/>
     <use xlink:href="#DejaVuSans-Bold-79" transform="translate(2282.666016 0)"/>
     <use xlink:href="#DejaVuSans-Bold-74" transform="translate(2347.851562 0)"/>
     <use xlink:href="#DejaVuSans-Bold-69" transform="translate(2395.654297 0)"/>
     <use xlink:href="#DejaVuSans-Bold-63" transform="translate(2429.931641 0)"/>
     <use xlink:href="#DejaVuSans-Bold-61" transform="translate(2489.208984 0)"/>
     <use xlink:href="#DejaVuSans-Bold-6c" transform="translate(2556.689453 0)"/>
     <use xlink:href="#DejaVuSans-Bold-20" transform="translate(2590.966797 0)"/>
     <use xlink:href="#DejaVuSans-Bold-41" transform="translate(2625.78125 0)"/>
     <use xlink:href="#DejaVuSans-Bold-72" transform="translate(2703.173828 0)"/>
     <use xlink:href="#DejaVuSans-Bold-65" transform="translate(2752.490234 0)"/>
     <use xlink:href="#DejaVuSans-Bold-61" transform="translate(2820.3125 0)"/>
    </g>
    <!-- (CSI is a structured-coding output, NOT a legal risk class) -->
    <g transform="translate(179.768672 27.961812) scale(0.11 -0.11)">
     <defs>
      <path id="DejaVuSans-Bold-28" d="M 2413 -844 
L 1484 -844 
Q 1006 -72 778 623 
Q 550 1319 550 2003 
Q 550 2688 779 3389 
Q 1009 4091 1484 4856 
L 2413 4856 
Q 2013 4116 1813 3408 
Q 1613 2700 1613 2009 
Q 1613 1319 1811 609 
Q 2009 -100 2413 -844 
z
" transform="scale(0.015625)"/>
      <path id="DejaVuSans-Bold-73" d="M 3272 3391 
L 3272 2541 
Q 2913 2691 2578 2766 
Q 2244 2841 1947 2841 
Q 1628 2841 1473 2761 
Q 1319 2681 1319 2516 
Q 1319 2381 1436 2309 
Q 1553 2238 1856 2203 
L 2053 2175 
Q 2913 2066 3209 1816 
Q 3506 1566 3506 1031 
Q 3506 472 3093 190 
Q 2681 -91 1863 -91 
Q 1516 -91 1145 -36 
Q 775 19 384 128 
L 384 978 
Q 719 816 1070 734 
Q 1422 653 1784 653 
Q 2113 653 2278 743 
Q 2444 834 2444 1013 
Q 2444 1163 2330 1236 
Q 2216 1309 1875 1350 
L 1678 1375 
Q 931 1469 631 1722 
Q 331 1975 331 2491 
Q 331 3047 712 3315 
Q 1094 3584 1881 3584 
Q 2191 3584 2531 3537 
Q 2872 3491 3272 3391 
z
" transform="scale(0.015625)"/>
      <path id="DejaVuSans-Bold-75" d="M 500 1363 
L 500 3500 
L 1625 3500 
L 1625 3150 
Q 1625 2866 1622 2436 
Q 1619 2006 1619 1863 
Q 1619 1441 1641 1255 
Q 1663 1069 1716 984 
Q 1784 875 1895 815 
Q 2006 756 2150 756 
Q 2500 756 2700 1025 
Q 2900 1294 2900 1772 
L 2900 3500 
L 4019 3500 
L 4019 0 
L 2900 0 
L 2900 506 
Q 2647 200 2364 54 
Q 2081 -91 1741 -91 
Q 1134 -91 817 281 
Q 500 653 500 1363 
z
" transform="scale(0.015625)"/>
      <path id="DejaVuSans-Bold-2d" d="M 347 2297 
L 2309 2297 
L 2309 1388 
L 347 1388 
L 347 2297 
z
" transform="scale(0.015625)"/>
      <path id="DejaVuSans-Bold-67" d="M 2919 594 
Q 2688 288 2409 144 
Q 2131 0 1766 0 
Q 1125 0 706 504 
Q 288 1009 288 1791 
Q 288 2575 706 3076 
Q 1125 3578 1766 3578 
Q 2131 3578 2409 3434 
Q 2688 3291 2919 2981 
L 2919 3500 
L 4044 3500 
L 4044 353 
Q 4044 -491 3511 -936 
Q 2978 -1381 1966 -1381 
Q 1638 -1381 1331 -1331 
Q 1025 -1281 716 -1178 
L 716 -306 
Q 1009 -475 1290 -558 
Q 1572 -641 1856 -641 
Q 2406 -641 2662 -400 
Q 2919 -159 2919 353 
L 2919 594 
z
M 2181 2772 
Q 1834 2772 1640 2515 
Q 1447 2259 1447 1791 
Q 1447 1309 1634 1061 
Q 1822 813 2181 813 
Q 2531 813 2725 1069 
Q 2919 1325 2919 1791 
Q 2919 2259 2725 2515 
Q 2531 2772 2181 2772 
z
" transform="scale(0.015625)"/>
      <path id="DejaVuSans-Bold-70" d="M 1656 506 
L 1656 -1331 
L 538 -1331 
L 538 3500 
L 1656 3500 
L 1656 2988 
Q 1888 3294 2169 3439 
Q 2450 3584 2816 3584 
Q 3463 3584 3878 3070 
Q 4294 2556 4294 1747 
Q 4294 938 3878 423 
Q 3463 -91 2816 -91 
Q 2450 -91 2169 54 
Q 1888 200 1656 506 
z
M 2400 2772 
Q 2041 2772 1848 2508 
Q 1656 2244 1656 1747 
Q 1656 1250 1848 986 
Q 2041 722 2400 722 
Q 2759 722 2948 984 
Q 3138 1247 3138 1747 
Q 3138 2247 2948 2509 
Q 2759 2772 2400 2772 
z
" transform="scale(0.015625)"/>
      <path id="DejaVuSans-Bold-2c" d="M 653 1209 
L 1778 1209 
L 1778 256 
L 1006 -909 
L 341 -909 
L 653 256 
L 653 1209 
z
" transform="scale(0.015625)"/>
      <path id="DejaVuSans-Bold-4e" d="M 588 4666 
L 1931 4666 
L 3628 1466 
L 3628 4666 
L 4769 4666 
L 4769 0 
L 3425 0 
L 1728 3200 
L 1728 0 
L 588 0 
L 588 4666 
z
" transform="scale(0.015625)"/>
      <path id="DejaVuSans-Bold-4f" d="M 2719 3878 
Q 2169 3878 1866 3472 
Q 1563 3066 1563 2328 
Q 1563 1594 1866 1187 
Q 2169 781 2719 781 
Q 3272 781 3575 1187 
Q 3878 1594 3878 2328 
Q 3878 3066 3575 3472 
Q 3272 3878 2719 3878 
z
M 2719 4750 
Q 3844 4750 4481 4106 
Q 5119 3463 5119 2328 
Q 5119 1197 4481 553 
Q 3844 -91 2719 -91 
Q 1597 -91 958 553 
Q 319 1197 319 2328 
Q 319 3463 958 4106 
Q 1597 4750 2719 4750 
z
" transform="scale(0.015625)"/>
      <path id="DejaVuSans-Bold-54" d="M 31 4666 
L 4331 4666 
L 4331 3756 
L 2784 3756 
L 2784 0 
L 1581 0 
L 1581 3756 
L 31 3756 
L 31 4666 
z
" transform="scale(0.015625)"/>
      <path id="DejaVuSans-Bold-6b" d="M 538 4863 
L 1656 4863 
L 1656 2216 
L 2944 3500 
L 4244 3500 
L 2534 1894 
L 4378 0 
L 3022 0 
L 1656 1459 
L 1656 0 
L 538 0 
L 538 4863 
z
" transform="scale(0.015625)"/>
      <path id="DejaVuSans-Bold-29" d="M 513 -844 
Q 913 -100 1113 609 
Q 1313 1319 1313 2009 
Q 1313 2700 1113 3408 
Q 913 4116 513 4856 
L 1441 4856 
Q 1916 4091 2145 3389 
Q 2375 2688 2375 2003 
Q 2375 1319 2147 623 
Q 1919 -72 1441 -844 
L 513 -844 
z
" transform="scale(0.015625)"/>
     </defs>
     <use xlink:href="#DejaVuSans-Bold-28"/>
     <use xlink:href="#DejaVuSans-Bold-43" transform="translate(45.703125 0)"/>
     <use xlink:href="#DejaVuSans-Bold-53" transform="translate(120.966797 0)"/>
     <use xlink:href="#DejaVuSans-Bold-49" transform="translate(192.988281 0)"/>
     <use xlink:href="#DejaVuSans-Bold-20" transform="translate(230.195312 0)"/>
     <use xlink:href="#DejaVuSans-Bold-69" transform="translate(265.009766 0)"/>
     <use xlink:href="#DejaVuSans-Bold-73" transform="translate(299.287109 0)"/>
     <use xlink:href="#DejaVuSans-Bold-20" transform="translate(358.808594 0)"/>
     <use xlink:href="#DejaVuSans-Bold-61" transform="translate(393.623047 0)"/>
     <use xlink:href="#DejaVuSans-Bold-20" transform="translate(461.103516 0)"/>
     <use xlink:href="#DejaVuSans-Bold-73" transform="translate(495.917969 0)"/>
     <use xlink:href="#DejaVuSans-Bold-74" transform="translate(555.439453 0)"/>
     <use xlink:href="#DejaVuSans-Bold-72" transform="translate(603.242188 0)"/>
     <use xlink:href="#DejaVuSans-Bold-75" transform="translate(652.558594 0)"/>
     <use xlink:href="#DejaVuSans-Bold-63" transform="translate(723.75 0)"/>
     <use xlink:href="#DejaVuSans-Bold-74" transform="translate(783.027344 0)"/>
     <use xlink:href="#DejaVuSans-Bold-75" transform="translate(830.830078 0)"/>
     <use xlink:href="#DejaVuSans-Bold-72" transform="translate(902.021484 0)"/>
     <use xlink:href="#DejaVuSans-Bold-65" transform="translate(951.337891 0)"/>
     <use xlink:href="#DejaVuSans-Bold-64" transform="translate(1019.160156 0)"/>
     <use xlink:href="#DejaVuSans-Bold-2d" transform="translate(1090.742188 0)"/>
     <use xlink:href="#DejaVuSans-Bold-63" transform="translate(1132.246094 0)"/>
     <use xlink:href="#DejaVuSans-Bold-6f" transform="translate(1191.523438 0)"/>
     <use xlink:href="#DejaVuSans-Bold-64" transform="translate(1260.224609 0)"/>
     <use xlink:href="#DejaVuSans-Bold-69" transform="translate(1331.806641 0)"/>
     <use xlink:href="#DejaVuSans-Bold-6e" transform="translate(1366.083984 0)"/>
     <use xlink:href="#DejaVuSans-Bold-67" transform="translate(1437.275391 0)"/>
     <use xlink:href="#DejaVuSans-Bold-20" transform="translate(1508.857422 0)"/>
     <use xlink:href="#DejaVuSans-Bold-6f" transform="translate(1543.671875 0)"/>
     <use xlink:href="#DejaVuSans-Bold-75" transform="translate(1612.373047 0)"/>
     <use xlink:href="#DejaVuSans-Bold-74" transform="translate(1683.564453 0)"/>
     <use xlink:href="#DejaVuSans-Bold-70" transform="translate(1731.367188 0)"/>
     <use xlink:href="#DejaVuSans-Bold-75" transform="translate(1802.949219 0)"/>
     <use xlink:href="#DejaVuSans-Bold-74" transform="translate(1874.140625 0)"/>
     <use xlink:href="#DejaVuSans-Bold-2c" transform="translate(1921.943359 0)"/>
     <use xlink:href="#DejaVuSans-Bold-20" transform="translate(1959.931641 0)"/>
     <use xlink:href="#DejaVuSans-Bold-4e" transform="translate(1994.746094 0)"/>
     <use xlink:href="#DejaVuSans-Bold-4f" transform="translate(2078.4375 0)"/>
     <use xlink:href="#DejaVuSans-Bold-54" transform="translate(2163.447266 0)"/>
     <use xlink:href="#DejaVuSans-Bold-20" transform="translate(2231.660156 0)"/>
     <use xlink:href="#DejaVuSans-Bold-61" transform="translate(2266.474609 0)"/>
     <use xlink:href="#DejaVuSans-Bold-20" transform="translate(2333.955078 0)"/>
     <use xlink:href="#DejaVuSans-Bold-6c" transform="translate(2368.769531 0)"/>
     <use xlink:href="#DejaVuSans-Bold-65" transform="translate(2403.046875 0)"/>
     <use xlink:href="#DejaVuSans-Bold-67" transform="translate(2470.869141 0)"/>
     <use xlink:href="#DejaVuSans-Bold-61" transform="translate(2542.451172 0)"/>
     <use xlink:href="#DejaVuSans-Bold-6c" transform="translate(2609.931641 0)"/>
     <use xlink:href="#DejaVuSans-Bold-20" transform="translate(2644.208984 0)"/>
     <use xlink:href="#DejaVuSans-Bold-72" transform="translate(2679.023438 0)"/>
     <use xlink:href="#DejaVuSans-Bold-69" transform="translate(2728.339844 0)"/>
     <use xlink:href="#DejaVuSans-Bold-73" transform="translate(2762.617188 0)"/>
     <use xlink:href="#DejaVuSans-Bold-6b" transform="translate(2822.138672 0)"/>
     <use xlink:href="#DejaVuSans-Bold-20" transform="translate(2888.642578 0)"/>
     <use xlink:href="#DejaVuSans-Bold-63" transform="translate(2923.457031 0)"/>
     <use xlink:href="#DejaVuSans-Bold-6c" transform="translate(2982.734375 0)"/>
     <use xlink:href="#DejaVuSans-Bold-61" transform="translate(3017.011719 0)"/>
     <use xlink:href="#DejaVuSans-Bold-73" transform="translate(3084.492188 0)"/>
     <use xlink:href="#DejaVuSans-Bold-73" transform="translate(3144.013672 0)"/>
     <use xlink:href="#DejaVuSans-Bold-29" transform="translate(3203.535156 0)"/>
    </g>
   </g>
  </g>
 </g>
 <defs>
  <clipPath id="pa45b4cf379">
   <rect x="40.603125" y="33.961812" width="635.74" height="329.896"/>
  </clipPath>
 </defs>
</svg>
