<?xml version="1.0" encoding="utf-8" standalone="no"?>
<!DOCTYPE svg PUBLIC "-//W3C//DTD SVG 1.1//EN"
  "http://www.w3.org/Graphics/SVG/1.1/DTD/svg11.dtd">
<svg xmlns:xlink="http://www.w3.org/1999/xlink" width="496.343125pt" height="495.590063pt" viewBox="0 0 496.343125 495.590063" xmlns="http://www.w3.org/2000/svg" version="1.1">
 <metadata>
  <rdf:RDF xmlns:dc="http://purl.org/dc/elements/1.1/" xmlns:cc="http://creativecommons.org/ns#" xmlns:rdf="http://www.w3.org/1999/02/22-rdf-syntax-ns#">
   <cc:Work>
    <dc:type rdf:resource="http://purl.org/dc/dcmitype/StillImage"/>
    <dc:date>2026-05-27T10:39:03.153669</dc:date>
    <dc:format>image/svg+xml</dc:format>
    <dc:creator>
     <cc:Agent>
      <dc:title>Matplotlib v3.10.9, https://matplotlib.org/</dc:title>
     </cc:Agent>
    </dc:creator>
   </cc:Work>
  </rdf:RDF>
 </metadata>
 <defs>
  <style type="text/css">*{stroke-linejoin: round; stroke-linecap: butt}</style>
 </defs>
 <g id="figure_1">
  <g id="patch_1">
   <path d="M 0 495.590063 
L 496.343125 495.590063 
L 496.343125 0 
L 0 0 
z
" style="fill: #ffffff"/>
  </g>
  <g id="axes_1">
   <g id="patch_2">
    <path d="M 40.603125 458.033813 
L 489.143125 458.033813 
L 489.143125 33.961813 
L 40.603125 33.961813 
z
" style="fill: #ffffff"/>
   </g>
   <g id="matplotlib.axis_1">
    <g id="xtick_1">
     <g id="line2d_1">
      <defs>
       <path id="m967a6b9641" d="M 0 0 
L 0 3.5 
" style="stroke: #000000; stroke-width: 0.8"/>
      </defs>
      <g>
       <use xlink:href="#m967a6b9641" x="107.884125" y="458.033813" style="stroke: #000000; stroke-width: 0.8"/>
      </g>
     </g>
     <g id="text_1">
      <!-- 8 -->
      <g transform="translate(104.702875 472.63225) scale(0.1 -0.1)">
       <defs>
        <path id="DejaVuSans-38" d="M 2034 2216 
Q 1584 2216 1326 1975 
Q 1069 1734 1069 1313 
Q 1069 891 1326 650 
Q 1584 409 2034 409 
Q 2484 409 2743 651 
Q 3003 894 3003 1313 
Q 3003 1734 2745 1975 
Q 2488 2216 2034 2216 
z
M 1403 2484 
Q 997 2584 770 2862 
Q 544 3141 544 3541 
Q 544 4100 942 4425 
Q 1341 4750 2034 4750 
Q 2731 4750 3128 4425 
Q 3525 4100 3525 3541 
Q 3525 3141 3298 2862 
Q 3072 2584 2669 2484 
Q 3125 2378 3379 2068 
Q 3634 1759 3634 1313 
Q 3634 634 3220 271 
Q 2806 -91 2034 -91 
Q 1263 -91 848 271 
Q 434 634 434 1313 
Q 434 1759 690 2068 
Q 947 2378 1403 2484 
z
M 1172 3481 
Q 1172 3119 1398 2916 
Q 1625 2713 2034 2713 
Q 2441 2713 2670 2916 
Q 2900 3119 2900 3481 
Q 2900 3844 2670 4047 
Q 2441 4250 2034 4250 
Q 1625 4250 1398 4047 
Q 1172 3844 1172 3481 
z
" transform="scale(0.015625)"/>
       </defs>
       <use xlink:href="#DejaVuSans-38"/>
      </g>
     </g>
    </g>
    <g id="xtick_2">
     <g id="line2d_2">
      <g>
       <use xlink:href="#m967a6b9641" x="197.592125" y="458.033813" style="stroke: #000000; stroke-width: 0.8"/>
      </g>
     </g>
     <g id="text_2">
      <!-- 10 -->
      <g transform="translate(191.229625 472.63225) scale(0.1 -0.1)">
       <defs>
        <path id="DejaVuSans-31" d="M 794 531 
L 1825 531 
L 1825 4091 
L 703 3866 
L 703 4441 
L 1819 4666 
L 2450 4666 
L 2450 531 
L 3481 531 
L 3481 0 
L 794 0 
L 794 531 
z
" transform="scale(0.015625)"/>
        <path id="DejaVuSans-30" d="M 2034 4250 
Q 1547 4250 1301 3770 
Q 1056 3291 1056 2328 
Q 1056 1369 1301 889 
Q 1547 409 2034 409 
Q 2525 409 2770 889 
Q 3016 1369 3016 2328 
Q 3016 3291 2770 3770 
Q 2525 4250 2034 4250 
z
M 2034 4750 
Q 2819 4750 3233 4129 
Q 3647 3509 3647 2328 
Q 3647 1150 3233 529 
Q 2819 -91 2034 -91 
Q 1250 -91 836 529 
Q 422 1150 422 2328 
Q 422 3509 836 4129 
Q 1250 4750 2034 4750 
z
" transform="scale(0.015625)"/>
       </defs>
       <use xlink:href="#DejaVuSans-31"/>
       <use xlink:href="#DejaVuSans-30" transform="translate(63.623047 0)"/>
      </g>
     </g>
    </g>
    <g id="xtick_3">
     <g id="line2d_3">
      <g>
       <use xlink:href="#m967a6b9641" x="287.300125" y="458.033813" style="stroke: #000000; stroke-width: 0.8"/>
      </g>
     </g>
     <g id="text_3">
      <!-- 12 -->
      <g transform="translate(280.937625 472.63225) scale(0.1 -0.1)">
       <defs>
        <path id="DejaVuSans-32" d="M 1228 531 
L 3431 531 
L 3431 0 
L 469 0 
L 469 531 
Q 828 903 1448 1529 
Q 2069 2156 2228 2338 
Q 2531 2678 2651 2914 
Q 2772 3150 2772 3378 
Q 2772 3750 2511 3984 
Q 2250 4219 1831 4219 
Q 1534 4219 1204 4116 
Q 875 4013 500 3803 
L 500 4441 
Q 881 4594 1212 4672 
Q 1544 4750 1819 4750 
Q 2544 4750 2975 4387 
Q 3406 4025 3406 3419 
Q 3406 3131 3298 2873 
Q 3191 2616 2906 2266 
Q 2828 2175 2409 1742 
Q 1991 1309 1228 531 
z
" transform="scale(0.015625)"/>
       </defs>
       <use xlink:href="#DejaVuSans-31"/>
       <use xlink:href="#DejaVuSans-32" transform="translate(63.623047 0)"/>
      </g>
     </g>
    </g>
    <g id="xtick_4">
     <g id="line2d_4">
      <g>
       <use xlink:href="#m967a6b9641" x="377.008125" y="458.033813" style="stroke: #000000; stroke-width: 0.8"/>
      </g>
     </g>
     <g id="text_4">
      <!-- 14 -->
      <g transform="translate(370.645625 472.63225) scale(0.1 -0.1)">
       <defs>
        <path id="DejaVuSans-34" d="M 2419 4116 
L 825 1625 
L 2419 1625 
L 2419 4116 
z
M 2253 4666 
L 3047 4666 
L 3047 1625 
L 3713 1625 
L 3713 1100 
L 3047 1100 
L 3047 0 
L 2419 0 
L 2419 1100 
L 313 1100 
L 313 1709 
L 2253 4666 
z
" transform="scale(0.015625)"/>
       </defs>
       <use xlink:href="#DejaVuSans-31"/>
       <use xlink:href="#DejaVuSans-34" transform="translate(63.623047 0)"/>
      </g>
     </g>
    </g>
    <g id="xtick_5">
     <g id="line2d_5">
      <g>
       <use xlink:href="#m967a6b9641" x="466.716125" y="458.033813" style="stroke: #000000; stroke-width: 0.8"/>
      </g>
     </g>
     <g id="text_5">
      <!-- 16 -->
      <g transform="translate(460.353625 472.63225) scale(0.1 -0.1)">
       <defs>
        <path id="DejaVuSans-36" d="M 2113 2584 
Q 1688 2584 1439 2293 
Q 1191 2003 1191 1497 
Q 1191 994 1439 701 
Q 1688 409 2113 409 
Q 2538 409 2786 701 
Q 3034 994 3034 1497 
Q 3034 2003 2786 2293 
Q 2538 2584 2113 2584 
z
M 3366 4563 
L 3366 3988 
Q 3128 4100 2886 4159 
Q 2644 4219 2406 4219 
Q 1781 4219 1451 3797 
Q 1122 3375 1075 2522 
Q 1259 2794 1537 2939 
Q 1816 3084 2150 3084 
Q 2853 3084 3261 2657 
Q 3669 2231 3669 1497 
Q 3669 778 3244 343 
Q 2819 -91 2113 -91 
Q 1303 -91 875 529 
Q 447 1150 447 2328 
Q 447 3434 972 4092 
Q 1497 4750 2381 4750 
Q 2619 4750 2861 4703 
Q 3103 4656 3366 4563 
z
" transform="scale(0.015625)"/>
       </defs>
       <use xlink:href="#DejaVuSans-31"/>
       <use xlink:href="#DejaVuSans-36" transform="translate(63.623047 0)"/>
      </g>
     </g>
    </g>
    <g id="text_6">
     <!-- CSI — null as 0 (optimistic) -->
     <g transform="translate(197.374688 486.310375) scale(0.1 -0.1)">
      <defs>
       <path id="DejaVuSans-43" d="M 4122 4306 
L 4122 3641 
Q 3803 3938 3442 4084 
Q 3081 4231 2675 4231 
Q 1875 4231 1450 3742 
Q 1025 3253 1025 2328 
Q 1025 1406 1450 917 
Q 1875 428 2675 428 
Q 3081 428 3442 575 
Q 3803 722 4122 1019 
L 4122 359 
Q 3791 134 3420 21 
Q 3050 -91 2638 -91 
Q 1578 -91 968 557 
Q 359 1206 359 2328 
Q 359 3453 968 4101 
Q 1578 4750 2638 4750 
Q 3056 4750 3426 4639 
Q 3797 4528 4122 4306 
z
" transform="scale(0.015625)"/>
       <path id="DejaVuSans-53" d="M 3425 4513 
L 3425 3897 
Q 3066 4069 2747 4153 
Q 2428 4238 2131 4238 
Q 1616 4238 1336 4038 
Q 1056 3838 1056 3469 
Q 1056 3159 1242 3001 
Q 1428 2844 1947 2747 
L 2328 2669 
Q 3034 2534 3370 2195 
Q 3706 1856 3706 1288 
Q 3706 609 3251 259 
Q 2797 -91 1919 -91 
Q 1588 -91 1214 -16 
Q 841 59 441 206 
L 441 856 
Q 825 641 1194 531 
Q 1563 422 1919 422 
Q 2459 422 2753 634 
Q 3047 847 3047 1241 
Q 3047 1584 2836 1778 
Q 2625 1972 2144 2069 
L 1759 2144 
Q 1053 2284 737 2584 
Q 422 2884 422 3419 
Q 422 4038 858 4394 
Q 1294 4750 2059 4750 
Q 2388 4750 2728 4690 
Q 3069 4631 3425 4513 
z
" transform="scale(0.015625)"/>
       <path id="DejaVuSans-49" d="M 628 4666 
L 1259 4666 
L 1259 0 
L 628 0 
L 628 4666 
z
" transform="scale(0.015625)"/>
       <path id="DejaVuSans-20" transform="scale(0.015625)"/>
       <path id="DejaVuSans-2014" d="M 313 1978 
L 6088 1978 
L 6088 1528 
L 313 1528 
L 313 1978 
z
" transform="scale(0.015625)"/>
       <path id="DejaVuSans-6e" d="M 3513 2113 
L 3513 0 
L 2938 0 
L 2938 2094 
Q 2938 2591 2744 2837 
Q 2550 3084 2163 3084 
Q 1697 3084 1428 2787 
Q 1159 2491 1159 1978 
L 1159 0 
L 581 0 
L 581 3500 
L 1159 3500 
L 1159 2956 
Q 1366 3272 1645 3428 
Q 1925 3584 2291 3584 
Q 2894 3584 3203 3211 
Q 3513 2838 3513 2113 
z
" transform="scale(0.015625)"/>
       <path id="DejaVuSans-75" d="M 544 1381 
L 544 3500 
L 1119 3500 
L 1119 1403 
Q 1119 906 1312 657 
Q 1506 409 1894 409 
Q 2359 409 2629 706 
Q 2900 1003 2900 1516 
L 2900 3500 
L 3475 3500 
L 3475 0 
L 2900 0 
L 2900 538 
Q 2691 219 2414 64 
Q 2138 -91 1772 -91 
Q 1169 -91 856 284 
Q 544 659 544 1381 
z
M 1991 3584 
L 1991 3584 
z
" transform="scale(0.015625)"/>
       <path id="DejaVuSans-6c" d="M 603 4863 
L 1178 4863 
L 1178 0 
L 603 0 
L 603 4863 
z
" transform="scale(0.015625)"/>
       <path id="DejaVuSans-61" d="M 2194 1759 
Q 1497 1759 1228 1600 
Q 959 1441 959 1056 
Q 959 750 1161 570 
Q 1363 391 1709 391 
Q 2188 391 2477 730 
Q 2766 1069 2766 1631 
L 2766 1759 
L 2194 1759 
z
M 3341 1997 
L 3341 0 
L 2766 0 
L 2766 531 
Q 2569 213 2275 61 
Q 1981 -91 1556 -91 
Q 1019 -91 701 211 
Q 384 513 384 1019 
Q 384 1609 779 1909 
Q 1175 2209 1959 2209 
L 2766 2209 
L 2766 2266 
Q 2766 2663 2505 2880 
Q 2244 3097 1772 3097 
Q 1472 3097 1187 3025 
Q 903 2953 641 2809 
L 641 3341 
Q 956 3463 1253 3523 
Q 1550 3584 1831 3584 
Q 2591 3584 2966 3190 
Q 3341 2797 3341 1997 
z
" transform="scale(0.015625)"/>
       <path id="DejaVuSans-73" d="M 2834 3397 
L 2834 2853 
Q 2591 2978 2328 3040 
Q 2066 3103 1784 3103 
Q 1356 3103 1142 2972 
Q 928 2841 928 2578 
Q 928 2378 1081 2264 
Q 1234 2150 1697 2047 
L 1894 2003 
Q 2506 1872 2764 1633 
Q 3022 1394 3022 966 
Q 3022 478 2636 193 
Q 2250 -91 1575 -91 
Q 1294 -91 989 -36 
Q 684 19 347 128 
L 347 722 
Q 666 556 975 473 
Q 1284 391 1588 391 
Q 1994 391 2212 530 
Q 2431 669 2431 922 
Q 2431 1156 2273 1281 
Q 2116 1406 1581 1522 
L 1381 1569 
Q 847 1681 609 1914 
Q 372 2147 372 2553 
Q 372 3047 722 3315 
Q 1072 3584 1716 3584 
Q 2034 3584 2315 3537 
Q 2597 3491 2834 3397 
z
" transform="scale(0.015625)"/>
       <path id="DejaVuSans-28" d="M 1984 4856 
Q 1566 4138 1362 3434 
Q 1159 2731 1159 2009 
Q 1159 1288 1364 580 
Q 1569 -128 1984 -844 
L 1484 -844 
Q 1016 -109 783 600 
Q 550 1309 550 2009 
Q 550 2706 781 3412 
Q 1013 4119 1484 4856 
L 1984 4856 
z
" transform="scale(0.015625)"/>
       <path id="DejaVuSans-6f" d="M 1959 3097 
Q 1497 3097 1228 2736 
Q 959 2375 959 1747 
Q 959 1119 1226 758 
Q 1494 397 1959 397 
Q 2419 397 2687 759 
Q 2956 1122 2956 1747 
Q 2956 2369 2687 2733 
Q 2419 3097 1959 3097 
z
M 1959 3584 
Q 2709 3584 3137 3096 
Q 3566 2609 3566 1747 
Q 3566 888 3137 398 
Q 2709 -91 1959 -91 
Q 1206 -91 779 398 
Q 353 888 353 1747 
Q 353 2609 779 3096 
Q 1206 3584 1959 3584 
z
" transform="scale(0.015625)"/>
       <path id="DejaVuSans-70" d="M 1159 525 
L 1159 -1331 
L 581 -1331 
L 581 3500 
L 1159 3500 
L 1159 2969 
Q 1341 3281 1617 3432 
Q 1894 3584 2278 3584 
Q 2916 3584 3314 3078 
Q 3713 2572 3713 1747 
Q 3713 922 3314 415 
Q 2916 -91 2278 -91 
Q 1894 -91 1617 61 
Q 1341 213 1159 525 
z
M 3116 1747 
Q 3116 2381 2855 2742 
Q 2594 3103 2138 3103 
Q 1681 3103 1420 2742 
Q 1159 2381 1159 1747 
Q 1159 1113 1420 752 
Q 1681 391 2138 391 
Q 2594 391 2855 752 
Q 3116 1113 3116 1747 
z
" transform="scale(0.015625)"/>
       <path id="DejaVuSans-74" d="M 1172 4494 
L 1172 3500 
L 2356 3500 
L 2356 3053 
L 1172 3053 
L 1172 1153 
Q 1172 725 1289 603 
Q 1406 481 1766 481 
L 2356 481 
L 2356 0 
L 1766 0 
Q 1100 0 847 248 
Q 594 497 594 1153 
L 594 3053 
L 172 3053 
L 172 3500 
L 594 3500 
L 594 4494 
L 1172 4494 
z
" transform="scale(0.015625)"/>
       <path id="DejaVuSans-69" d="M 603 3500 
L 1178 3500 
L 1178 0 
L 603 0 
L 603 3500 
z
M 603 4863 
L 1178 4863 
L 1178 4134 
L 603 4134 
L 603 4863 
z
" transform="scale(0.015625)"/>
       <path id="DejaVuSans-6d" d="M 3328 2828 
Q 3544 3216 3844 3400 
Q 4144 3584 4550 3584 
Q 5097 3584 5394 3201 
Q 5691 2819 5691 2113 
L 5691 0 
L 5113 0 
L 5113 2094 
Q 5113 2597 4934 2840 
Q 4756 3084 4391 3084 
Q 3944 3084 3684 2787 
Q 3425 2491 3425 1978 
L 3425 0 
L 2847 0 
L 2847 2094 
Q 2847 2600 2669 2842 
Q 2491 3084 2119 3084 
Q 1678 3084 1418 2786 
Q 1159 2488 1159 1978 
L 1159 0 
L 581 0 
L 581 3500 
L 1159 3500 
L 1159 2956 
Q 1356 3278 1631 3431 
Q 1906 3584 2284 3584 
Q 2666 3584 2933 3390 
Q 3200 3197 3328 2828 
z
" transform="scale(0.015625)"/>
       <path id="DejaVuSans-63" d="M 3122 3366 
L 3122 2828 
Q 2878 2963 2633 3030 
Q 2388 3097 2138 3097 
Q 1578 3097 1268 2742 
Q 959 2388 959 1747 
Q 959 1106 1268 751 
Q 1578 397 2138 397 
Q 2388 397 2633 464 
Q 2878 531 3122 666 
L 3122 134 
Q 2881 22 2623 -34 
Q 2366 -91 2075 -91 
Q 1284 -91 818 406 
Q 353 903 353 1747 
Q 353 2603 823 3093 
Q 1294 3584 2113 3584 
Q 2378 3584 2631 3529 
Q 2884 3475 3122 3366 
z
" transform="scale(0.015625)"/>
       <path id="DejaVuSans-29" d="M 513 4856 
L 1013 4856 
Q 1481 4119 1714 3412 
Q 1947 2706 1947 2009 
Q 1947 1309 1714 600 
Q 1481 -109 1013 -844 
L 513 -844 
Q 928 -128 1133 580 
Q 1338 1288 1338 2009 
Q 1338 2731 1133 3434 
Q 928 4138 513 4856 
z
" transform="scale(0.015625)"/>
      </defs>
      <use xlink:href="#DejaVuSans-43"/>
      <use xlink:href="#DejaVuSans-53" transform="translate(69.824219 0)"/>
      <use xlink:href="#DejaVuSans-49" transform="translate(133.300781 0)"/>
      <use xlink:href="#DejaVuSans-20" transform="translate(162.792969 0)"/>
      <use xlink:href="#DejaVuSans-2014" transform="translate(194.580078 0)"/>
      <use xlink:href="#DejaVuSans-20" transform="translate(294.580078 0)"/>
      <use xlink:href="#DejaVuSans-6e" transform="translate(326.367188 0)"/>
      <use xlink:href="#DejaVuSans-75" transform="translate(389.746094 0)"/>
      <use xlink:href="#DejaVuSans-6c" transform="translate(453.125 0)"/>
      <use xlink:href="#DejaVuSans-6c" transform="translate(480.908203 0)"/>
      <use xlink:href="#DejaVuSans-20" transform="translate(508.691406 0)"/>
      <use xlink:href="#DejaVuSans-61" transform="translate(540.478516 0)"/>
      <use xlink:href="#DejaVuSans-73" transform="translate(601.757812 0)"/>
      <use xlink:href="#DejaVuSans-20" transform="translate(653.857422 0)"/>
      <use xlink:href="#DejaVuSans-30" transform="translate(685.644531 0)"/>
      <use xlink:href="#DejaVuSans-20" transform="translate(749.267578 0)"/>
      <use xlink:href="#DejaVuSans-28" transform="translate(781.054688 0)"/>
      <use xlink:href="#DejaVuSans-6f" transform="translate(820.068359 0)"/>
      <use xlink:href="#DejaVuSans-70" transform="translate(881.25 0)"/>
      <use xlink:href="#DejaVuSans-74" transform="translate(944.726562 0)"/>
      <use xlink:href="#DejaVuSans-69" transform="translate(983.935547 0)"/>
      <use xlink:href="#DejaVuSans-6d" transform="translate(1011.71875 0)"/>
      <use xlink:href="#DejaVuSans-69" transform="translate(1109.130859 0)"/>
      <use xlink:href="#DejaVuSans-73" transform="translate(1136.914062 0)"/>
      <use xlink:href="#DejaVuSans-74" transform="translate(1189.013672 0)"/>
      <use xlink:href="#DejaVuSans-69" transform="translate(1228.222656 0)"/>
      <use xlink:href="#DejaVuSans-63" transform="translate(1256.005859 0)"/>
      <use xlink:href="#DejaVuSans-29" transform="translate(1310.986328 0)"/>
     </g>
    </g>
   </g>
   <g id="matplotlib.axis_2">
    <g id="ytick_1">
     <g id="line2d_6">
      <defs>
       <path id="md9b57b3334" d="M 0 0 
L -3.5 0 
" style="stroke: #000000; stroke-width: 0.8"/>
      </defs>
      <g>
       <use xlink:href="#md9b57b3334" x="40.603125" y="394.423013" style="stroke: #000000; stroke-width: 0.8"/>
      </g>
     </g>
     <g id="text_7">
      <!-- 8 -->
      <g transform="translate(27.240625 398.222231) scale(0.1 -0.1)">
       <use xlink:href="#DejaVuSans-38"/>
      </g>
     </g>
    </g>
    <g id="ytick_2">
     <g id="line2d_7">
      <g>
       <use xlink:href="#md9b57b3334" x="40.603125" y="309.608613" style="stroke: #000000; stroke-width: 0.8"/>
      </g>
     </g>
     <g id="text_8">
      <!-- 10 -->
      <g transform="translate(20.878125 313.407831) scale(0.1 -0.1)">
       <use xlink:href="#DejaVuSans-31"/>
       <use xlink:href="#DejaVuSans-30" transform="translate(63.623047 0)"/>
      </g>
     </g>
    </g>
    <g id="ytick_3">
     <g id="line2d_8">
      <g>
       <use xlink:href="#md9b57b3334" x="40.603125" y="224.794213" style="stroke: #000000; stroke-width: 0.8"/>
      </g>
     </g>
     <g id="text_9">
      <!-- 12 -->
      <g transform="translate(20.878125 228.593431) scale(0.1 -0.1)">
       <use xlink:href="#DejaVuSans-31"/>
       <use xlink:href="#DejaVuSans-32" transform="translate(63.623047 0)"/>
      </g>
     </g>
    </g>
    <g id="ytick_4">
     <g id="line2d_9">
      <g>
       <use xlink:href="#md9b57b3334" x="40.603125" y="139.979812" style="stroke: #000000; stroke-width: 0.8"/>
      </g>
     </g>
     <g id="text_10">
      <!-- 14 -->
      <g transform="translate(20.878125 143.779031) scale(0.1 -0.1)">
       <use xlink:href="#DejaVuSans-31"/>
       <use xlink:href="#DejaVuSans-34" transform="translate(63.623047 0)"/>
      </g>
     </g>
    </g>
    <g id="ytick_5">
     <g id="line2d_10">
      <g>
       <use xlink:href="#md9b57b3334" x="40.603125" y="55.165413" style="stroke: #000000; stroke-width: 0.8"/>
      </g>
     </g>
     <g id="text_11">
      <!-- 16 -->
      <g transform="translate(20.878125 58.964631) scale(0.1 -0.1)">
       <use xlink:href="#DejaVuSans-31"/>
       <use xlink:href="#DejaVuSans-36" transform="translate(63.623047 0)"/>
      </g>
     </g>
    </g>
    <g id="text_12">
     <!-- CSI — null as 2 (conservative) -->
     <g transform="translate(14.798437 321.073594) rotate(-90) scale(0.1 -0.1)">
      <defs>
       <path id="DejaVuSans-65" d="M 3597 1894 
L 3597 1613 
L 953 1613 
Q 991 1019 1311 708 
Q 1631 397 2203 397 
Q 2534 397 2845 478 
Q 3156 559 3463 722 
L 3463 178 
Q 3153 47 2828 -22 
Q 2503 -91 2169 -91 
Q 1331 -91 842 396 
Q 353 884 353 1716 
Q 353 2575 817 3079 
Q 1281 3584 2069 3584 
Q 2775 3584 3186 3129 
Q 3597 2675 3597 1894 
z
M 3022 2063 
Q 3016 2534 2758 2815 
Q 2500 3097 2075 3097 
Q 1594 3097 1305 2825 
Q 1016 2553 972 2059 
L 3022 2063 
z
" transform="scale(0.015625)"/>
       <path id="DejaVuSans-72" d="M 2631 2963 
Q 2534 3019 2420 3045 
Q 2306 3072 2169 3072 
Q 1681 3072 1420 2755 
Q 1159 2438 1159 1844 
L 1159 0 
L 581 0 
L 581 3500 
L 1159 3500 
L 1159 2956 
Q 1341 3275 1631 3429 
Q 1922 3584 2338 3584 
Q 2397 3584 2469 3576 
Q 2541 3569 2628 3553 
L 2631 2963 
z
" transform="scale(0.015625)"/>
       <path id="DejaVuSans-76" d="M 191 3500 
L 800 3500 
L 1894 563 
L 2988 3500 
L 3597 3500 
L 2284 0 
L 1503 0 
L 191 3500 
z
" transform="scale(0.015625)"/>
      </defs>
      <use xlink:href="#DejaVuSans-43"/>
      <use xlink:href="#DejaVuSans-53" transform="translate(69.824219 0)"/>
      <use xlink:href="#DejaVuSans-49" transform="translate(133.300781 0)"/>
      <use xlink:href="#DejaVuSans-20" transform="translate(162.792969 0)"/>
      <use xlink:href="#DejaVuSans-2014" transform="translate(194.580078 0)"/>
      <use xlink:href="#DejaVuSans-20" transform="translate(294.580078 0)"/>
      <use xlink:href="#DejaVuSans-6e" transform="translate(326.367188 0)"/>
      <use xlink:href="#DejaVuSans-75" transform="translate(389.746094 0)"/>
      <use xlink:href="#DejaVuSans-6c" transform="translate(453.125 0)"/>
      <use xlink:href="#DejaVuSans-6c" transform="translate(480.908203 0)"/>
      <use xlink:href="#DejaVuSans-20" transform="translate(508.691406 0)"/>
      <use xlink:href="#DejaVuSans-61" transform="translate(540.478516 0)"/>
      <use xlink:href="#DejaVuSans-73" transform="translate(601.757812 0)"/>
      <use xlink:href="#DejaVuSans-20" transform="translate(653.857422 0)"/>
      <use xlink:href="#DejaVuSans-32" transform="translate(685.644531 0)"/>
      <use xlink:href="#DejaVuSans-20" transform="translate(749.267578 0)"/>
      <use xlink:href="#DejaVuSans-28" transform="translate(781.054688 0)"/>
      <use xlink:href="#DejaVuSans-63" transform="translate(820.068359 0)"/>
      <use xlink:href="#DejaVuSans-6f" transform="translate(875.048828 0)"/>
      <use xlink:href="#DejaVuSans-6e" transform="translate(936.230469 0)"/>
      <use xlink:href="#DejaVuSans-73" transform="translate(999.609375 0)"/>
      <use xlink:href="#DejaVuSans-65" transform="translate(1051.708984 0)"/>
      <use xlink:href="#DejaVuSans-72" transform="translate(1113.232422 0)"/>
      <use xlink:href="#DejaVuSans-76" transform="translate(1154.345703 0)"/>
      <use xlink:href="#DejaVuSans-61" transform="translate(1213.525391 0)"/>
      <use xlink:href="#DejaVuSans-74" transform="translate(1274.804688 0)"/>
      <use xlink:href="#DejaVuSans-69" transform="translate(1314.013672 0)"/>
      <use xlink:href="#DejaVuSans-76" transform="translate(1341.796875 0)"/>
      <use xlink:href="#DejaVuSans-65" transform="translate(1400.976562 0)"/>
      <use xlink:href="#DejaVuSans-29" transform="translate(1462.5 0)"/>
     </g>
    </g>
   </g>
   <g id="line2d_11">
    <path d="M 40.603125 458.033813 
L 45.133832 453.750257 
L 49.664539 449.466701 
L 54.195246 445.183146 
L 58.725953 440.89959 
L 63.25666 436.616035 
L 67.787367 432.332479 
L 72.318074 428.048924 
L 76.848782 423.765368 
L 81.379489 419.481813 
L 85.910196 415.198257 
L 90.440903 410.914701 
L 94.97161 406.631146 
L 99.502317 402.34759 
L 104.033024 398.064035 
L 108.563731 393.780479 
L 113.094438 389.496924 
L 117.625145 385.213368 
L 122.155852 380.929813 
L 126.686559 376.646257 
L 131.217266 372.362701 
L 135.747973 368.079146 
L 140.278681 363.79559 
L 144.809388 359.512035 
L 149.340095 355.228479 
L 153.870802 350.944924 
L 158.401509 346.661368 
L 162.932216 342.377813 
L 167.462923 338.094257 
L 171.99363 333.810701 
L 176.524337 329.527146 
L 181.055044 325.24359 
L 185.585751 320.960035 
L 190.116458 316.676479 
L 194.647165 312.392924 
L 199.177872 308.109368 
L 203.70858 303.825812 
L 208.239287 299.542257 
L 212.769994 295.258701 
L 217.300701 290.975146 
L 221.831408 286.69159 
L 226.362115 282.408035 
L 230.892822 278.124479 
L 235.423529 273.840924 
L 239.954236 269.557368 
L 244.484943 265.273813 
L 249.01565 260.990257 
L 253.546357 256.706701 
L 258.077064 252.423146 
L 262.607771 248.13959 
L 267.138479 243.856035 
L 271.669186 239.572479 
L 276.199893 235.288924 
L 280.7306 231.005368 
L 285.261307 226.721813 
L 289.792014 222.438257 
L 294.322721 218.154701 
L 298.853428 213.871146 
L 303.384135 209.58759 
L 307.914842 205.304035 
L 312.445549 201.020479 
L 316.976256 196.736924 
L 321.506963 192.453368 
L 326.03767 188.169813 
L 330.568378 183.886257 
L 335.099085 179.602701 
L 339.629792 175.319146 
L 344.160499 171.03559 
L 348.691206 166.752035 
L 353.221913 162.468479 
L 357.75262 158.184924 
L 362.283327 153.901368 
L 366.814034 149.617813 
L 371.344741 145.334257 
L 375.875448 141.050701 
L 380.406155 136.767146 
L 384.936862 132.48359 
L 389.467569 128.200035 
L 393.998277 123.916479 
L 398.528984 119.632924 
L 403.059691 115.349368 
L 407.590398 111.065812 
L 412.121105 106.782257 
L 416.651812 102.498701 
L 421.182519 98.215146 
L 425.713226 93.93159 
L 430.243933 89.648035 
L 434.77464 85.364479 
L 439.305347 81.080924 
L 443.836054 76.797368 
L 448.366761 72.513813 
L 452.897468 68.230257 
L 457.428176 63.946701 
L 461.958883 59.663146 
L 466.48959 55.37959 
L 471.020297 51.096035 
L 475.551004 46.812479 
L 480.081711 42.528924 
L 484.612418 38.245368 
L 489.143125 33.961812 
" clip-path="url(#p78179d544d)" style="fill: none; stroke-dasharray: 4.44,1.92; stroke-dashoffset: 0; stroke: #888888; stroke-width: 1.2"/>
   </g>
   <g id="patch_3">
    <path d="M 40.603125 458.033813 
L 40.603125 33.961812 
" style="fill: none; stroke: #000000; stroke-width: 0.8; stroke-linejoin: miter; stroke-linecap: square"/>
   </g>
   <g id="patch_4">
    <path d="M 40.603125 458.033813 
L 489.143125 458.033813 
" style="fill: none; stroke: #000000; stroke-width: 0.8; stroke-linejoin: miter; stroke-linecap: square"/>
   </g>
   <g id="PathCollection_1">
    <defs>
     <path id="m40505984fb" d="M 0 3.872983 
C 1.027127 3.872983 2.012324 3.464901 2.738613 2.738613 
C 3.464901 2.012324 3.872983 1.027127 3.872983 0 
C 3.872983 -1.027127 3.464901 -2.012324 2.738613 -2.738613 
C 2.012324 -3.464901 1.027127 -3.872983 0 -3.872983 
C -1.027127 -3.872983 -2.012324 -3.464901 -2.738613 -2.738613 
C -3.464901 -2.012324 -3.872983 -1.027127 -3.872983 0 
C -3.872983 1.027127 -3.464901 2.012324 -2.738613 2.738613 
C -2.012324 3.464901 -1.027127 3.872983 0 3.872983 
z
" style="stroke: #333333; stroke-opacity: 0.85; stroke-width: 0.5"/>
    </defs>
    <g clip-path="url(#p78179d544d)">
     <use xlink:href="#m40505984fb" x="63.030125" y="436.830213" style="fill: #ffc107; fill-opacity: 0.85; stroke: #333333; stroke-opacity: 0.85; stroke-width: 0.5"/>
     <use xlink:href="#m40505984fb" x="63.030125" y="436.830213" style="fill: #ffc107; fill-opacity: 0.85; stroke: #333333; stroke-opacity: 0.85; stroke-width: 0.5"/>
    </g>
   </g>
   <g id="PathCollection_2">
    <defs>
     <path id="m9ff460998e" d="M 0 3.872983 
C 1.027127 3.872983 2.012324 3.464901 2.738613 2.738613 
C 3.464901 2.012324 3.872983 1.027127 3.872983 0 
C 3.872983 -1.027127 3.464901 -2.012324 2.738613 -2.738613 
C 2.012324 -3.464901 1.027127 -3.872983 0 -3.872983 
C -1.027127 -3.872983 -2.012324 -3.464901 -2.738613 -2.738613 
C -3.464901 -2.012324 -3.872983 -1.027127 -3.872983 0 
C -3.872983 1.027127 -3.464901 2.012324 -2.738613 2.738613 
C -2.012324 3.464901 -1.027127 3.872983 0 3.872983 
z
" style="stroke: #333333; stroke-opacity: 0.85; stroke-width: 0.5"/>
    </defs>
    <g clip-path="url(#p78179d544d)">
     <use xlink:href="#m9ff460998e" x="197.592125" y="309.608613" style="fill: #ff5722; fill-opacity: 0.85; stroke: #333333; stroke-opacity: 0.85; stroke-width: 0.5"/>
     <use xlink:href="#m9ff460998e" x="197.592125" y="309.608613" style="fill: #ff5722; fill-opacity: 0.85; stroke: #333333; stroke-opacity: 0.85; stroke-width: 0.5"/>
     <use xlink:href="#m9ff460998e" x="242.446125" y="267.201413" style="fill: #ff5722; fill-opacity: 0.85; stroke: #333333; stroke-opacity: 0.85; stroke-width: 0.5"/>
     <use xlink:href="#m9ff460998e" x="197.592125" y="309.608613" style="fill: #ff5722; fill-opacity: 0.85; stroke: #333333; stroke-opacity: 0.85; stroke-width: 0.5"/>
     <use xlink:href="#m9ff460998e" x="242.446125" y="267.201413" style="fill: #ff5722; fill-opacity: 0.85; stroke: #333333; stroke-opacity: 0.85; stroke-width: 0.5"/>
     <use xlink:href="#m9ff460998e" x="242.446125" y="267.201413" style="fill: #ff5722; fill-opacity: 0.85; stroke: #333333; stroke-opacity: 0.85; stroke-width: 0.5"/>
     <use xlink:href="#m9ff460998e" x="242.446125" y="267.201413" style="fill: #ff5722; fill-opacity: 0.85; stroke: #333333; stroke-opacity: 0.85; stroke-width: 0.5"/>
     <use xlink:href="#m9ff460998e" x="242.446125" y="267.201413" style="fill: #ff5722; fill-opacity: 0.85; stroke: #333333; stroke-opacity: 0.85; stroke-width: 0.5"/>
     <use xlink:href="#m9ff460998e" x="152.738125" y="352.015813" style="fill: #ff5722; fill-opacity: 0.85; stroke: #333333; stroke-opacity: 0.85; stroke-width: 0.5"/>
     <use xlink:href="#m9ff460998e" x="152.738125" y="352.015813" style="fill: #ff5722; fill-opacity: 0.85; stroke: #333333; stroke-opacity: 0.85; stroke-width: 0.5"/>
     <use xlink:href="#m9ff460998e" x="242.446125" y="267.201413" style="fill: #ff5722; fill-opacity: 0.85; stroke: #333333; stroke-opacity: 0.85; stroke-width: 0.5"/>
     <use xlink:href="#m9ff460998e" x="242.446125" y="267.201413" style="fill: #ff5722; fill-opacity: 0.85; stroke: #333333; stroke-opacity: 0.85; stroke-width: 0.5"/>
     <use xlink:href="#m9ff460998e" x="107.884125" y="394.423013" style="fill: #ff5722; fill-opacity: 0.85; stroke: #333333; stroke-opacity: 0.85; stroke-width: 0.5"/>
     <use xlink:href="#m9ff460998e" x="242.446125" y="267.201413" style="fill: #ff5722; fill-opacity: 0.85; stroke: #333333; stroke-opacity: 0.85; stroke-width: 0.5"/>
     <use xlink:href="#m9ff460998e" x="107.884125" y="394.423013" style="fill: #ff5722; fill-opacity: 0.85; stroke: #333333; stroke-opacity: 0.85; stroke-width: 0.5"/>
     <use xlink:href="#m9ff460998e" x="152.738125" y="352.015813" style="fill: #ff5722; fill-opacity: 0.85; stroke: #333333; stroke-opacity: 0.85; stroke-width: 0.5"/>
    </g>
   </g>
   <g id="PathCollection_3">
    <defs>
     <path id="m12e1a63afe" d="M 0 3.872983 
C 1.027127 3.872983 2.012324 3.464901 2.738613 2.738613 
C 3.464901 2.012324 3.872983 1.027127 3.872983 0 
C 3.872983 -1.027127 3.464901 -2.012324 2.738613 -2.738613 
C 2.012324 -3.464901 1.027127 -3.872983 0 -3.872983 
C -1.027127 -3.872983 -2.012324 -3.464901 -2.738613 -2.738613 
C -3.464901 -2.012324 -3.872983 -1.027127 -3.872983 0 
C -3.872983 1.027127 -3.464901 2.012324 -2.738613 2.738613 
C -2.012324 3.464901 -1.027127 3.872983 0 3.872983 
z
" style="stroke: #333333; stroke-opacity: 0.85; stroke-width: 0.5"/>
    </defs>
    <g clip-path="url(#p78179d544d)">
     <use xlink:href="#m12e1a63afe" x="377.008125" y="139.979812" style="fill: #b71c1c; fill-opacity: 0.85; stroke: #333333; stroke-opacity: 0.85; stroke-width: 0.5"/>
     <use xlink:href="#m12e1a63afe" x="466.716125" y="55.165413" style="fill: #b71c1c; fill-opacity: 0.85; stroke: #333333; stroke-opacity: 0.85; stroke-width: 0.5"/>
     <use xlink:href="#m12e1a63afe" x="377.008125" y="139.979812" style="fill: #b71c1c; fill-opacity: 0.85; stroke: #333333; stroke-opacity: 0.85; stroke-width: 0.5"/>
     <use xlink:href="#m12e1a63afe" x="287.300125" y="224.794213" style="fill: #b71c1c; fill-opacity: 0.85; stroke: #333333; stroke-opacity: 0.85; stroke-width: 0.5"/>
     <use xlink:href="#m12e1a63afe" x="466.716125" y="55.165413" style="fill: #b71c1c; fill-opacity: 0.85; stroke: #333333; stroke-opacity: 0.85; stroke-width: 0.5"/>
     <use xlink:href="#m12e1a63afe" x="287.300125" y="224.794213" style="fill: #b71c1c; fill-opacity: 0.85; stroke: #333333; stroke-opacity: 0.85; stroke-width: 0.5"/>
     <use xlink:href="#m12e1a63afe" x="332.154125" y="182.387012" style="fill: #b71c1c; fill-opacity: 0.85; stroke: #333333; stroke-opacity: 0.85; stroke-width: 0.5"/>
     <use xlink:href="#m12e1a63afe" x="466.716125" y="55.165413" style="fill: #b71c1c; fill-opacity: 0.85; stroke: #333333; stroke-opacity: 0.85; stroke-width: 0.5"/>
     <use xlink:href="#m12e1a63afe" x="466.716125" y="55.165413" style="fill: #b71c1c; fill-opacity: 0.85; stroke: #333333; stroke-opacity: 0.85; stroke-width: 0.5"/>
     <use xlink:href="#m12e1a63afe" x="287.300125" y="224.794213" style="fill: #b71c1c; fill-opacity: 0.85; stroke: #333333; stroke-opacity: 0.85; stroke-width: 0.5"/>
     <use xlink:href="#m12e1a63afe" x="332.154125" y="182.387012" style="fill: #b71c1c; fill-opacity: 0.85; stroke: #333333; stroke-opacity: 0.85; stroke-width: 0.5"/>
     <use xlink:href="#m12e1a63afe" x="377.008125" y="139.979812" style="fill: #b71c1c; fill-opacity: 0.85; stroke: #333333; stroke-opacity: 0.85; stroke-width: 0.5"/>
     <use xlink:href="#m12e1a63afe" x="377.008125" y="139.979812" style="fill: #b71c1c; fill-opacity: 0.85; stroke: #333333; stroke-opacity: 0.85; stroke-width: 0.5"/>
     <use xlink:href="#m12e1a63afe" x="332.154125" y="182.387012" style="fill: #b71c1c; fill-opacity: 0.85; stroke: #333333; stroke-opacity: 0.85; stroke-width: 0.5"/>
     <use xlink:href="#m12e1a63afe" x="332.154125" y="182.387012" style="fill: #b71c1c; fill-opacity: 0.85; stroke: #333333; stroke-opacity: 0.85; stroke-width: 0.5"/>
     <use xlink:href="#m12e1a63afe" x="377.008125" y="139.979812" style="fill: #b71c1c; fill-opacity: 0.85; stroke: #333333; stroke-opacity: 0.85; stroke-width: 0.5"/>
     <use xlink:href="#m12e1a63afe" x="287.300125" y="224.794213" style="fill: #b71c1c; fill-opacity: 0.85; stroke: #333333; stroke-opacity: 0.85; stroke-width: 0.5"/>
     <use xlink:href="#m12e1a63afe" x="332.154125" y="182.387012" style="fill: #b71c1c; fill-opacity: 0.85; stroke: #333333; stroke-opacity: 0.85; stroke-width: 0.5"/>
     <use xlink:href="#m12e1a63afe" x="377.008125" y="139.979812" style="fill: #b71c1c; fill-opacity: 0.85; stroke: #333333; stroke-opacity: 0.85; stroke-width: 0.5"/>
     <use xlink:href="#m12e1a63afe" x="287.300125" y="224.794213" style="fill: #b71c1c; fill-opacity: 0.85; stroke: #333333; stroke-opacity: 0.85; stroke-width: 0.5"/>
     <use xlink:href="#m12e1a63afe" x="287.300125" y="224.794213" style="fill: #b71c1c; fill-opacity: 0.85; stroke: #333333; stroke-opacity: 0.85; stroke-width: 0.5"/>
     <use xlink:href="#m12e1a63afe" x="466.716125" y="55.165413" style="fill: #b71c1c; fill-opacity: 0.85; stroke: #333333; stroke-opacity: 0.85; stroke-width: 0.5"/>
     <use xlink:href="#m12e1a63afe" x="332.154125" y="182.387012" style="fill: #b71c1c; fill-opacity: 0.85; stroke: #333333; stroke-opacity: 0.85; stroke-width: 0.5"/>
     <use xlink:href="#m12e1a63afe" x="377.008125" y="139.979812" style="fill: #b71c1c; fill-opacity: 0.85; stroke: #333333; stroke-opacity: 0.85; stroke-width: 0.5"/>
     <use xlink:href="#m12e1a63afe" x="332.154125" y="182.387012" style="fill: #b71c1c; fill-opacity: 0.85; stroke: #333333; stroke-opacity: 0.85; stroke-width: 0.5"/>
     <use xlink:href="#m12e1a63afe" x="332.154125" y="182.387012" style="fill: #b71c1c; fill-opacity: 0.85; stroke: #333333; stroke-opacity: 0.85; stroke-width: 0.5"/>
     <use xlink:href="#m12e1a63afe" x="377.008125" y="139.979812" style="fill: #b71c1c; fill-opacity: 0.85; stroke: #333333; stroke-opacity: 0.85; stroke-width: 0.5"/>
    </g>
   </g>
   <g id="text_13">
    <!-- All 45 cases on diagonal (no unknown values in v0.2.0 corpus) -->
    <g style="fill: #555555" transform="translate(49.573925 52.002879) scale(0.07 -0.07)">
     <defs>
      <path id="DejaVuSans-Oblique-41" d="M 2356 4666 
L 3072 4666 
L 3938 0 
L 3278 0 
L 3084 1197 
L 984 1197 
L 325 0 
L -341 0 
L 2356 4666 
z
M 2584 4044 
L 1275 1722 
L 2988 1722 
L 2584 4044 
z
" transform="scale(0.015625)"/>
      <path id="DejaVuSans-Oblique-6c" d="M 1172 4863 
L 1747 4863 
L 800 0 
L 225 0 
L 1172 4863 
z
" transform="scale(0.015625)"/>
      <path id="DejaVuSans-Oblique-20" transform="scale(0.015625)"/>
      <path id="DejaVuSans-Oblique-34" d="M 2753 4666 
L 3547 4666 
L 2950 1625 
L 3616 1625 
L 3513 1100 
L 2847 1100 
L 2638 0 
L 2009 0 
L 2222 1100 
L 116 1100 
L 238 1709 
L 2753 4666 
z
M 2809 4116 
L 728 1625 
L 2322 1625 
L 2809 4116 
z
" transform="scale(0.015625)"/>
      <path id="DejaVuSans-Oblique-35" d="M 3719 4666 
L 3622 4141 
L 1691 4141 
L 1466 2988 
Q 1609 3034 1757 3056 
Q 1906 3078 2059 3078 
Q 2706 3078 3081 2731 
Q 3456 2384 3456 1791 
Q 3456 1375 3264 994 
Q 3072 613 2719 325 
Q 2469 125 2108 17 
Q 1747 -91 1319 -91 
Q 1038 -91 744 -41 
Q 450 9 128 109 
L 244 697 
Q 531 556 820 486 
Q 1109 416 1403 416 
Q 2013 416 2411 781 
Q 2809 1147 2809 1697 
Q 2809 2103 2548 2328 
Q 2288 2553 1819 2553 
Q 1572 2553 1305 2495 
Q 1038 2438 756 2322 
L 1209 4666 
L 3719 4666 
z
" transform="scale(0.015625)"/>
      <path id="DejaVuSans-Oblique-63" d="M 3431 3366 
L 3316 2797 
Q 3109 2947 2876 3022 
Q 2644 3097 2394 3097 
Q 2119 3097 1870 3000 
Q 1622 2903 1453 2725 
Q 1184 2453 1037 2087 
Q 891 1722 891 1331 
Q 891 859 1127 628 
Q 1363 397 1844 397 
Q 2081 397 2348 469 
Q 2616 541 2906 684 
L 2797 116 
Q 2547 13 2283 -39 
Q 2019 -91 1741 -91 
Q 1044 -91 669 257 
Q 294 606 294 1253 
Q 294 1797 489 2255 
Q 684 2713 1069 3078 
Q 1331 3328 1684 3456 
Q 2038 3584 2456 3584 
Q 2700 3584 2940 3529 
Q 3181 3475 3431 3366 
z
" transform="scale(0.015625)"/>
      <path id="DejaVuSans-Oblique-61" d="M 3438 1997 
L 3047 0 
L 2472 0 
L 2578 531 
Q 2325 219 2001 64 
Q 1678 -91 1281 -91 
Q 834 -91 548 182 
Q 263 456 263 884 
Q 263 1497 752 1853 
Q 1241 2209 2100 2209 
L 2900 2209 
L 2931 2363 
Q 2938 2388 2941 2417 
Q 2944 2447 2944 2509 
Q 2944 2788 2717 2942 
Q 2491 3097 2081 3097 
Q 1800 3097 1504 3025 
Q 1209 2953 897 2809 
L 997 3341 
Q 1322 3463 1633 3523 
Q 1944 3584 2234 3584 
Q 2853 3584 3176 3315 
Q 3500 3047 3500 2534 
Q 3500 2431 3484 2292 
Q 3469 2153 3438 1997 
z
M 2816 1759 
L 2241 1759 
Q 1534 1759 1195 1570 
Q 856 1381 856 984 
Q 856 709 1029 553 
Q 1203 397 1509 397 
Q 1978 397 2328 733 
Q 2678 1069 2791 1631 
L 2816 1759 
z
" transform="scale(0.015625)"/>
      <path id="DejaVuSans-Oblique-73" d="M 3200 3397 
L 3091 2853 
Q 2863 2978 2609 3040 
Q 2356 3103 2088 3103 
Q 1634 3103 1373 2948 
Q 1113 2794 1113 2528 
Q 1113 2219 1719 2053 
Q 1766 2041 1788 2034 
L 1972 1978 
Q 2547 1819 2739 1644 
Q 2931 1469 2931 1166 
Q 2931 609 2489 259 
Q 2047 -91 1331 -91 
Q 1053 -91 747 -37 
Q 441 16 72 128 
L 184 722 
Q 500 559 806 475 
Q 1113 391 1394 391 
Q 1816 391 2080 572 
Q 2344 753 2344 1031 
Q 2344 1331 1650 1516 
L 1591 1531 
L 1394 1581 
Q 956 1697 753 1886 
Q 550 2075 550 2369 
Q 550 2928 970 3256 
Q 1391 3584 2113 3584 
Q 2397 3584 2667 3537 
Q 2938 3491 3200 3397 
z
" transform="scale(0.015625)"/>
      <path id="DejaVuSans-Oblique-65" d="M 3078 2063 
Q 3088 2113 3092 2166 
Q 3097 2219 3097 2272 
Q 3097 2653 2873 2875 
Q 2650 3097 2266 3097 
Q 1838 3097 1509 2826 
Q 1181 2556 1013 2059 
L 3078 2063 
z
M 3578 1613 
L 903 1613 
Q 884 1494 878 1425 
Q 872 1356 872 1306 
Q 872 872 1139 634 
Q 1406 397 1894 397 
Q 2269 397 2603 481 
Q 2938 566 3225 728 
L 3116 159 
Q 2806 34 2476 -28 
Q 2147 -91 1806 -91 
Q 1078 -91 686 257 
Q 294 606 294 1247 
Q 294 1794 489 2264 
Q 684 2734 1063 3103 
Q 1306 3334 1642 3459 
Q 1978 3584 2356 3584 
Q 2950 3584 3301 3228 
Q 3653 2872 3653 2272 
Q 3653 2128 3634 1964 
Q 3616 1800 3578 1613 
z
" transform="scale(0.015625)"/>
      <path id="DejaVuSans-Oblique-6f" d="M 1625 -91 
Q 1009 -91 651 289 
Q 294 669 294 1325 
Q 294 1706 417 2101 
Q 541 2497 738 2766 
Q 1047 3184 1428 3384 
Q 1809 3584 2291 3584 
Q 2888 3584 3255 3212 
Q 3622 2841 3622 2241 
Q 3622 1825 3500 1412 
Q 3378 1000 3181 728 
Q 2875 309 2494 109 
Q 2113 -91 1625 -91 
z
M 891 1344 
Q 891 869 1089 633 
Q 1288 397 1691 397 
Q 2269 397 2648 901 
Q 3028 1406 3028 2181 
Q 3028 2634 2825 2865 
Q 2622 3097 2228 3097 
Q 1903 3097 1650 2945 
Q 1397 2794 1197 2484 
Q 1050 2253 970 1956 
Q 891 1659 891 1344 
z
" transform="scale(0.015625)"/>
      <path id="DejaVuSans-Oblique-6e" d="M 3566 2113 
L 3156 0 
L 2578 0 
L 2988 2091 
Q 3016 2238 3031 2350 
Q 3047 2463 3047 2528 
Q 3047 2791 2881 2937 
Q 2716 3084 2419 3084 
Q 1956 3084 1622 2776 
Q 1288 2469 1184 1941 
L 800 0 
L 225 0 
L 903 3500 
L 1478 3500 
L 1363 2950 
Q 1603 3253 1940 3418 
Q 2278 3584 2650 3584 
Q 3113 3584 3367 3334 
Q 3622 3084 3622 2631 
Q 3622 2519 3608 2391 
Q 3594 2263 3566 2113 
z
" transform="scale(0.015625)"/>
      <path id="DejaVuSans-Oblique-64" d="M 2675 525 
Q 2444 222 2128 65 
Q 1813 -91 1428 -91 
Q 903 -91 598 267 
Q 294 625 294 1247 
Q 294 1766 478 2236 
Q 663 2706 1013 3078 
Q 1244 3325 1534 3454 
Q 1825 3584 2144 3584 
Q 2481 3584 2739 3421 
Q 2997 3259 3138 2956 
L 3513 4863 
L 4091 4863 
L 3144 0 
L 2566 0 
L 2675 525 
z
M 891 1350 
Q 891 897 1095 644 
Q 1300 391 1663 391 
Q 1931 391 2161 520 
Q 2391 650 2566 903 
Q 2750 1166 2856 1509 
Q 2963 1853 2963 2188 
Q 2963 2622 2758 2865 
Q 2553 3109 2194 3109 
Q 1922 3109 1687 2981 
Q 1453 2853 1288 2613 
Q 1106 2353 998 2009 
Q 891 1666 891 1350 
z
" transform="scale(0.015625)"/>
      <path id="DejaVuSans-Oblique-69" d="M 1172 4863 
L 1747 4863 
L 1606 4134 
L 1031 4134 
L 1172 4863 
z
M 909 3500 
L 1484 3500 
L 800 0 
L 225 0 
L 909 3500 
z
" transform="scale(0.015625)"/>
      <path id="DejaVuSans-Oblique-67" d="M 3816 3500 
L 3219 434 
Q 3047 -456 2561 -893 
Q 2075 -1331 1253 -1331 
Q 950 -1331 690 -1286 
Q 431 -1241 206 -1147 
L 313 -588 
Q 525 -725 762 -790 
Q 1000 -856 1269 -856 
Q 1816 -856 2167 -557 
Q 2519 -259 2631 300 
L 2681 563 
Q 2441 288 2122 144 
Q 1803 0 1434 0 
Q 903 0 598 351 
Q 294 703 294 1319 
Q 294 1803 478 2267 
Q 663 2731 997 3091 
Q 1219 3328 1514 3456 
Q 1809 3584 2131 3584 
Q 2484 3584 2746 3420 
Q 3009 3256 3138 2956 
L 3238 3500 
L 3816 3500 
z
M 2950 2216 
Q 2950 2641 2750 2872 
Q 2550 3103 2181 3103 
Q 1953 3103 1747 3012 
Q 1541 2922 1394 2759 
Q 1156 2491 1023 2127 
Q 891 1763 891 1375 
Q 891 944 1092 712 
Q 1294 481 1672 481 
Q 2219 481 2584 976 
Q 2950 1472 2950 2216 
z
" transform="scale(0.015625)"/>
      <path id="DejaVuSans-Oblique-28" d="M 2731 4856 
Q 1903 3822 1495 2892 
Q 1088 1963 1088 1100 
Q 1088 606 1206 120 
Q 1325 -366 1563 -844 
L 1063 -844 
Q 775 -306 634 201 
Q 494 709 494 1197 
Q 494 2125 923 3036 
Q 1353 3947 2222 4856 
L 2731 4856 
z
" transform="scale(0.015625)"/>
      <path id="DejaVuSans-Oblique-75" d="M 428 1388 
L 838 3500 
L 1416 3500 
L 1006 1409 
Q 975 1256 961 1147 
Q 947 1038 947 966 
Q 947 700 1109 554 
Q 1272 409 1569 409 
Q 2031 409 2368 721 
Q 2706 1034 2809 1563 
L 3194 3500 
L 3769 3500 
L 3091 0 
L 2516 0 
L 2631 550 
Q 2388 244 2052 76 
Q 1716 -91 1338 -91 
Q 878 -91 622 161 
Q 366 413 366 863 
Q 366 956 381 1097 
Q 397 1238 428 1388 
z
" transform="scale(0.015625)"/>
      <path id="DejaVuSans-Oblique-6b" d="M 1172 4863 
L 1747 4863 
L 1197 2028 
L 3169 3500 
L 3916 3500 
L 1716 1825 
L 3322 0 
L 2625 0 
L 1131 1709 
L 800 0 
L 225 0 
L 1172 4863 
z
" transform="scale(0.015625)"/>
      <path id="DejaVuSans-Oblique-77" d="M 544 3500 
L 1113 3500 
L 1259 684 
L 2566 3500 
L 3231 3500 
L 3425 684 
L 4666 3500 
L 5241 3500 
L 3641 0 
L 2969 0 
L 2797 2900 
L 1459 0 
L 781 0 
L 544 3500 
z
" transform="scale(0.015625)"/>
      <path id="DejaVuSans-Oblique-76" d="M 459 3500 
L 1069 3500 
L 1581 525 
L 3256 3500 
L 3866 3500 
L 1875 0 
L 1100 0 
L 459 3500 
z
" transform="scale(0.015625)"/>
      <path id="DejaVuSans-Oblique-30" d="M 2444 4750 
Q 3078 4750 3414 4328 
Q 3750 3906 3750 3116 
Q 3750 2516 3592 1923 
Q 3434 1331 3150 863 
Q 2859 394 2467 151 
Q 2075 -91 1600 -91 
Q 988 -91 653 334 
Q 319 759 319 1544 
Q 319 2138 480 2733 
Q 641 3328 928 3794 
Q 1216 4263 1602 4506 
Q 1988 4750 2444 4750 
z
M 2406 4250 
Q 2169 4250 1955 4123 
Q 1741 3997 1569 3750 
Q 1281 3338 1111 2720 
Q 941 2103 941 1453 
Q 941 938 1123 673 
Q 1306 409 1663 409 
Q 1913 409 2125 536 
Q 2338 663 2509 909 
Q 2794 1319 2961 1936 
Q 3128 2553 3128 3206 
Q 3128 3722 2945 3986 
Q 2763 4250 2406 4250 
z
" transform="scale(0.015625)"/>
      <path id="DejaVuSans-Oblique-2e" d="M 525 794 
L 1184 794 
L 1031 0 
L 372 0 
L 525 794 
z
" transform="scale(0.015625)"/>
      <path id="DejaVuSans-Oblique-32" d="M 2950 2253 
L 934 525 
L 3163 525 
L 3053 0 
L 25 0 
L 128 531 
L 2234 2338 
Q 2656 2703 2832 2979 
Q 3009 3256 3009 3547 
Q 3009 3850 2796 4040 
Q 2584 4231 2241 4231 
Q 1944 4231 1581 4125 
Q 1219 4019 806 3816 
L 922 4441 
Q 1309 4594 1662 4672 
Q 2016 4750 2316 4750 
Q 2928 4750 3301 4425 
Q 3675 4100 3675 3572 
Q 3675 3216 3497 2892 
Q 3319 2569 2950 2253 
z
" transform="scale(0.015625)"/>
      <path id="DejaVuSans-Oblique-72" d="M 2853 2969 
Q 2766 3016 2653 3041 
Q 2541 3066 2413 3066 
Q 1953 3066 1609 2717 
Q 1266 2369 1153 1784 
L 800 0 
L 225 0 
L 909 3500 
L 1484 3500 
L 1375 2956 
Q 1603 3259 1920 3421 
Q 2238 3584 2597 3584 
Q 2691 3584 2781 3573 
Q 2872 3563 2963 3538 
L 2853 2969 
z
" transform="scale(0.015625)"/>
      <path id="DejaVuSans-Oblique-70" d="M 3175 2156 
Q 3175 2616 2975 2859 
Q 2775 3103 2400 3103 
Q 2144 3103 1911 2972 
Q 1678 2841 1497 2591 
Q 1319 2344 1212 1994 
Q 1106 1644 1106 1300 
Q 1106 863 1306 627 
Q 1506 391 1875 391 
Q 2147 391 2380 519 
Q 2613 647 2778 891 
Q 2956 1147 3065 1494 
Q 3175 1841 3175 2156 
z
M 1394 2969 
Q 1625 3272 1939 3428 
Q 2253 3584 2638 3584 
Q 3175 3584 3472 3232 
Q 3769 2881 3769 2247 
Q 3769 1728 3584 1258 
Q 3400 788 3053 416 
Q 2822 169 2531 39 
Q 2241 -91 1919 -91 
Q 1547 -91 1294 64 
Q 1041 219 916 525 
L 556 -1331 
L -19 -1331 
L 922 3500 
L 1497 3500 
L 1394 2969 
z
" transform="scale(0.015625)"/>
      <path id="DejaVuSans-Oblique-29" d="M -397 -844 
Q 434 191 840 1120 
Q 1247 2050 1247 2913 
Q 1247 3406 1130 3892 
Q 1013 4378 775 4856 
L 1275 4856 
Q 1563 4316 1703 3812 
Q 1844 3309 1844 2822 
Q 1844 1891 1411 973 
Q 978 56 116 -844 
L -397 -844 
z
" transform="scale(0.015625)"/>
     </defs>
     <use xlink:href="#DejaVuSans-Oblique-41"/>
     <use xlink:href="#DejaVuSans-Oblique-6c" transform="translate(68.408203 0)"/>
     <use xlink:href="#DejaVuSans-Oblique-6c" transform="translate(96.191406 0)"/>
     <use xlink:href="#DejaVuSans-Oblique-20" transform="translate(123.974609 0)"/>
     <use xlink:href="#DejaVuSans-Oblique-34" transform="translate(155.761719 0)"/>
     <use xlink:href="#DejaVuSans-Oblique-35" transform="translate(219.384766 0)"/>
     <use xlink:href="#DejaVuSans-Oblique-20" transform="translate(283.007812 0)"/>
     <use xlink:href="#DejaVuSans-Oblique-63" transform="translate(314.794922 0)"/>
     <use xlink:href="#DejaVuSans-Oblique-61" transform="translate(369.775391 0)"/>
     <use xlink:href="#DejaVuSans-Oblique-73" transform="translate(431.054688 0)"/>
     <use xlink:href="#DejaVuSans-Oblique-65" transform="translate(483.154297 0)"/>
     <use xlink:href="#DejaVuSans-Oblique-73" transform="translate(544.677734 0)"/>
     <use xlink:href="#DejaVuSans-Oblique-20" transform="translate(596.777344 0)"/>
     <use xlink:href="#DejaVuSans-Oblique-6f" transform="translate(628.564453 0)"/>
     <use xlink:href="#DejaVuSans-Oblique-6e" transform="translate(689.746094 0)"/>
     <use xlink:href="#DejaVuSans-Oblique-20" transform="translate(753.125 0)"/>
     <use xlink:href="#DejaVuSans-Oblique-64" transform="translate(784.912109 0)"/>
     <use xlink:href="#DejaVuSans-Oblique-69" transform="translate(848.388672 0)"/>
     <use xlink:href="#DejaVuSans-Oblique-61" transform="translate(876.171875 0)"/>
     <use xlink:href="#DejaVuSans-Oblique-67" transform="translate(937.451172 0)"/>
     <use xlink:href="#DejaVuSans-Oblique-6f" transform="translate(1000.927734 0)"/>
     <use xlink:href="#DejaVuSans-Oblique-6e" transform="translate(1062.109375 0)"/>
     <use xlink:href="#DejaVuSans-Oblique-61" transform="translate(1125.488281 0)"/>
     <use xlink:href="#DejaVuSans-Oblique-6c" transform="translate(1186.767578 0)"/>
     <use xlink:href="#DejaVuSans-Oblique-20" transform="translate(1214.550781 0)"/>
     <use xlink:href="#DejaVuSans-Oblique-28" transform="translate(1246.337891 0)"/>
     <use xlink:href="#DejaVuSans-Oblique-6e" transform="translate(1285.351562 0)"/>
     <use xlink:href="#DejaVuSans-Oblique-6f" transform="translate(1348.730469 0)"/>
     <use xlink:href="#DejaVuSans-Oblique-20" transform="translate(1409.912109 0)"/>
     <use xlink:href="#DejaVuSans-Oblique-75" transform="translate(1441.699219 0)"/>
     <use xlink:href="#DejaVuSans-Oblique-6e" transform="translate(1505.078125 0)"/>
     <use xlink:href="#DejaVuSans-Oblique-6b" transform="translate(1568.457031 0)"/>
     <use xlink:href="#DejaVuSans-Oblique-6e" transform="translate(1626.367188 0)"/>
     <use xlink:href="#DejaVuSans-Oblique-6f" transform="translate(1689.746094 0)"/>
     <use xlink:href="#DejaVuSans-Oblique-77" transform="translate(1750.927734 0)"/>
     <use xlink:href="#DejaVuSans-Oblique-6e" transform="translate(1832.714844 0)"/>
     <use xlink:href="#DejaVuSans-Oblique-20" transform="translate(1896.09375 0)"/>
     <use xlink:href="#DejaVuSans-Oblique-76" transform="translate(1927.880859 0)"/>
     <use xlink:href="#DejaVuSans-Oblique-61" transform="translate(1987.060547 0)"/>
     <use xlink:href="#DejaVuSans-Oblique-6c" transform="translate(2048.339844 0)"/>
     <use xlink:href="#DejaVuSans-Oblique-75" transform="translate(2076.123047 0)"/>
     <use xlink:href="#DejaVuSans-Oblique-65" transform="translate(2139.501953 0)"/>
     <use xlink:href="#DejaVuSans-Oblique-73" transform="translate(2201.025391 0)"/>
     <use xlink:href="#DejaVuSans-Oblique-20" transform="translate(2253.125 0)"/>
     <use xlink:href="#DejaVuSans-Oblique-69" transform="translate(2284.912109 0)"/>
     <use xlink:href="#DejaVuSans-Oblique-6e" transform="translate(2312.695312 0)"/>
     <use xlink:href="#DejaVuSans-Oblique-20" transform="translate(2376.074219 0)"/>
     <use xlink:href="#DejaVuSans-Oblique-76" transform="translate(2407.861328 0)"/>
     <use xlink:href="#DejaVuSans-Oblique-30" transform="translate(2467.041016 0)"/>
     <use xlink:href="#DejaVuSans-Oblique-2e" transform="translate(2530.664062 0)"/>
     <use xlink:href="#DejaVuSans-Oblique-32" transform="translate(2562.451172 0)"/>
     <use xlink:href="#DejaVuSans-Oblique-2e" transform="translate(2626.074219 0)"/>
     <use xlink:href="#DejaVuSans-Oblique-30" transform="translate(2657.861328 0)"/>
     <use xlink:href="#DejaVuSans-Oblique-20" transform="translate(2721.484375 0)"/>
     <use xlink:href="#DejaVuSans-Oblique-63" transform="translate(2753.271484 0)"/>
     <use xlink:href="#DejaVuSans-Oblique-6f" transform="translate(2808.251953 0)"/>
     <use xlink:href="#DejaVuSans-Oblique-72" transform="translate(2869.433594 0)"/>
     <use xlink:href="#DejaVuSans-Oblique-70" transform="translate(2910.546875 0)"/>
     <use xlink:href="#DejaVuSans-Oblique-75" transform="translate(2974.023438 0)"/>
     <use xlink:href="#DejaVuSans-Oblique-73" transform="translate(3037.402344 0)"/>
     <use xlink:href="#DejaVuSans-Oblique-29" transform="translate(3089.501953 0)"/>
    </g>
   </g>
   <g id="text_14">
    <!-- Sensitivity Comparison Across Missing-Value Rules -->
    <g transform="translate(107.171797 15.558281) scale(0.11 -0.11)">
     <defs>
      <path id="DejaVuSans-Bold-53" d="M 3834 4519 
L 3834 3531 
Q 3450 3703 3084 3790 
Q 2719 3878 2394 3878 
Q 1963 3878 1756 3759 
Q 1550 3641 1550 3391 
Q 1550 3203 1689 3098 
Q 1828 2994 2194 2919 
L 2706 2816 
Q 3484 2659 3812 2340 
Q 4141 2022 4141 1434 
Q 4141 663 3683 286 
Q 3225 -91 2284 -91 
Q 1841 -91 1394 -6 
Q 947 78 500 244 
L 500 1259 
Q 947 1022 1364 901 
Q 1781 781 2169 781 
Q 2563 781 2772 912 
Q 2981 1044 2981 1288 
Q 2981 1506 2839 1625 
Q 2697 1744 2272 1838 
L 1806 1941 
Q 1106 2091 782 2419 
Q 459 2747 459 3303 
Q 459 4000 909 4375 
Q 1359 4750 2203 4750 
Q 2588 4750 2994 4692 
Q 3400 4634 3834 4519 
z
" transform="scale(0.015625)"/>
      <path id="DejaVuSans-Bold-65" d="M 4031 1759 
L 4031 1441 
L 1416 1441 
Q 1456 1047 1700 850 
Q 1944 653 2381 653 
Q 2734 653 3104 758 
Q 3475 863 3866 1075 
L 3866 213 
Q 3469 63 3072 -14 
Q 2675 -91 2278 -91 
Q 1328 -91 801 392 
Q 275 875 275 1747 
Q 275 2603 792 3093 
Q 1309 3584 2216 3584 
Q 3041 3584 3536 3087 
Q 4031 2591 4031 1759 
z
M 2881 2131 
Q 2881 2450 2695 2645 
Q 2509 2841 2209 2841 
Q 1884 2841 1681 2658 
Q 1478 2475 1428 2131 
L 2881 2131 
z
" transform="scale(0.015625)"/>
      <path id="DejaVuSans-Bold-6e" d="M 4056 2131 
L 4056 0 
L 2931 0 
L 2931 347 
L 2931 1631 
Q 2931 2084 2911 2256 
Q 2891 2428 2841 2509 
Q 2775 2619 2662 2680 
Q 2550 2741 2406 2741 
Q 2056 2741 1856 2470 
Q 1656 2200 1656 1722 
L 1656 0 
L 538 0 
L 538 3500 
L 1656 3500 
L 1656 2988 
Q 1909 3294 2193 3439 
Q 2478 3584 2822 3584 
Q 3428 3584 3742 3212 
Q 4056 2841 4056 2131 
z
" transform="scale(0.015625)"/>
      <path id="DejaVuSans-Bold-73" d="M 3272 3391 
L 3272 2541 
Q 2913 2691 2578 2766 
Q 2244 2841 1947 2841 
Q 1628 2841 1473 2761 
Q 1319 2681 1319 2516 
Q 1319 2381 1436 2309 
Q 1553 2238 1856 2203 
L 2053 2175 
Q 2913 2066 3209 1816 
Q 3506 1566 3506 1031 
Q 3506 472 3093 190 
Q 2681 -91 1863 -91 
Q 1516 -91 1145 -36 
Q 775 19 384 128 
L 384 978 
Q 719 816 1070 734 
Q 1422 653 1784 653 
Q 2113 653 2278 743 
Q 2444 834 2444 1013 
Q 2444 1163 2330 1236 
Q 2216 1309 1875 1350 
L 1678 1375 
Q 931 1469 631 1722 
Q 331 1975 331 2491 
Q 331 3047 712 3315 
Q 1094 3584 1881 3584 
Q 2191 3584 2531 3537 
Q 2872 3491 3272 3391 
z
" transform="scale(0.015625)"/>
      <path id="DejaVuSans-Bold-69" d="M 538 3500 
L 1656 3500 
L 1656 0 
L 538 0 
L 538 3500 
z
M 538 4863 
L 1656 4863 
L 1656 3950 
L 538 3950 
L 538 4863 
z
" transform="scale(0.015625)"/>
      <path id="DejaVuSans-Bold-74" d="M 1759 4494 
L 1759 3500 
L 2913 3500 
L 2913 2700 
L 1759 2700 
L 1759 1216 
Q 1759 972 1856 886 
Q 1953 800 2241 800 
L 2816 800 
L 2816 0 
L 1856 0 
Q 1194 0 917 276 
Q 641 553 641 1216 
L 641 2700 
L 84 2700 
L 84 3500 
L 641 3500 
L 641 4494 
L 1759 4494 
z
" transform="scale(0.015625)"/>
      <path id="DejaVuSans-Bold-76" d="M 97 3500 
L 1216 3500 
L 2088 1081 
L 2956 3500 
L 4078 3500 
L 2700 0 
L 1472 0 
L 97 3500 
z
" transform="scale(0.015625)"/>
      <path id="DejaVuSans-Bold-79" d="M 78 3500 
L 1197 3500 
L 2138 1125 
L 2938 3500 
L 4056 3500 
L 2584 -331 
Q 2363 -916 2067 -1148 
Q 1772 -1381 1288 -1381 
L 641 -1381 
L 641 -647 
L 991 -647 
Q 1275 -647 1404 -556 
Q 1534 -466 1606 -231 
L 1638 -134 
L 78 3500 
z
" transform="scale(0.015625)"/>
      <path id="DejaVuSans-Bold-20" transform="scale(0.015625)"/>
      <path id="DejaVuSans-Bold-43" d="M 4288 256 
Q 3956 84 3597 -3 
Q 3238 -91 2847 -91 
Q 1681 -91 1000 561 
Q 319 1213 319 2328 
Q 319 3447 1000 4098 
Q 1681 4750 2847 4750 
Q 3238 4750 3597 4662 
Q 3956 4575 4288 4403 
L 4288 3438 
Q 3953 3666 3628 3772 
Q 3303 3878 2944 3878 
Q 2300 3878 1931 3465 
Q 1563 3053 1563 2328 
Q 1563 1606 1931 1193 
Q 2300 781 2944 781 
Q 3303 781 3628 887 
Q 3953 994 4288 1222 
L 4288 256 
z
" transform="scale(0.015625)"/>
      <path id="DejaVuSans-Bold-6f" d="M 2203 2784 
Q 1831 2784 1636 2517 
Q 1441 2250 1441 1747 
Q 1441 1244 1636 976 
Q 1831 709 2203 709 
Q 2569 709 2762 976 
Q 2956 1244 2956 1747 
Q 2956 2250 2762 2517 
Q 2569 2784 2203 2784 
z
M 2203 3584 
Q 3106 3584 3614 3096 
Q 4122 2609 4122 1747 
Q 4122 884 3614 396 
Q 3106 -91 2203 -91 
Q 1297 -91 786 396 
Q 275 884 275 1747 
Q 275 2609 786 3096 
Q 1297 3584 2203 3584 
z
" transform="scale(0.015625)"/>
      <path id="DejaVuSans-Bold-6d" d="M 3781 2919 
Q 3994 3244 4286 3414 
Q 4578 3584 4928 3584 
Q 5531 3584 5847 3212 
Q 6163 2841 6163 2131 
L 6163 0 
L 5038 0 
L 5038 1825 
Q 5041 1866 5042 1909 
Q 5044 1953 5044 2034 
Q 5044 2406 4934 2573 
Q 4825 2741 4581 2741 
Q 4263 2741 4089 2478 
Q 3916 2216 3909 1719 
L 3909 0 
L 2784 0 
L 2784 1825 
Q 2784 2406 2684 2573 
Q 2584 2741 2328 2741 
Q 2006 2741 1831 2477 
Q 1656 2213 1656 1722 
L 1656 0 
L 531 0 
L 531 3500 
L 1656 3500 
L 1656 2988 
Q 1863 3284 2130 3434 
Q 2397 3584 2719 3584 
Q 3081 3584 3359 3409 
Q 3638 3234 3781 2919 
z
" transform="scale(0.015625)"/>
      <path id="DejaVuSans-Bold-70" d="M 1656 506 
L 1656 -1331 
L 538 -1331 
L 538 3500 
L 1656 3500 
L 1656 2988 
Q 1888 3294 2169 3439 
Q 2450 3584 2816 3584 
Q 3463 3584 3878 3070 
Q 4294 2556 4294 1747 
Q 4294 938 3878 423 
Q 3463 -91 2816 -91 
Q 2450 -91 2169 54 
Q 1888 200 1656 506 
z
M 2400 2772 
Q 2041 2772 1848 2508 
Q 1656 2244 1656 1747 
Q 1656 1250 1848 986 
Q 2041 722 2400 722 
Q 2759 722 2948 984 
Q 3138 1247 3138 1747 
Q 3138 2247 2948 2509 
Q 2759 2772 2400 2772 
z
" transform="scale(0.015625)"/>
      <path id="DejaVuSans-Bold-61" d="M 2106 1575 
Q 1756 1575 1579 1456 
Q 1403 1338 1403 1106 
Q 1403 894 1545 773 
Q 1688 653 1941 653 
Q 2256 653 2472 879 
Q 2688 1106 2688 1447 
L 2688 1575 
L 2106 1575 
z
M 3816 1997 
L 3816 0 
L 2688 0 
L 2688 519 
Q 2463 200 2181 54 
Q 1900 -91 1497 -91 
Q 953 -91 614 226 
Q 275 544 275 1050 
Q 275 1666 698 1953 
Q 1122 2241 2028 2241 
L 2688 2241 
L 2688 2328 
Q 2688 2594 2478 2717 
Q 2269 2841 1825 2841 
Q 1466 2841 1156 2769 
Q 847 2697 581 2553 
L 581 3406 
Q 941 3494 1303 3539 
Q 1666 3584 2028 3584 
Q 2975 3584 3395 3211 
Q 3816 2838 3816 1997 
z
" transform="scale(0.015625)"/>
      <path id="DejaVuSans-Bold-72" d="M 3138 2547 
Q 2991 2616 2845 2648 
Q 2700 2681 2553 2681 
Q 2122 2681 1889 2404 
Q 1656 2128 1656 1613 
L 1656 0 
L 538 0 
L 538 3500 
L 1656 3500 
L 1656 2925 
Q 1872 3269 2151 3426 
Q 2431 3584 2822 3584 
Q 2878 3584 2943 3579 
Q 3009 3575 3134 3559 
L 3138 2547 
z
" transform="scale(0.015625)"/>
      <path id="DejaVuSans-Bold-41" d="M 3419 850 
L 1538 850 
L 1241 0 
L 31 0 
L 1759 4666 
L 3194 4666 
L 4922 0 
L 3713 0 
L 3419 850 
z
M 1838 1716 
L 3116 1716 
L 2478 3572 
L 1838 1716 
z
" transform="scale(0.015625)"/>
      <path id="DejaVuSans-Bold-63" d="M 3366 3391 
L 3366 2478 
Q 3138 2634 2908 2709 
Q 2678 2784 2431 2784 
Q 1963 2784 1702 2511 
Q 1441 2238 1441 1747 
Q 1441 1256 1702 982 
Q 1963 709 2431 709 
Q 2694 709 2930 787 
Q 3166 866 3366 1019 
L 3366 103 
Q 3103 6 2833 -42 
Q 2563 -91 2291 -91 
Q 1344 -91 809 395 
Q 275 881 275 1747 
Q 275 2613 809 3098 
Q 1344 3584 2291 3584 
Q 2566 3584 2833 3536 
Q 3100 3488 3366 3391 
z
" transform="scale(0.015625)"/>
      <path id="DejaVuSans-Bold-4d" d="M 588 4666 
L 2119 4666 
L 3181 2169 
L 4250 4666 
L 5778 4666 
L 5778 0 
L 4641 0 
L 4641 3413 
L 3566 897 
L 2803 897 
L 1728 3413 
L 1728 0 
L 588 0 
L 588 4666 
z
" transform="scale(0.015625)"/>
      <path id="DejaVuSans-Bold-67" d="M 2919 594 
Q 2688 288 2409 144 
Q 2131 0 1766 0 
Q 1125 0 706 504 
Q 288 1009 288 1791 
Q 288 2575 706 3076 
Q 1125 3578 1766 3578 
Q 2131 3578 2409 3434 
Q 2688 3291 2919 2981 
L 2919 3500 
L 4044 3500 
L 4044 353 
Q 4044 -491 3511 -936 
Q 2978 -1381 1966 -1381 
Q 1638 -1381 1331 -1331 
Q 1025 -1281 716 -1178 
L 716 -306 
Q 1009 -475 1290 -558 
Q 1572 -641 1856 -641 
Q 2406 -641 2662 -400 
Q 2919 -159 2919 353 
L 2919 594 
z
M 2181 2772 
Q 1834 2772 1640 2515 
Q 1447 2259 1447 1791 
Q 1447 1309 1634 1061 
Q 1822 813 2181 813 
Q 2531 813 2725 1069 
Q 2919 1325 2919 1791 
Q 2919 2259 2725 2515 
Q 2531 2772 2181 2772 
z
" transform="scale(0.015625)"/>
      <path id="DejaVuSans-Bold-2d" d="M 347 2297 
L 2309 2297 
L 2309 1388 
L 347 1388 
L 347 2297 
z
" transform="scale(0.015625)"/>
      <path id="DejaVuSans-Bold-56" d="M 31 4666 
L 1241 4666 
L 2478 1222 
L 3713 4666 
L 4922 4666 
L 3194 0 
L 1759 0 
L 31 4666 
z
" transform="scale(0.015625)"/>
      <path id="DejaVuSans-Bold-6c" d="M 538 4863 
L 1656 4863 
L 1656 0 
L 538 0 
L 538 4863 
z
" transform="scale(0.015625)"/>
      <path id="DejaVuSans-Bold-75" d="M 500 1363 
L 500 3500 
L 1625 3500 
L 1625 3150 
Q 1625 2866 1622 2436 
Q 1619 2006 1619 1863 
Q 1619 1441 1641 1255 
Q 1663 1069 1716 984 
Q 1784 875 1895 815 
Q 2006 756 2150 756 
Q 2500 756 2700 1025 
Q 2900 1294 2900 1772 
L 2900 3500 
L 4019 3500 
L 4019 0 
L 2900 0 
L 2900 506 
Q 2647 200 2364 54 
Q 2081 -91 1741 -91 
Q 1134 -91 817 281 
Q 500 653 500 1363 
z
" transform="scale(0.015625)"/>
      <path id="DejaVuSans-Bold-52" d="M 2297 2597 
Q 2675 2597 2839 2737 
Q 3003 2878 3003 3200 
Q 3003 3519 2839 3656 
Q 2675 3794 2297 3794 
L 1791 3794 
L 1791 2597 
L 2297 2597 
z
M 1791 1766 
L 1791 0 
L 588 0 
L 588 4666 
L 2425 4666 
Q 3347 4666 3776 4356 
Q 4206 4047 4206 3378 
Q 4206 2916 3982 2619 
Q 3759 2322 3309 2181 
Q 3556 2125 3751 1926 
Q 3947 1728 4147 1325 
L 4800 0 
L 3519 0 
L 2950 1159 
Q 2778 1509 2601 1637 
Q 2425 1766 2131 1766 
L 1791 1766 
z
" transform="scale(0.015625)"/>
     </defs>
     <use xlink:href="#DejaVuSans-Bold-53"/>
     <use xlink:href="#DejaVuSans-Bold-65" transform="translate(72.021484 0)"/>
     <use xlink:href="#DejaVuSans-Bold-6e" transform="translate(139.84375 0)"/>
     <use xlink:href="#DejaVuSans-Bold-73" transform="translate(211.035156 0)"/>
     <use xlink:href="#DejaVuSans-Bold-69" transform="translate(270.556641 0)"/>
     <use xlink:href="#DejaVuSans-Bold-74" transform="translate(304.833984 0)"/>
     <use xlink:href="#DejaVuSans-Bold-69" transform="translate(352.636719 0)"/>
     <use xlink:href="#DejaVuSans-Bold-76" transform="translate(386.914062 0)"/>
     <use xlink:href="#DejaVuSans-Bold-69" transform="translate(452.099609 0)"/>
     <use xlink:href="#DejaVuSans-Bold-74" transform="translate(486.376953 0)"/>
     <use xlink:href="#DejaVuSans-Bold-79" transform="translate(534.179688 0)"/>
     <use xlink:href="#DejaVuSans-Bold-20" transform="translate(599.365234 0)"/>
     <use xlink:href="#DejaVuSans-Bold-43" transform="translate(634.179688 0)"/>
     <use xlink:href="#DejaVuSans-Bold-6f" transform="translate(707.568359 0)"/>
     <use xlink:href="#DejaVuSans-Bold-6d" transform="translate(776.269531 0)"/>
     <use xlink:href="#DejaVuSans-Bold-70" transform="translate(880.46875 0)"/>
     <use xlink:href="#DejaVuSans-Bold-61" transform="translate(952.050781 0)"/>
     <use xlink:href="#DejaVuSans-Bold-72" transform="translate(1019.53125 0)"/>
     <use xlink:href="#DejaVuSans-Bold-69" transform="translate(1068.847656 0)"/>
     <use xlink:href="#DejaVuSans-Bold-73" transform="translate(1103.125 0)"/>
     <use xlink:href="#DejaVuSans-Bold-6f" transform="translate(1162.646484 0)"/>
     <use xlink:href="#DejaVuSans-Bold-6e" transform="translate(1231.347656 0)"/>
     <use xlink:href="#DejaVuSans-Bold-20" transform="translate(1302.539062 0)"/>
     <use xlink:href="#DejaVuSans-Bold-41" transform="translate(1337.353516 0)"/>
     <use xlink:href="#DejaVuSans-Bold-63" transform="translate(1414.746094 0)"/>
     <use xlink:href="#DejaVuSans-Bold-72" transform="translate(1474.023438 0)"/>
     <use xlink:href="#DejaVuSans-Bold-6f" transform="translate(1523.339844 0)"/>
     <use xlink:href="#DejaVuSans-Bold-73" transform="translate(1592.041016 0)"/>
     <use xlink:href="#DejaVuSans-Bold-73" transform="translate(1651.5625 0)"/>
     <use xlink:href="#DejaVuSans-Bold-20" transform="translate(1711.083984 0)"/>
     <use xlink:href="#DejaVuSans-Bold-4d" transform="translate(1745.898438 0)"/>
     <use xlink:href="#DejaVuSans-Bold-69" transform="translate(1845.410156 0)"/>
     <use xlink:href="#DejaVuSans-Bold-73" transform="translate(1879.6875 0)"/>
     <use xlink:href="#DejaVuSans-Bold-73" transform="translate(1939.208984 0)"/>
     <use xlink:href="#DejaVuSans-Bold-69" transform="translate(1998.730469 0)"/>
     <use xlink:href="#DejaVuSans-Bold-6e" transform="translate(2033.007812 0)"/>
     <use xlink:href="#DejaVuSans-Bold-67" transform="translate(2104.199219 0)"/>
     <use xlink:href="#DejaVuSans-Bold-2d" transform="translate(2175.78125 0)"/>
     <use xlink:href="#DejaVuSans-Bold-56" transform="translate(2210.035156 0)"/>
     <use xlink:href="#DejaVuSans-Bold-61" transform="translate(2281.927734 0)"/>
     <use xlink:href="#DejaVuSans-Bold-6c" transform="translate(2349.408203 0)"/>
     <use xlink:href="#DejaVuSans-Bold-75" transform="translate(2383.685547 0)"/>
     <use xlink:href="#DejaVuSans-Bold-65" transform="translate(2454.876953 0)"/>
     <use xlink:href="#DejaVuSans-Bold-20" transform="translate(2522.699219 0)"/>
     <use xlink:href="#DejaVuSans-Bold-52" transform="translate(2557.513672 0)"/>
     <use xlink:href="#DejaVuSans-Bold-75" transform="translate(2634.515625 0)"/>
     <use xlink:href="#DejaVuSans-Bold-6c" transform="translate(2705.707031 0)"/>
     <use xlink:href="#DejaVuSans-Bold-65" transform="translate(2739.984375 0)"/>
     <use xlink:href="#DejaVuSans-Bold-73" transform="translate(2807.806641 0)"/>
    </g>
    <!-- (Points on diagonal = no band sensitivity to unknown-handling rule) -->
    <g transform="translate(52.349688 27.961813) scale(0.11 -0.11)">
     <defs>
      <path id="DejaVuSans-Bold-28" d="M 2413 -844 
L 1484 -844 
Q 1006 -72 778 623 
Q 550 1319 550 2003 
Q 550 2688 779 3389 
Q 1009 4091 1484 4856 
L 2413 4856 
Q 2013 4116 1813 3408 
Q 1613 2700 1613 2009 
Q 1613 1319 1811 609 
Q 2009 -100 2413 -844 
z
" transform="scale(0.015625)"/>
      <path id="DejaVuSans-Bold-50" d="M 588 4666 
L 2584 4666 
Q 3475 4666 3951 4270 
Q 4428 3875 4428 3144 
Q 4428 2409 3951 2014 
Q 3475 1619 2584 1619 
L 1791 1619 
L 1791 0 
L 588 0 
L 588 4666 
z
M 1791 3794 
L 1791 2491 
L 2456 2491 
Q 2806 2491 2997 2661 
Q 3188 2831 3188 3144 
Q 3188 3456 2997 3625 
Q 2806 3794 2456 3794 
L 1791 3794 
z
" transform="scale(0.015625)"/>
      <path id="DejaVuSans-Bold-64" d="M 2919 2988 
L 2919 4863 
L 4044 4863 
L 4044 0 
L 2919 0 
L 2919 506 
Q 2688 197 2409 53 
Q 2131 -91 1766 -91 
Q 1119 -91 703 423 
Q 288 938 288 1747 
Q 288 2556 703 3070 
Q 1119 3584 1766 3584 
Q 2128 3584 2408 3439 
Q 2688 3294 2919 2988 
z
M 2181 722 
Q 2541 722 2730 984 
Q 2919 1247 2919 1747 
Q 2919 2247 2730 2509 
Q 2541 2772 2181 2772 
Q 1825 2772 1636 2509 
Q 1447 2247 1447 1747 
Q 1447 1247 1636 984 
Q 1825 722 2181 722 
z
" transform="scale(0.015625)"/>
      <path id="DejaVuSans-Bold-3d" d="M 678 3084 
L 4684 3084 
L 4684 2350 
L 678 2350 
L 678 3084 
z
M 678 1663 
L 4684 1663 
L 4684 922 
L 678 922 
L 678 1663 
z
" transform="scale(0.015625)"/>
      <path id="DejaVuSans-Bold-62" d="M 2400 722 
Q 2759 722 2948 984 
Q 3138 1247 3138 1747 
Q 3138 2247 2948 2509 
Q 2759 2772 2400 2772 
Q 2041 2772 1848 2508 
Q 1656 2244 1656 1747 
Q 1656 1250 1848 986 
Q 2041 722 2400 722 
z
M 1656 2988 
Q 1888 3294 2169 3439 
Q 2450 3584 2816 3584 
Q 3463 3584 3878 3070 
Q 4294 2556 4294 1747 
Q 4294 938 3878 423 
Q 3463 -91 2816 -91 
Q 2450 -91 2169 54 
Q 1888 200 1656 506 
L 1656 0 
L 538 0 
L 538 4863 
L 1656 4863 
L 1656 2988 
z
" transform="scale(0.015625)"/>
      <path id="DejaVuSans-Bold-6b" d="M 538 4863 
L 1656 4863 
L 1656 2216 
L 2944 3500 
L 4244 3500 
L 2534 1894 
L 4378 0 
L 3022 0 
L 1656 1459 
L 1656 0 
L 538 0 
L 538 4863 
z
" transform="scale(0.015625)"/>
      <path id="DejaVuSans-Bold-77" d="M 225 3500 
L 1313 3500 
L 1900 1088 
L 2491 3500 
L 3425 3500 
L 4013 1113 
L 4603 3500 
L 5691 3500 
L 4769 0 
L 3547 0 
L 2956 2406 
L 2369 0 
L 1147 0 
L 225 3500 
z
" transform="scale(0.015625)"/>
      <path id="DejaVuSans-Bold-68" d="M 4056 2131 
L 4056 0 
L 2931 0 
L 2931 347 
L 2931 1625 
Q 2931 2084 2911 2256 
Q 2891 2428 2841 2509 
Q 2775 2619 2662 2680 
Q 2550 2741 2406 2741 
Q 2056 2741 1856 2470 
Q 1656 2200 1656 1722 
L 1656 0 
L 538 0 
L 538 4863 
L 1656 4863 
L 1656 2988 
Q 1909 3294 2193 3439 
Q 2478 3584 2822 3584 
Q 3428 3584 3742 3212 
Q 4056 2841 4056 2131 
z
" transform="scale(0.015625)"/>
      <path id="DejaVuSans-Bold-29" d="M 513 -844 
Q 913 -100 1113 609 
Q 1313 1319 1313 2009 
Q 1313 2700 1113 3408 
Q 913 4116 513 4856 
L 1441 4856 
Q 1916 4091 2145 3389 
Q 2375 2688 2375 2003 
Q 2375 1319 2147 623 
Q 1919 -72 1441 -844 
L 513 -844 
z
" transform="scale(0.015625)"/>
     </defs>
     <use xlink:href="#DejaVuSans-Bold-28"/>
     <use xlink:href="#DejaVuSans-Bold-50" transform="translate(45.703125 0)"/>
     <use xlink:href="#DejaVuSans-Bold-6f" transform="translate(118.994141 0)"/>
     <use xlink:href="#DejaVuSans-Bold-69" transform="translate(187.695312 0)"/>
     <use xlink:href="#DejaVuSans-Bold-6e" transform="translate(221.972656 0)"/>
     <use xlink:href="#DejaVuSans-Bold-74" transform="translate(293.164062 0)"/>
     <use xlink:href="#DejaVuSans-Bold-73" transform="translate(340.966797 0)"/>
     <use xlink:href="#DejaVuSans-Bold-20" transform="translate(400.488281 0)"/>
     <use xlink:href="#DejaVuSans-Bold-6f" transform="translate(435.302734 0)"/>
     <use xlink:href="#DejaVuSans-Bold-6e" transform="translate(504.003906 0)"/>
     <use xlink:href="#DejaVuSans-Bold-20" transform="translate(575.195312 0)"/>
     <use xlink:href="#DejaVuSans-Bold-64" transform="translate(610.009766 0)"/>
     <use xlink:href="#DejaVuSans-Bold-69" transform="translate(681.591797 0)"/>
     <use xlink:href="#DejaVuSans-Bold-61" transform="translate(715.869141 0)"/>
     <use xlink:href="#DejaVuSans-Bold-67" transform="translate(783.349609 0)"/>
     <use xlink:href="#DejaVuSans-Bold-6f" transform="translate(854.931641 0)"/>
     <use xlink:href="#DejaVuSans-Bold-6e" transform="translate(923.632812 0)"/>
     <use xlink:href="#DejaVuSans-Bold-61" transform="translate(994.824219 0)"/>
     <use xlink:href="#DejaVuSans-Bold-6c" transform="translate(1062.304688 0)"/>
     <use xlink:href="#DejaVuSans-Bold-20" transform="translate(1096.582031 0)"/>
     <use xlink:href="#DejaVuSans-Bold-3d" transform="translate(1131.396484 0)"/>
     <use xlink:href="#DejaVuSans-Bold-20" transform="translate(1215.185547 0)"/>
     <use xlink:href="#DejaVuSans-Bold-6e" transform="translate(1250 0)"/>
     <use xlink:href="#DejaVuSans-Bold-6f" transform="translate(1321.191406 0)"/>
     <use xlink:href="#DejaVuSans-Bold-20" transform="translate(1389.892578 0)"/>
     <use xlink:href="#DejaVuSans-Bold-62" transform="translate(1424.707031 0)"/>
     <use xlink:href="#DejaVuSans-Bold-61" transform="translate(1496.289062 0)"/>
     <use xlink:href="#DejaVuSans-Bold-6e" transform="translate(1563.769531 0)"/>
     <use xlink:href="#DejaVuSans-Bold-64" transform="translate(1634.960938 0)"/>
     <use xlink:href="#DejaVuSans-Bold-20" transform="translate(1706.542969 0)"/>
     <use xlink:href="#DejaVuSans-Bold-73" transform="translate(1741.357422 0)"/>
     <use xlink:href="#DejaVuSans-Bold-65" transform="translate(1800.878906 0)"/>
     <use xlink:href="#DejaVuSans-Bold-6e" transform="translate(1868.701172 0)"/>
     <use xlink:href="#DejaVuSans-Bold-73" transform="translate(1939.892578 0)"/>
     <use xlink:href="#DejaVuSans-Bold-69" transform="translate(1999.414062 0)"/>
     <use xlink:href="#DejaVuSans-Bold-74" transform="translate(2033.691406 0)"/>
     <use xlink:href="#DejaVuSans-Bold-69" transform="translate(2081.494141 0)"/>
     <use xlink:href="#DejaVuSans-Bold-76" transform="translate(2115.771484 0)"/>
     <use xlink:href="#DejaVuSans-Bold-69" transform="translate(2180.957031 0)"/>
     <use xlink:href="#DejaVuSans-Bold-74" transform="translate(2215.234375 0)"/>
     <use xlink:href="#DejaVuSans-Bold-79" transform="translate(2263.037109 0)"/>
     <use xlink:href="#DejaVuSans-Bold-20" transform="translate(2328.222656 0)"/>
     <use xlink:href="#DejaVuSans-Bold-74" transform="translate(2363.037109 0)"/>
     <use xlink:href="#DejaVuSans-Bold-6f" transform="translate(2410.839844 0)"/>
     <use xlink:href="#DejaVuSans-Bold-20" transform="translate(2479.541016 0)"/>
     <use xlink:href="#DejaVuSans-Bold-75" transform="translate(2514.355469 0)"/>
     <use xlink:href="#DejaVuSans-Bold-6e" transform="translate(2585.546875 0)"/>
     <use xlink:href="#DejaVuSans-Bold-6b" transform="translate(2656.738281 0)"/>
     <use xlink:href="#DejaVuSans-Bold-6e" transform="translate(2723.242188 0)"/>
     <use xlink:href="#DejaVuSans-Bold-6f" transform="translate(2794.433594 0)"/>
     <use xlink:href="#DejaVuSans-Bold-77" transform="translate(2863.134766 0)"/>
     <use xlink:href="#DejaVuSans-Bold-6e" transform="translate(2955.517578 0)"/>
     <use xlink:href="#DejaVuSans-Bold-2d" transform="translate(3026.708984 0)"/>
     <use xlink:href="#DejaVuSans-Bold-68" transform="translate(3068.212891 0)"/>
     <use xlink:href="#DejaVuSans-Bold-61" transform="translate(3139.404297 0)"/>
     <use xlink:href="#DejaVuSans-Bold-6e" transform="translate(3206.884766 0)"/>
     <use xlink:href="#DejaVuSans-Bold-64" transform="translate(3278.076172 0)"/>
     <use xlink:href="#DejaVuSans-Bold-6c" transform="translate(3349.658203 0)"/>
     <use xlink:href="#DejaVuSans-Bold-69" transform="translate(3383.935547 0)"/>
     <use xlink:href="#DejaVuSans-Bold-6e" transform="translate(3418.212891 0)"/>
     <use xlink:href="#DejaVuSans-Bold-67" transform="translate(3489.404297 0)"/>
     <use xlink:href="#DejaVuSans-Bold-20" transform="translate(3560.986328 0)"/>
     <use xlink:href="#DejaVuSans-Bold-72" transform="translate(3595.800781 0)"/>
     <use xlink:href="#DejaVuSans-Bold-75" transform="translate(3645.117188 0)"/>
     <use xlink:href="#DejaVuSans-Bold-6c" transform="translate(3716.308594 0)"/>
     <use xlink:href="#DejaVuSans-Bold-65" transform="translate(3750.585938 0)"/>
     <use xlink:href="#DejaVuSans-Bold-29" transform="translate(3818.408203 0)"/>
    </g>
   </g>
   <g id="legend_1">
    <g id="patch_5">
     <path d="M 378.824375 454.033813 
L 483.543125 454.033813 
Q 485.143125 454.033813 485.143125 452.433813 
L 485.143125 394.521313 
Q 485.143125 392.921312 483.543125 392.921312 
L 378.824375 392.921312 
Q 377.224375 392.921312 377.224375 394.521313 
L 377.224375 452.433813 
Q 377.224375 454.033813 378.824375 454.033813 
z
" style="fill: #ffffff; opacity: 0.8; stroke: #cccccc; stroke-linejoin: miter"/>
    </g>
    <g id="text_15">
     <!-- Neutral-rule band -->
     <g transform="translate(395.88875 402.200063) scale(0.08 -0.08)">
      <defs>
       <path id="DejaVuSans-4e" d="M 628 4666 
L 1478 4666 
L 3547 763 
L 3547 4666 
L 4159 4666 
L 4159 0 
L 3309 0 
L 1241 3903 
L 1241 0 
L 628 0 
L 628 4666 
z
" transform="scale(0.015625)"/>
       <path id="DejaVuSans-2d" d="M 313 2009 
L 1997 2009 
L 1997 1497 
L 313 1497 
L 313 2009 
z
" transform="scale(0.015625)"/>
       <path id="DejaVuSans-62" d="M 3116 1747 
Q 3116 2381 2855 2742 
Q 2594 3103 2138 3103 
Q 1681 3103 1420 2742 
Q 1159 2381 1159 1747 
Q 1159 1113 1420 752 
Q 1681 391 2138 391 
Q 2594 391 2855 752 
Q 3116 1113 3116 1747 
z
M 1159 2969 
Q 1341 3281 1617 3432 
Q 1894 3584 2278 3584 
Q 2916 3584 3314 3078 
Q 3713 2572 3713 1747 
Q 3713 922 3314 415 
Q 2916 -91 2278 -91 
Q 1894 -91 1617 61 
Q 1341 213 1159 525 
L 1159 0 
L 581 0 
L 581 4863 
L 1159 4863 
L 1159 2969 
z
" transform="scale(0.015625)"/>
       <path id="DejaVuSans-64" d="M 2906 2969 
L 2906 4863 
L 3481 4863 
L 3481 0 
L 2906 0 
L 2906 525 
Q 2725 213 2448 61 
Q 2172 -91 1784 -91 
Q 1150 -91 751 415 
Q 353 922 353 1747 
Q 353 2572 751 3078 
Q 1150 3584 1784 3584 
Q 2172 3584 2448 3432 
Q 2725 3281 2906 2969 
z
M 947 1747 
Q 947 1113 1208 752 
Q 1469 391 1925 391 
Q 2381 391 2643 752 
Q 2906 1113 2906 1747 
Q 2906 2381 2643 2742 
Q 2381 3103 1925 3103 
Q 1469 3103 1208 2742 
Q 947 2381 947 1747 
z
" transform="scale(0.015625)"/>
      </defs>
      <use xlink:href="#DejaVuSans-4e"/>
      <use xlink:href="#DejaVuSans-65" transform="translate(74.804688 0)"/>
      <use xlink:href="#DejaVuSans-75" transform="translate(136.328125 0)"/>
      <use xlink:href="#DejaVuSans-74" transform="translate(199.707031 0)"/>
      <use xlink:href="#DejaVuSans-72" transform="translate(238.916016 0)"/>
      <use xlink:href="#DejaVuSans-61" transform="translate(280.029297 0)"/>
      <use xlink:href="#DejaVuSans-6c" transform="translate(341.308594 0)"/>
      <use xlink:href="#DejaVuSans-2d" transform="translate(369.091797 0)"/>
      <use xlink:href="#DejaVuSans-72" transform="translate(405.175781 0)"/>
      <use xlink:href="#DejaVuSans-75" transform="translate(446.289062 0)"/>
      <use xlink:href="#DejaVuSans-6c" transform="translate(509.667969 0)"/>
      <use xlink:href="#DejaVuSans-65" transform="translate(537.451172 0)"/>
      <use xlink:href="#DejaVuSans-20" transform="translate(598.974609 0)"/>
      <use xlink:href="#DejaVuSans-62" transform="translate(630.761719 0)"/>
      <use xlink:href="#DejaVuSans-61" transform="translate(694.238281 0)"/>
      <use xlink:href="#DejaVuSans-6e" transform="translate(755.517578 0)"/>
      <use xlink:href="#DejaVuSans-64" transform="translate(818.896484 0)"/>
     </g>
    </g>
    <g id="PathCollection_4">
     <g>
      <use xlink:href="#m40505984fb" x="388.424375" y="411.842562" style="fill: #ffc107; fill-opacity: 0.85; stroke: #333333; stroke-opacity: 0.85; stroke-width: 0.5"/>
     </g>
    </g>
    <g id="text_16">
     <!-- moderate (n=2) -->
     <g transform="translate(402.824375 413.942563) scale(0.08 -0.08)">
      <defs>
       <path id="DejaVuSans-3d" d="M 678 2906 
L 4684 2906 
L 4684 2381 
L 678 2381 
L 678 2906 
z
M 678 1631 
L 4684 1631 
L 4684 1100 
L 678 1100 
L 678 1631 
z
" transform="scale(0.015625)"/>
      </defs>
      <use xlink:href="#DejaVuSans-6d"/>
      <use xlink:href="#DejaVuSans-6f" transform="translate(97.412109 0)"/>
      <use xlink:href="#DejaVuSans-64" transform="translate(158.59375 0)"/>
      <use xlink:href="#DejaVuSans-65" transform="translate(222.070312 0)"/>
      <use xlink:href="#DejaVuSans-72" transform="translate(283.59375 0)"/>
      <use xlink:href="#DejaVuSans-61" transform="translate(324.707031 0)"/>
      <use xlink:href="#DejaVuSans-74" transform="translate(385.986328 0)"/>
      <use xlink:href="#DejaVuSans-65" transform="translate(425.195312 0)"/>
      <use xlink:href="#DejaVuSans-20" transform="translate(486.71875 0)"/>
      <use xlink:href="#DejaVuSans-28" transform="translate(518.505859 0)"/>
      <use xlink:href="#DejaVuSans-6e" transform="translate(557.519531 0)"/>
      <use xlink:href="#DejaVuSans-3d" transform="translate(620.898438 0)"/>
      <use xlink:href="#DejaVuSans-32" transform="translate(704.6875 0)"/>
      <use xlink:href="#DejaVuSans-29" transform="translate(768.310547 0)"/>
     </g>
    </g>
    <g id="PathCollection_5">
     <g>
      <use xlink:href="#m9ff460998e" x="388.424375" y="423.585063" style="fill: #ff5722; fill-opacity: 0.85; stroke: #333333; stroke-opacity: 0.85; stroke-width: 0.5"/>
     </g>
    </g>
    <g id="text_17">
     <!-- high (n=16) -->
     <g transform="translate(402.824375 425.685063) scale(0.08 -0.08)">
      <defs>
       <path id="DejaVuSans-68" d="M 3513 2113 
L 3513 0 
L 2938 0 
L 2938 2094 
Q 2938 2591 2744 2837 
Q 2550 3084 2163 3084 
Q 1697 3084 1428 2787 
Q 1159 2491 1159 1978 
L 1159 0 
L 581 0 
L 581 4863 
L 1159 4863 
L 1159 2956 
Q 1366 3272 1645 3428 
Q 1925 3584 2291 3584 
Q 2894 3584 3203 3211 
Q 3513 2838 3513 2113 
z
" transform="scale(0.015625)"/>
       <path id="DejaVuSans-67" d="M 2906 1791 
Q 2906 2416 2648 2759 
Q 2391 3103 1925 3103 
Q 1463 3103 1205 2759 
Q 947 2416 947 1791 
Q 947 1169 1205 825 
Q 1463 481 1925 481 
Q 2391 481 2648 825 
Q 2906 1169 2906 1791 
z
M 3481 434 
Q 3481 -459 3084 -895 
Q 2688 -1331 1869 -1331 
Q 1566 -1331 1297 -1286 
Q 1028 -1241 775 -1147 
L 775 -588 
Q 1028 -725 1275 -790 
Q 1522 -856 1778 -856 
Q 2344 -856 2625 -561 
Q 2906 -266 2906 331 
L 2906 616 
Q 2728 306 2450 153 
Q 2172 0 1784 0 
Q 1141 0 747 490 
Q 353 981 353 1791 
Q 353 2603 747 3093 
Q 1141 3584 1784 3584 
Q 2172 3584 2450 3431 
Q 2728 3278 2906 2969 
L 2906 3500 
L 3481 3500 
L 3481 434 
z
" transform="scale(0.015625)"/>
      </defs>
      <use xlink:href="#DejaVuSans-68"/>
      <use xlink:href="#DejaVuSans-69" transform="translate(63.378906 0)"/>
      <use xlink:href="#DejaVuSans-67" transform="translate(91.162109 0)"/>
      <use xlink:href="#DejaVuSans-68" transform="translate(154.638672 0)"/>
      <use xlink:href="#DejaVuSans-20" transform="translate(218.017578 0)"/>
      <use xlink:href="#DejaVuSans-28" transform="translate(249.804688 0)"/>
      <use xlink:href="#DejaVuSans-6e" transform="translate(288.818359 0)"/>
      <use xlink:href="#DejaVuSans-3d" transform="translate(352.197266 0)"/>
      <use xlink:href="#DejaVuSans-31" transform="translate(435.986328 0)"/>
      <use xlink:href="#DejaVuSans-36" transform="translate(499.609375 0)"/>
      <use xlink:href="#DejaVuSans-29" transform="translate(563.232422 0)"/>
     </g>
    </g>
    <g id="PathCollection_6">
     <g>
      <use xlink:href="#m12e1a63afe" x="388.424375" y="435.327562" style="fill: #b71c1c; fill-opacity: 0.85; stroke: #333333; stroke-opacity: 0.85; stroke-width: 0.5"/>
     </g>
    </g>
    <g id="text_18">
     <!-- severe (n=27) -->
     <g transform="translate(402.824375 437.427563) scale(0.08 -0.08)">
      <defs>
       <path id="DejaVuSans-37" d="M 525 4666 
L 3525 4666 
L 3525 4397 
L 1831 0 
L 1172 0 
L 2766 4134 
L 525 4134 
L 525 4666 
z
" transform="scale(0.015625)"/>
      </defs>
      <use xlink:href="#DejaVuSans-73"/>
      <use xlink:href="#DejaVuSans-65" transform="translate(52.099609 0)"/>
      <use xlink:href="#DejaVuSans-76" transform="translate(113.623047 0)"/>
      <use xlink:href="#DejaVuSans-65" transform="translate(172.802734 0)"/>
      <use xlink:href="#DejaVuSans-72" transform="translate(234.326172 0)"/>
      <use xlink:href="#DejaVuSans-65" transform="translate(273.189453 0)"/>
      <use xlink:href="#DejaVuSans-20" transform="translate(334.712891 0)"/>
      <use xlink:href="#DejaVuSans-28" transform="translate(366.5 0)"/>
      <use xlink:href="#DejaVuSans-6e" transform="translate(405.513672 0)"/>
      <use xlink:href="#DejaVuSans-3d" transform="translate(468.892578 0)"/>
      <use xlink:href="#DejaVuSans-32" transform="translate(552.681641 0)"/>
      <use xlink:href="#DejaVuSans-37" transform="translate(616.304688 0)"/>
      <use xlink:href="#DejaVuSans-29" transform="translate(679.927734 0)"/>
     </g>
    </g>
    <g id="line2d_12">
     <path d="M 380.424375 446.370063 
L 388.424375 446.370063 
L 396.424375 446.370063 
" style="fill: none; stroke-dasharray: 4.44,1.92; stroke-dashoffset: 0; stroke: #888888; stroke-width: 1.2"/>
    </g>
    <g id="text_19">
     <!-- No sensitivity (y=x) -->
     <g transform="translate(402.824375 449.170063) scale(0.08 -0.08)">
      <defs>
       <path id="DejaVuSans-79" d="M 2059 -325 
Q 1816 -950 1584 -1140 
Q 1353 -1331 966 -1331 
L 506 -1331 
L 506 -850 
L 844 -850 
Q 1081 -850 1212 -737 
Q 1344 -625 1503 -206 
L 1606 56 
L 191 3500 
L 800 3500 
L 1894 763 
L 2988 3500 
L 3597 3500 
L 2059 -325 
z
" transform="scale(0.015625)"/>
       <path id="DejaVuSans-78" d="M 3513 3500 
L 2247 1797 
L 3578 0 
L 2900 0 
L 1881 1375 
L 863 0 
L 184 0 
L 1544 1831 
L 300 3500 
L 978 3500 
L 1906 2253 
L 2834 3500 
L 3513 3500 
z
" transform="scale(0.015625)"/>
      </defs>
      <use xlink:href="#DejaVuSans-4e"/>
      <use xlink:href="#DejaVuSans-6f" transform="translate(74.804688 0)"/>
      <use xlink:href="#DejaVuSans-20" transform="translate(135.986328 0)"/>
      <use xlink:href="#DejaVuSans-73" transform="translate(167.773438 0)"/>
      <use xlink:href="#DejaVuSans-65" transform="translate(219.873047 0)"/>
      <use xlink:href="#DejaVuSans-6e" transform="translate(281.396484 0)"/>
      <use xlink:href="#DejaVuSans-73" transform="translate(344.775391 0)"/>
      <use xlink:href="#DejaVuSans-69" transform="translate(396.875 0)"/>
      <use xlink:href="#DejaVuSans-74" transform="translate(424.658203 0)"/>
      <use xlink:href="#DejaVuSans-69" transform="translate(463.867188 0)"/>
      <use xlink:href="#DejaVuSans-76" transform="translate(491.650391 0)"/>
      <use xlink:href="#DejaVuSans-69" transform="translate(550.830078 0)"/>
      <use xlink:href="#DejaVuSans-74" transform="translate(578.613281 0)"/>
      <use xlink:href="#DejaVuSans-79" transform="translate(617.822266 0)"/>
      <use xlink:href="#DejaVuSans-20" transform="translate(677.001953 0)"/>
      <use xlink:href="#DejaVuSans-28" transform="translate(708.789062 0)"/>
      <use xlink:href="#DejaVuSans-79" transform="translate(747.802734 0)"/>
      <use xlink:href="#DejaVuSans-3d" transform="translate(806.982422 0)"/>
      <use xlink:href="#DejaVuSans-78" transform="translate(890.771484 0)"/>
      <use xlink:href="#DejaVuSans-29" transform="translate(949.951172 0)"/>
     </g>
    </g>
   </g>
  </g>
 </g>
 <defs>
  <clipPath id="p78179d544d">
   <rect x="40.603125" y="33.961813" width="448.54" height="424.072"/>
  </clipPath>
 </defs>
</svg>
