<?xml version="1.0" encoding="utf-8" standalone="no"?>
<!DOCTYPE svg PUBLIC "-//W3C//DTD SVG 1.1//EN"
  "http://www.w3.org/Graphics/SVG/1.1/DTD/svg11.dtd">
<svg xmlns:xlink="http://www.w3.org/1999/xlink" width="684pt" height="439.538469pt" viewBox="0 0 684 439.538469" xmlns="http://www.w3.org/2000/svg" version="1.1">
 <metadata>
  <rdf:RDF xmlns:dc="http://purl.org/dc/elements/1.1/" xmlns:cc="http://creativecommons.org/ns#" xmlns:rdf="http://www.w3.org/1999/02/22-rdf-syntax-ns#">
   <cc:Work>
    <dc:type rdf:resource="http://purl.org/dc/dcmitype/StillImage"/>
    <dc:date>2026-05-27T10:38:54.193978</dc:date>
    <dc:format>image/svg+xml</dc:format>
    <dc:creator>
     <cc:Agent>
      <dc:title>Matplotlib v3.10.9, https://matplotlib.org/</dc:title>
     </cc:Agent>
    </dc:creator>
   </cc:Work>
  </rdf:RDF>
 </metadata>
 <defs>
  <style type="text/css">*{stroke-linejoin: round; stroke-linecap: butt}</style>
 </defs>
 <g id="figure_1">
  <g id="patch_1">
   <path d="M 0 439.538469 
L 684 439.538469 
L 684 0 
L 0 0 
z
" style="fill: #fafafa"/>
  </g>
  <g id="axes_1">
   <g id="patch_2">
    <path d="M 191.34 99.083125 
L 492.66 99.083125 
Q 499.356 99.083125 499.356 94.232125 
L 499.356 55.424125 
Q 499.356 50.573125 492.66 50.573125 
L 191.34 50.573125 
Q 184.644 50.573125 184.644 55.424125 
L 184.644 94.232125 
Q 184.644 99.083125 191.34 99.083125 
z
" clip-path="url(#p3720ae8eef)" style="fill: #e3f2fd; stroke: #555555; stroke-width: 1.2; stroke-linejoin: miter"/>
   </g>
   <g id="patch_3">
    <path d="M 191.34 162.146125 
L 492.66 162.146125 
Q 499.356 162.146125 499.356 157.295125 
L 499.356 118.487125 
Q 499.356 113.636125 492.66 113.636125 
L 191.34 113.636125 
Q 184.644 113.636125 184.644 118.487125 
L 184.644 157.295125 
Q 184.644 162.146125 191.34 162.146125 
z
" clip-path="url(#p3720ae8eef)" style="fill: #e8f5e9; stroke: #555555; stroke-width: 1.2; stroke-linejoin: miter"/>
   </g>
   <g id="patch_4">
    <path d="M 191.34 225.209125 
L 492.66 225.209125 
Q 499.356 225.209125 499.356 220.358125 
L 499.356 181.550125 
Q 499.356 176.699125 492.66 176.699125 
L 191.34 176.699125 
Q 184.644 176.699125 184.644 181.550125 
L 184.644 220.358125 
Q 184.644 225.209125 191.34 225.209125 
z
" clip-path="url(#p3720ae8eef)" style="fill: #fff9c4; stroke: #555555; stroke-width: 1.2; stroke-linejoin: miter"/>
   </g>
   <g id="patch_5">
    <path d="M 191.34 288.272125 
L 492.66 288.272125 
Q 499.356 288.272125 499.356 283.421125 
L 499.356 244.613125 
Q 499.356 239.762125 492.66 239.762125 
L 191.34 239.762125 
Q 184.644 239.762125 184.644 244.613125 
L 184.644 283.421125 
Q 184.644 288.272125 191.34 288.272125 
z
" clip-path="url(#p3720ae8eef)" style="fill: #fbe9e7; stroke: #555555; stroke-width: 1.2; stroke-linejoin: miter"/>
   </g>
   <g id="patch_6">
    <path d="M 191.34 351.335125 
L 492.66 351.335125 
Q 499.356 351.335125 499.356 346.484125 
L 499.356 307.676125 
Q 499.356 302.825125 492.66 302.825125 
L 191.34 302.825125 
Q 184.644 302.825125 184.644 307.676125 
L 184.644 346.484125 
Q 184.644 351.335125 191.34 351.335125 
z
" clip-path="url(#p3720ae8eef)" style="fill: #ede7f6; stroke: #555555; stroke-width: 1.2; stroke-linejoin: miter"/>
   </g>
   <g id="patch_7">
    <path d="M 191.34 414.398125 
L 492.66 414.398125 
Q 499.356 414.398125 499.356 409.547125 
L 499.356 370.739125 
Q 499.356 365.888125 492.66 365.888125 
L 191.34 365.888125 
Q 184.644 365.888125 184.644 370.739125 
L 184.644 409.547125 
Q 184.644 414.398125 191.34 414.398125 
z
" clip-path="url(#p3720ae8eef)" style="fill: #e0f2f1; stroke: #555555; stroke-width: 1.2; stroke-linejoin: miter"/>
   </g>
   <g id="text_1">
    <!-- Public Record -->
    <g style="fill: #222222" transform="translate(307.241016 72.272547) scale(0.09 -0.09)">
     <defs>
      <path id="DejaVuSans-Bold-50" d="M 588 4666 
L 2584 4666 
Q 3475 4666 3951 4270 
Q 4428 3875 4428 3144 
Q 4428 2409 3951 2014 
Q 3475 1619 2584 1619 
L 1791 1619 
L 1791 0 
L 588 0 
L 588 4666 
z
M 1791 3794 
L 1791 2491 
L 2456 2491 
Q 2806 2491 2997 2661 
Q 3188 2831 3188 3144 
Q 3188 3456 2997 3625 
Q 2806 3794 2456 3794 
L 1791 3794 
z
" transform="scale(0.015625)"/>
      <path id="DejaVuSans-Bold-75" d="M 500 1363 
L 500 3500 
L 1625 3500 
L 1625 3150 
Q 1625 2866 1622 2436 
Q 1619 2006 1619 1863 
Q 1619 1441 1641 1255 
Q 1663 1069 1716 984 
Q 1784 875 1895 815 
Q 2006 756 2150 756 
Q 2500 756 2700 1025 
Q 2900 1294 2900 1772 
L 2900 3500 
L 4019 3500 
L 4019 0 
L 2900 0 
L 2900 506 
Q 2647 200 2364 54 
Q 2081 -91 1741 -91 
Q 1134 -91 817 281 
Q 500 653 500 1363 
z
" transform="scale(0.015625)"/>
      <path id="DejaVuSans-Bold-62" d="M 2400 722 
Q 2759 722 2948 984 
Q 3138 1247 3138 1747 
Q 3138 2247 2948 2509 
Q 2759 2772 2400 2772 
Q 2041 2772 1848 2508 
Q 1656 2244 1656 1747 
Q 1656 1250 1848 986 
Q 2041 722 2400 722 
z
M 1656 2988 
Q 1888 3294 2169 3439 
Q 2450 3584 2816 3584 
Q 3463 3584 3878 3070 
Q 4294 2556 4294 1747 
Q 4294 938 3878 423 
Q 3463 -91 2816 -91 
Q 2450 -91 2169 54 
Q 1888 200 1656 506 
L 1656 0 
L 538 0 
L 538 4863 
L 1656 4863 
L 1656 2988 
z
" transform="scale(0.015625)"/>
      <path id="DejaVuSans-Bold-6c" d="M 538 4863 
L 1656 4863 
L 1656 0 
L 538 0 
L 538 4863 
z
" transform="scale(0.015625)"/>
      <path id="DejaVuSans-Bold-69" d="M 538 3500 
L 1656 3500 
L 1656 0 
L 538 0 
L 538 3500 
z
M 538 4863 
L 1656 4863 
L 1656 3950 
L 538 3950 
L 538 4863 
z
" transform="scale(0.015625)"/>
      <path id="DejaVuSans-Bold-63" d="M 3366 3391 
L 3366 2478 
Q 3138 2634 2908 2709 
Q 2678 2784 2431 2784 
Q 1963 2784 1702 2511 
Q 1441 2238 1441 1747 
Q 1441 1256 1702 982 
Q 1963 709 2431 709 
Q 2694 709 2930 787 
Q 3166 866 3366 1019 
L 3366 103 
Q 3103 6 2833 -42 
Q 2563 -91 2291 -91 
Q 1344 -91 809 395 
Q 275 881 275 1747 
Q 275 2613 809 3098 
Q 1344 3584 2291 3584 
Q 2566 3584 2833 3536 
Q 3100 3488 3366 3391 
z
" transform="scale(0.015625)"/>
      <path id="DejaVuSans-Bold-20" transform="scale(0.015625)"/>
      <path id="DejaVuSans-Bold-52" d="M 2297 2597 
Q 2675 2597 2839 2737 
Q 3003 2878 3003 3200 
Q 3003 3519 2839 3656 
Q 2675 3794 2297 3794 
L 1791 3794 
L 1791 2597 
L 2297 2597 
z
M 1791 1766 
L 1791 0 
L 588 0 
L 588 4666 
L 2425 4666 
Q 3347 4666 3776 4356 
Q 4206 4047 4206 3378 
Q 4206 2916 3982 2619 
Q 3759 2322 3309 2181 
Q 3556 2125 3751 1926 
Q 3947 1728 4147 1325 
L 4800 0 
L 3519 0 
L 2950 1159 
Q 2778 1509 2601 1637 
Q 2425 1766 2131 1766 
L 1791 1766 
z
" transform="scale(0.015625)"/>
      <path id="DejaVuSans-Bold-65" d="M 4031 1759 
L 4031 1441 
L 1416 1441 
Q 1456 1047 1700 850 
Q 1944 653 2381 653 
Q 2734 653 3104 758 
Q 3475 863 3866 1075 
L 3866 213 
Q 3469 63 3072 -14 
Q 2675 -91 2278 -91 
Q 1328 -91 801 392 
Q 275 875 275 1747 
Q 275 2603 792 3093 
Q 1309 3584 2216 3584 
Q 3041 3584 3536 3087 
Q 4031 2591 4031 1759 
z
M 2881 2131 
Q 2881 2450 2695 2645 
Q 2509 2841 2209 2841 
Q 1884 2841 1681 2658 
Q 1478 2475 1428 2131 
L 2881 2131 
z
" transform="scale(0.015625)"/>
      <path id="DejaVuSans-Bold-6f" d="M 2203 2784 
Q 1831 2784 1636 2517 
Q 1441 2250 1441 1747 
Q 1441 1244 1636 976 
Q 1831 709 2203 709 
Q 2569 709 2762 976 
Q 2956 1244 2956 1747 
Q 2956 2250 2762 2517 
Q 2569 2784 2203 2784 
z
M 2203 3584 
Q 3106 3584 3614 3096 
Q 4122 2609 4122 1747 
Q 4122 884 3614 396 
Q 3106 -91 2203 -91 
Q 1297 -91 786 396 
Q 275 884 275 1747 
Q 275 2609 786 3096 
Q 1297 3584 2203 3584 
z
" transform="scale(0.015625)"/>
      <path id="DejaVuSans-Bold-72" d="M 3138 2547 
Q 2991 2616 2845 2648 
Q 2700 2681 2553 2681 
Q 2122 2681 1889 2404 
Q 1656 2128 1656 1613 
L 1656 0 
L 538 0 
L 538 3500 
L 1656 3500 
L 1656 2925 
Q 1872 3269 2151 3426 
Q 2431 3584 2822 3584 
Q 2878 3584 2943 3579 
Q 3009 3575 3134 3559 
L 3138 2547 
z
" transform="scale(0.015625)"/>
      <path id="DejaVuSans-Bold-64" d="M 2919 2988 
L 2919 4863 
L 4044 4863 
L 4044 0 
L 2919 0 
L 2919 506 
Q 2688 197 2409 53 
Q 2131 -91 1766 -91 
Q 1119 -91 703 423 
Q 288 938 288 1747 
Q 288 2556 703 3070 
Q 1119 3584 1766 3584 
Q 2128 3584 2408 3439 
Q 2688 3294 2919 2988 
z
M 2181 722 
Q 2541 722 2730 984 
Q 2919 1247 2919 1747 
Q 2919 2247 2730 2509 
Q 2541 2772 2181 2772 
Q 1825 2772 1636 2509 
Q 1447 2247 1447 1747 
Q 1447 1247 1636 984 
Q 1825 722 2181 722 
z
" transform="scale(0.015625)"/>
     </defs>
     <use xlink:href="#DejaVuSans-Bold-50"/>
     <use xlink:href="#DejaVuSans-Bold-75" transform="translate(73.291016 0)"/>
     <use xlink:href="#DejaVuSans-Bold-62" transform="translate(144.482422 0)"/>
     <use xlink:href="#DejaVuSans-Bold-6c" transform="translate(216.064453 0)"/>
     <use xlink:href="#DejaVuSans-Bold-69" transform="translate(250.341797 0)"/>
     <use xlink:href="#DejaVuSans-Bold-63" transform="translate(284.619141 0)"/>
     <use xlink:href="#DejaVuSans-Bold-20" transform="translate(343.896484 0)"/>
     <use xlink:href="#DejaVuSans-Bold-52" transform="translate(378.710938 0)"/>
     <use xlink:href="#DejaVuSans-Bold-65" transform="translate(455.712891 0)"/>
     <use xlink:href="#DejaVuSans-Bold-63" transform="translate(523.535156 0)"/>
     <use xlink:href="#DejaVuSans-Bold-6f" transform="translate(582.8125 0)"/>
     <use xlink:href="#DejaVuSans-Bold-72" transform="translate(651.513672 0)"/>
     <use xlink:href="#DejaVuSans-Bold-64" transform="translate(700.830078 0)"/>
    </g>
    <!-- Collection -->
    <g style="fill: #222222" transform="translate(316.811953 82.350578) scale(0.09 -0.09)">
     <defs>
      <path id="DejaVuSans-Bold-43" d="M 4288 256 
Q 3956 84 3597 -3 
Q 3238 -91 2847 -91 
Q 1681 -91 1000 561 
Q 319 1213 319 2328 
Q 319 3447 1000 4098 
Q 1681 4750 2847 4750 
Q 3238 4750 3597 4662 
Q 3956 4575 4288 4403 
L 4288 3438 
Q 3953 3666 3628 3772 
Q 3303 3878 2944 3878 
Q 2300 3878 1931 3465 
Q 1563 3053 1563 2328 
Q 1563 1606 1931 1193 
Q 2300 781 2944 781 
Q 3303 781 3628 887 
Q 3953 994 4288 1222 
L 4288 256 
z
" transform="scale(0.015625)"/>
      <path id="DejaVuSans-Bold-74" d="M 1759 4494 
L 1759 3500 
L 2913 3500 
L 2913 2700 
L 1759 2700 
L 1759 1216 
Q 1759 972 1856 886 
Q 1953 800 2241 800 
L 2816 800 
L 2816 0 
L 1856 0 
Q 1194 0 917 276 
Q 641 553 641 1216 
L 641 2700 
L 84 2700 
L 84 3500 
L 641 3500 
L 641 4494 
L 1759 4494 
z
" transform="scale(0.015625)"/>
      <path id="DejaVuSans-Bold-6e" d="M 4056 2131 
L 4056 0 
L 2931 0 
L 2931 347 
L 2931 1631 
Q 2931 2084 2911 2256 
Q 2891 2428 2841 2509 
Q 2775 2619 2662 2680 
Q 2550 2741 2406 2741 
Q 2056 2741 1856 2470 
Q 1656 2200 1656 1722 
L 1656 0 
L 538 0 
L 538 3500 
L 1656 3500 
L 1656 2988 
Q 1909 3294 2193 3439 
Q 2478 3584 2822 3584 
Q 3428 3584 3742 3212 
Q 4056 2841 4056 2131 
z
" transform="scale(0.015625)"/>
     </defs>
     <use xlink:href="#DejaVuSans-Bold-43"/>
     <use xlink:href="#DejaVuSans-Bold-6f" transform="translate(73.388672 0)"/>
     <use xlink:href="#DejaVuSans-Bold-6c" transform="translate(142.089844 0)"/>
     <use xlink:href="#DejaVuSans-Bold-6c" transform="translate(176.367188 0)"/>
     <use xlink:href="#DejaVuSans-Bold-65" transform="translate(210.644531 0)"/>
     <use xlink:href="#DejaVuSans-Bold-63" transform="translate(278.466797 0)"/>
     <use xlink:href="#DejaVuSans-Bold-74" transform="translate(337.744141 0)"/>
     <use xlink:href="#DejaVuSans-Bold-69" transform="translate(385.546875 0)"/>
     <use xlink:href="#DejaVuSans-Bold-6f" transform="translate(419.824219 0)"/>
     <use xlink:href="#DejaVuSans-Bold-6e" transform="translate(488.525391 0)"/>
    </g>
   </g>
   <g id="text_2">
    <!-- Case Identification -->
    <g style="fill: #222222" transform="translate(294.326016 135.300391) scale(0.09 -0.09)">
     <defs>
      <path id="DejaVuSans-Bold-61" d="M 2106 1575 
Q 1756 1575 1579 1456 
Q 1403 1338 1403 1106 
Q 1403 894 1545 773 
Q 1688 653 1941 653 
Q 2256 653 2472 879 
Q 2688 1106 2688 1447 
L 2688 1575 
L 2106 1575 
z
M 3816 1997 
L 3816 0 
L 2688 0 
L 2688 519 
Q 2463 200 2181 54 
Q 1900 -91 1497 -91 
Q 953 -91 614 226 
Q 275 544 275 1050 
Q 275 1666 698 1953 
Q 1122 2241 2028 2241 
L 2688 2241 
L 2688 2328 
Q 2688 2594 2478 2717 
Q 2269 2841 1825 2841 
Q 1466 2841 1156 2769 
Q 847 2697 581 2553 
L 581 3406 
Q 941 3494 1303 3539 
Q 1666 3584 2028 3584 
Q 2975 3584 3395 3211 
Q 3816 2838 3816 1997 
z
" transform="scale(0.015625)"/>
      <path id="DejaVuSans-Bold-73" d="M 3272 3391 
L 3272 2541 
Q 2913 2691 2578 2766 
Q 2244 2841 1947 2841 
Q 1628 2841 1473 2761 
Q 1319 2681 1319 2516 
Q 1319 2381 1436 2309 
Q 1553 2238 1856 2203 
L 2053 2175 
Q 2913 2066 3209 1816 
Q 3506 1566 3506 1031 
Q 3506 472 3093 190 
Q 2681 -91 1863 -91 
Q 1516 -91 1145 -36 
Q 775 19 384 128 
L 384 978 
Q 719 816 1070 734 
Q 1422 653 1784 653 
Q 2113 653 2278 743 
Q 2444 834 2444 1013 
Q 2444 1163 2330 1236 
Q 2216 1309 1875 1350 
L 1678 1375 
Q 931 1469 631 1722 
Q 331 1975 331 2491 
Q 331 3047 712 3315 
Q 1094 3584 1881 3584 
Q 2191 3584 2531 3537 
Q 2872 3491 3272 3391 
z
" transform="scale(0.015625)"/>
      <path id="DejaVuSans-Bold-49" d="M 588 4666 
L 1791 4666 
L 1791 0 
L 588 0 
L 588 4666 
z
" transform="scale(0.015625)"/>
      <path id="DejaVuSans-Bold-66" d="M 2841 4863 
L 2841 4128 
L 2222 4128 
Q 1984 4128 1890 4042 
Q 1797 3956 1797 3744 
L 1797 3500 
L 2753 3500 
L 2753 2700 
L 1797 2700 
L 1797 0 
L 678 0 
L 678 2700 
L 122 2700 
L 122 3500 
L 678 3500 
L 678 3744 
Q 678 4316 997 4589 
Q 1316 4863 1984 4863 
L 2841 4863 
z
" transform="scale(0.015625)"/>
     </defs>
     <use xlink:href="#DejaVuSans-Bold-43"/>
     <use xlink:href="#DejaVuSans-Bold-61" transform="translate(73.388672 0)"/>
     <use xlink:href="#DejaVuSans-Bold-73" transform="translate(140.869141 0)"/>
     <use xlink:href="#DejaVuSans-Bold-65" transform="translate(200.390625 0)"/>
     <use xlink:href="#DejaVuSans-Bold-20" transform="translate(268.212891 0)"/>
     <use xlink:href="#DejaVuSans-Bold-49" transform="translate(303.027344 0)"/>
     <use xlink:href="#DejaVuSans-Bold-64" transform="translate(340.234375 0)"/>
     <use xlink:href="#DejaVuSans-Bold-65" transform="translate(411.816406 0)"/>
     <use xlink:href="#DejaVuSans-Bold-6e" transform="translate(479.638672 0)"/>
     <use xlink:href="#DejaVuSans-Bold-74" transform="translate(550.830078 0)"/>
     <use xlink:href="#DejaVuSans-Bold-69" transform="translate(598.632812 0)"/>
     <use xlink:href="#DejaVuSans-Bold-66" transform="translate(632.910156 0)"/>
     <use xlink:href="#DejaVuSans-Bold-69" transform="translate(676.416016 0)"/>
     <use xlink:href="#DejaVuSans-Bold-63" transform="translate(710.693359 0)"/>
     <use xlink:href="#DejaVuSans-Bold-61" transform="translate(769.970703 0)"/>
     <use xlink:href="#DejaVuSans-Bold-74" transform="translate(837.451172 0)"/>
     <use xlink:href="#DejaVuSans-Bold-69" transform="translate(885.253906 0)"/>
     <use xlink:href="#DejaVuSans-Bold-6f" transform="translate(919.53125 0)"/>
     <use xlink:href="#DejaVuSans-Bold-6e" transform="translate(988.232422 0)"/>
    </g>
    <!-- &amp; Source Quality Rating -->
    <g style="fill: #222222" transform="translate(281.046094 145.378422) scale(0.09 -0.09)">
     <defs>
      <path id="DejaVuSans-Bold-26" d="M 2497 3097 
L 3775 1691 
Q 3941 1909 4027 2181 
Q 4113 2453 4128 2797 
L 5100 2797 
Q 5053 2228 4879 1784 
Q 4706 1341 4397 1006 
L 5313 0 
L 3988 0 
L 3681 341 
Q 3353 122 2990 15 
Q 2628 -91 2222 -91 
Q 1400 -91 892 342 
Q 384 775 384 1459 
Q 384 1916 607 2267 
Q 831 2619 1338 2950 
Q 1206 3116 1143 3281 
Q 1081 3447 1081 3628 
Q 1081 4138 1478 4444 
Q 1875 4750 2534 4750 
Q 2819 4750 3126 4704 
Q 3434 4659 3769 4569 
L 3769 3700 
Q 3475 3850 3212 3922 
Q 2950 3994 2700 3994 
Q 2459 3994 2326 3901 
Q 2194 3809 2194 3641 
Q 2194 3534 2270 3398 
Q 2347 3263 2497 3097 
z
M 1875 2322 
Q 1672 2175 1569 1989 
Q 1466 1803 1466 1581 
Q 1466 1222 1731 969 
Q 1997 716 2369 716 
Q 2578 716 2759 780 
Q 2941 844 3097 972 
L 1875 2322 
z
" transform="scale(0.015625)"/>
      <path id="DejaVuSans-Bold-53" d="M 3834 4519 
L 3834 3531 
Q 3450 3703 3084 3790 
Q 2719 3878 2394 3878 
Q 1963 3878 1756 3759 
Q 1550 3641 1550 3391 
Q 1550 3203 1689 3098 
Q 1828 2994 2194 2919 
L 2706 2816 
Q 3484 2659 3812 2340 
Q 4141 2022 4141 1434 
Q 4141 663 3683 286 
Q 3225 -91 2284 -91 
Q 1841 -91 1394 -6 
Q 947 78 500 244 
L 500 1259 
Q 947 1022 1364 901 
Q 1781 781 2169 781 
Q 2563 781 2772 912 
Q 2981 1044 2981 1288 
Q 2981 1506 2839 1625 
Q 2697 1744 2272 1838 
L 1806 1941 
Q 1106 2091 782 2419 
Q 459 2747 459 3303 
Q 459 4000 909 4375 
Q 1359 4750 2203 4750 
Q 2588 4750 2994 4692 
Q 3400 4634 3834 4519 
z
" transform="scale(0.015625)"/>
      <path id="DejaVuSans-Bold-51" d="M 2847 -84 
L 2753 -84 
Q 1600 -84 959 553 
Q 319 1191 319 2328 
Q 319 3463 958 4106 
Q 1597 4750 2719 4750 
Q 3853 4750 4486 4112 
Q 5119 3475 5119 2328 
Q 5119 1541 4783 972 
Q 4447 403 3816 116 
L 4756 -934 
L 3609 -934 
L 2847 -84 
z
M 2719 3878 
Q 2169 3878 1866 3472 
Q 1563 3066 1563 2328 
Q 1563 1578 1859 1179 
Q 2156 781 2719 781 
Q 3272 781 3575 1187 
Q 3878 1594 3878 2328 
Q 3878 3066 3575 3472 
Q 3272 3878 2719 3878 
z
" transform="scale(0.015625)"/>
      <path id="DejaVuSans-Bold-79" d="M 78 3500 
L 1197 3500 
L 2138 1125 
L 2938 3500 
L 4056 3500 
L 2584 -331 
Q 2363 -916 2067 -1148 
Q 1772 -1381 1288 -1381 
L 641 -1381 
L 641 -647 
L 991 -647 
Q 1275 -647 1404 -556 
Q 1534 -466 1606 -231 
L 1638 -134 
L 78 3500 
z
" transform="scale(0.015625)"/>
      <path id="DejaVuSans-Bold-67" d="M 2919 594 
Q 2688 288 2409 144 
Q 2131 0 1766 0 
Q 1125 0 706 504 
Q 288 1009 288 1791 
Q 288 2575 706 3076 
Q 1125 3578 1766 3578 
Q 2131 3578 2409 3434 
Q 2688 3291 2919 2981 
L 2919 3500 
L 4044 3500 
L 4044 353 
Q 4044 -491 3511 -936 
Q 2978 -1381 1966 -1381 
Q 1638 -1381 1331 -1331 
Q 1025 -1281 716 -1178 
L 716 -306 
Q 1009 -475 1290 -558 
Q 1572 -641 1856 -641 
Q 2406 -641 2662 -400 
Q 2919 -159 2919 353 
L 2919 594 
z
M 2181 2772 
Q 1834 2772 1640 2515 
Q 1447 2259 1447 1791 
Q 1447 1309 1634 1061 
Q 1822 813 2181 813 
Q 2531 813 2725 1069 
Q 2919 1325 2919 1791 
Q 2919 2259 2725 2515 
Q 2531 2772 2181 2772 
z
" transform="scale(0.015625)"/>
     </defs>
     <use xlink:href="#DejaVuSans-Bold-26"/>
     <use xlink:href="#DejaVuSans-Bold-20" transform="translate(87.207031 0)"/>
     <use xlink:href="#DejaVuSans-Bold-53" transform="translate(122.021484 0)"/>
     <use xlink:href="#DejaVuSans-Bold-6f" transform="translate(194.042969 0)"/>
     <use xlink:href="#DejaVuSans-Bold-75" transform="translate(262.744141 0)"/>
     <use xlink:href="#DejaVuSans-Bold-72" transform="translate(333.935547 0)"/>
     <use xlink:href="#DejaVuSans-Bold-63" transform="translate(383.251953 0)"/>
     <use xlink:href="#DejaVuSans-Bold-65" transform="translate(442.529297 0)"/>
     <use xlink:href="#DejaVuSans-Bold-20" transform="translate(510.351562 0)"/>
     <use xlink:href="#DejaVuSans-Bold-51" transform="translate(545.166016 0)"/>
     <use xlink:href="#DejaVuSans-Bold-75" transform="translate(630.175781 0)"/>
     <use xlink:href="#DejaVuSans-Bold-61" transform="translate(701.367188 0)"/>
     <use xlink:href="#DejaVuSans-Bold-6c" transform="translate(768.847656 0)"/>
     <use xlink:href="#DejaVuSans-Bold-69" transform="translate(803.125 0)"/>
     <use xlink:href="#DejaVuSans-Bold-74" transform="translate(837.402344 0)"/>
     <use xlink:href="#DejaVuSans-Bold-79" transform="translate(885.205078 0)"/>
     <use xlink:href="#DejaVuSans-Bold-20" transform="translate(950.390625 0)"/>
     <use xlink:href="#DejaVuSans-Bold-52" transform="translate(985.205078 0)"/>
     <use xlink:href="#DejaVuSans-Bold-61" transform="translate(1062.207031 0)"/>
     <use xlink:href="#DejaVuSans-Bold-74" transform="translate(1129.6875 0)"/>
     <use xlink:href="#DejaVuSans-Bold-69" transform="translate(1177.490234 0)"/>
     <use xlink:href="#DejaVuSans-Bold-6e" transform="translate(1211.767578 0)"/>
     <use xlink:href="#DejaVuSans-Bold-67" transform="translate(1282.958984 0)"/>
    </g>
   </g>
   <g id="text_3">
    <!-- Structured Coding -->
    <g style="fill: #222222" transform="translate(295.522734 198.363391) scale(0.09 -0.09)">
     <use xlink:href="#DejaVuSans-Bold-53"/>
     <use xlink:href="#DejaVuSans-Bold-74" transform="translate(72.021484 0)"/>
     <use xlink:href="#DejaVuSans-Bold-72" transform="translate(119.824219 0)"/>
     <use xlink:href="#DejaVuSans-Bold-75" transform="translate(169.140625 0)"/>
     <use xlink:href="#DejaVuSans-Bold-63" transform="translate(240.332031 0)"/>
     <use xlink:href="#DejaVuSans-Bold-74" transform="translate(299.609375 0)"/>
     <use xlink:href="#DejaVuSans-Bold-75" transform="translate(347.412109 0)"/>
     <use xlink:href="#DejaVuSans-Bold-72" transform="translate(418.603516 0)"/>
     <use xlink:href="#DejaVuSans-Bold-65" transform="translate(467.919922 0)"/>
     <use xlink:href="#DejaVuSans-Bold-64" transform="translate(535.742188 0)"/>
     <use xlink:href="#DejaVuSans-Bold-20" transform="translate(607.324219 0)"/>
     <use xlink:href="#DejaVuSans-Bold-43" transform="translate(642.138672 0)"/>
     <use xlink:href="#DejaVuSans-Bold-6f" transform="translate(715.527344 0)"/>
     <use xlink:href="#DejaVuSans-Bold-64" transform="translate(784.228516 0)"/>
     <use xlink:href="#DejaVuSans-Bold-69" transform="translate(855.810547 0)"/>
     <use xlink:href="#DejaVuSans-Bold-6e" transform="translate(890.087891 0)"/>
     <use xlink:href="#DejaVuSans-Bold-67" transform="translate(961.279297 0)"/>
    </g>
    <!-- (8 Dimensions × 0–2) -->
    <g style="fill: #222222" transform="translate(288.355781 208.511734) scale(0.09 -0.09)">
     <defs>
      <path id="DejaVuSans-Bold-28" d="M 2413 -844 
L 1484 -844 
Q 1006 -72 778 623 
Q 550 1319 550 2003 
Q 550 2688 779 3389 
Q 1009 4091 1484 4856 
L 2413 4856 
Q 2013 4116 1813 3408 
Q 1613 2700 1613 2009 
Q 1613 1319 1811 609 
Q 2009 -100 2413 -844 
z
" transform="scale(0.015625)"/>
      <path id="DejaVuSans-Bold-38" d="M 2228 2088 
Q 1891 2088 1709 1903 
Q 1528 1719 1528 1375 
Q 1528 1031 1709 848 
Q 1891 666 2228 666 
Q 2563 666 2741 848 
Q 2919 1031 2919 1375 
Q 2919 1722 2741 1905 
Q 2563 2088 2228 2088 
z
M 1350 2484 
Q 925 2613 709 2878 
Q 494 3144 494 3541 
Q 494 4131 934 4440 
Q 1375 4750 2228 4750 
Q 3075 4750 3515 4442 
Q 3956 4134 3956 3541 
Q 3956 3144 3739 2878 
Q 3522 2613 3097 2484 
Q 3572 2353 3814 2058 
Q 4056 1763 4056 1313 
Q 4056 619 3595 264 
Q 3134 -91 2228 -91 
Q 1319 -91 855 264 
Q 391 619 391 1313 
Q 391 1763 633 2058 
Q 875 2353 1350 2484 
z
M 1631 3419 
Q 1631 3141 1786 2991 
Q 1941 2841 2228 2841 
Q 2509 2841 2662 2991 
Q 2816 3141 2816 3419 
Q 2816 3697 2662 3845 
Q 2509 3994 2228 3994 
Q 1941 3994 1786 3844 
Q 1631 3694 1631 3419 
z
" transform="scale(0.015625)"/>
      <path id="DejaVuSans-Bold-44" d="M 1791 3756 
L 1791 909 
L 2222 909 
Q 2959 909 3348 1275 
Q 3738 1641 3738 2338 
Q 3738 3031 3350 3393 
Q 2963 3756 2222 3756 
L 1791 3756 
z
M 588 4666 
L 1856 4666 
Q 2919 4666 3439 4514 
Q 3959 4363 4331 4000 
Q 4659 3684 4818 3271 
Q 4978 2859 4978 2338 
Q 4978 1809 4818 1395 
Q 4659 981 4331 666 
Q 3956 303 3431 151 
Q 2906 0 1856 0 
L 588 0 
L 588 4666 
z
" transform="scale(0.015625)"/>
      <path id="DejaVuSans-Bold-6d" d="M 3781 2919 
Q 3994 3244 4286 3414 
Q 4578 3584 4928 3584 
Q 5531 3584 5847 3212 
Q 6163 2841 6163 2131 
L 6163 0 
L 5038 0 
L 5038 1825 
Q 5041 1866 5042 1909 
Q 5044 1953 5044 2034 
Q 5044 2406 4934 2573 
Q 4825 2741 4581 2741 
Q 4263 2741 4089 2478 
Q 3916 2216 3909 1719 
L 3909 0 
L 2784 0 
L 2784 1825 
Q 2784 2406 2684 2573 
Q 2584 2741 2328 2741 
Q 2006 2741 1831 2477 
Q 1656 2213 1656 1722 
L 1656 0 
L 531 0 
L 531 3500 
L 1656 3500 
L 1656 2988 
Q 1863 3284 2130 3434 
Q 2397 3584 2719 3584 
Q 3081 3584 3359 3409 
Q 3638 3234 3781 2919 
z
" transform="scale(0.015625)"/>
      <path id="DejaVuSans-Bold-d7" d="M 4563 3359 
L 3206 2003 
L 4563 653 
L 4038 128 
L 2681 1478 
L 1325 128 
L 800 653 
L 2156 2003 
L 800 3359 
L 1325 3884 
L 2681 2528 
L 4038 3884 
L 4563 3359 
z
" transform="scale(0.015625)"/>
      <path id="DejaVuSans-Bold-30" d="M 2944 2338 
Q 2944 3213 2780 3570 
Q 2616 3928 2228 3928 
Q 1841 3928 1675 3570 
Q 1509 3213 1509 2338 
Q 1509 1453 1675 1090 
Q 1841 728 2228 728 
Q 2613 728 2778 1090 
Q 2944 1453 2944 2338 
z
M 4147 2328 
Q 4147 1169 3647 539 
Q 3147 -91 2228 -91 
Q 1306 -91 806 539 
Q 306 1169 306 2328 
Q 306 3491 806 4120 
Q 1306 4750 2228 4750 
Q 3147 4750 3647 4120 
Q 4147 3491 4147 2328 
z
" transform="scale(0.015625)"/>
      <path id="DejaVuSans-Bold-2013" d="M 344 2156 
L 2856 2156 
L 2856 1350 
L 344 1350 
L 344 2156 
z
" transform="scale(0.015625)"/>
      <path id="DejaVuSans-Bold-32" d="M 1844 884 
L 3897 884 
L 3897 0 
L 506 0 
L 506 884 
L 2209 2388 
Q 2438 2594 2547 2791 
Q 2656 2988 2656 3200 
Q 2656 3528 2436 3728 
Q 2216 3928 1850 3928 
Q 1569 3928 1234 3808 
Q 900 3688 519 3450 
L 519 4475 
Q 925 4609 1322 4679 
Q 1719 4750 2100 4750 
Q 2938 4750 3402 4381 
Q 3866 4013 3866 3353 
Q 3866 2972 3669 2642 
Q 3472 2313 2841 1759 
L 1844 884 
z
" transform="scale(0.015625)"/>
      <path id="DejaVuSans-Bold-29" d="M 513 -844 
Q 913 -100 1113 609 
Q 1313 1319 1313 2009 
Q 1313 2700 1113 3408 
Q 913 4116 513 4856 
L 1441 4856 
Q 1916 4091 2145 3389 
Q 2375 2688 2375 2003 
Q 2375 1319 2147 623 
Q 1919 -72 1441 -844 
L 513 -844 
z
" transform="scale(0.015625)"/>
     </defs>
     <use xlink:href="#DejaVuSans-Bold-28"/>
     <use xlink:href="#DejaVuSans-Bold-38" transform="translate(45.703125 0)"/>
     <use xlink:href="#DejaVuSans-Bold-20" transform="translate(115.283203 0)"/>
     <use xlink:href="#DejaVuSans-Bold-44" transform="translate(150.097656 0)"/>
     <use xlink:href="#DejaVuSans-Bold-69" transform="translate(233.105469 0)"/>
     <use xlink:href="#DejaVuSans-Bold-6d" transform="translate(267.382812 0)"/>
     <use xlink:href="#DejaVuSans-Bold-65" transform="translate(371.582031 0)"/>
     <use xlink:href="#DejaVuSans-Bold-6e" transform="translate(439.404297 0)"/>
     <use xlink:href="#DejaVuSans-Bold-73" transform="translate(510.595703 0)"/>
     <use xlink:href="#DejaVuSans-Bold-69" transform="translate(570.117188 0)"/>
     <use xlink:href="#DejaVuSans-Bold-6f" transform="translate(604.394531 0)"/>
     <use xlink:href="#DejaVuSans-Bold-6e" transform="translate(673.095703 0)"/>
     <use xlink:href="#DejaVuSans-Bold-73" transform="translate(744.287109 0)"/>
     <use xlink:href="#DejaVuSans-Bold-20" transform="translate(803.808594 0)"/>
     <use xlink:href="#DejaVuSans-Bold-d7" transform="translate(838.623047 0)"/>
     <use xlink:href="#DejaVuSans-Bold-20" transform="translate(922.412109 0)"/>
     <use xlink:href="#DejaVuSans-Bold-30" transform="translate(957.226562 0)"/>
     <use xlink:href="#DejaVuSans-Bold-2013" transform="translate(1026.806641 0)"/>
     <use xlink:href="#DejaVuSans-Bold-32" transform="translate(1076.806641 0)"/>
     <use xlink:href="#DejaVuSans-Bold-29" transform="translate(1146.386719 0)"/>
    </g>
   </g>
   <g id="text_4">
    <!-- Scoring &amp; -->
    <g style="fill: #222222" transform="translate(317.323125 261.391234) scale(0.09 -0.09)">
     <use xlink:href="#DejaVuSans-Bold-53"/>
     <use xlink:href="#DejaVuSans-Bold-63" transform="translate(72.021484 0)"/>
     <use xlink:href="#DejaVuSans-Bold-6f" transform="translate(131.298828 0)"/>
     <use xlink:href="#DejaVuSans-Bold-72" transform="translate(200 0)"/>
     <use xlink:href="#DejaVuSans-Bold-69" transform="translate(249.316406 0)"/>
     <use xlink:href="#DejaVuSans-Bold-6e" transform="translate(283.59375 0)"/>
     <use xlink:href="#DejaVuSans-Bold-67" transform="translate(354.785156 0)"/>
     <use xlink:href="#DejaVuSans-Bold-20" transform="translate(426.367188 0)"/>
     <use xlink:href="#DejaVuSans-Bold-26" transform="translate(461.181641 0)"/>
    </g>
    <!-- Sensitivity Analysis -->
    <g style="fill: #222222" transform="translate(292.364297 271.539578) scale(0.09 -0.09)">
     <defs>
      <path id="DejaVuSans-Bold-76" d="M 97 3500 
L 1216 3500 
L 2088 1081 
L 2956 3500 
L 4078 3500 
L 2700 0 
L 1472 0 
L 97 3500 
z
" transform="scale(0.015625)"/>
      <path id="DejaVuSans-Bold-41" d="M 3419 850 
L 1538 850 
L 1241 0 
L 31 0 
L 1759 4666 
L 3194 4666 
L 4922 0 
L 3713 0 
L 3419 850 
z
M 1838 1716 
L 3116 1716 
L 2478 3572 
L 1838 1716 
z
" transform="scale(0.015625)"/>
     </defs>
     <use xlink:href="#DejaVuSans-Bold-53"/>
     <use xlink:href="#DejaVuSans-Bold-65" transform="translate(72.021484 0)"/>
     <use xlink:href="#DejaVuSans-Bold-6e" transform="translate(139.84375 0)"/>
     <use xlink:href="#DejaVuSans-Bold-73" transform="translate(211.035156 0)"/>
     <use xlink:href="#DejaVuSans-Bold-69" transform="translate(270.556641 0)"/>
     <use xlink:href="#DejaVuSans-Bold-74" transform="translate(304.833984 0)"/>
     <use xlink:href="#DejaVuSans-Bold-69" transform="translate(352.636719 0)"/>
     <use xlink:href="#DejaVuSans-Bold-76" transform="translate(386.914062 0)"/>
     <use xlink:href="#DejaVuSans-Bold-69" transform="translate(452.099609 0)"/>
     <use xlink:href="#DejaVuSans-Bold-74" transform="translate(486.376953 0)"/>
     <use xlink:href="#DejaVuSans-Bold-79" transform="translate(534.179688 0)"/>
     <use xlink:href="#DejaVuSans-Bold-20" transform="translate(599.365234 0)"/>
     <use xlink:href="#DejaVuSans-Bold-41" transform="translate(634.179688 0)"/>
     <use xlink:href="#DejaVuSans-Bold-6e" transform="translate(711.572266 0)"/>
     <use xlink:href="#DejaVuSans-Bold-61" transform="translate(782.763672 0)"/>
     <use xlink:href="#DejaVuSans-Bold-6c" transform="translate(850.244141 0)"/>
     <use xlink:href="#DejaVuSans-Bold-79" transform="translate(884.521484 0)"/>
     <use xlink:href="#DejaVuSans-Bold-73" transform="translate(949.707031 0)"/>
     <use xlink:href="#DejaVuSans-Bold-69" transform="translate(1009.228516 0)"/>
     <use xlink:href="#DejaVuSans-Bold-73" transform="translate(1043.505859 0)"/>
    </g>
   </g>
   <g id="text_5">
    <!-- Analysis Tables -->
    <g style="fill: #222222" transform="translate(303.314063 324.454234) scale(0.09 -0.09)">
     <defs>
      <path id="DejaVuSans-Bold-54" d="M 31 4666 
L 4331 4666 
L 4331 3756 
L 2784 3756 
L 2784 0 
L 1581 0 
L 1581 3756 
L 31 3756 
L 31 4666 
z
" transform="scale(0.015625)"/>
     </defs>
     <use xlink:href="#DejaVuSans-Bold-41"/>
     <use xlink:href="#DejaVuSans-Bold-6e" transform="translate(77.392578 0)"/>
     <use xlink:href="#DejaVuSans-Bold-61" transform="translate(148.583984 0)"/>
     <use xlink:href="#DejaVuSans-Bold-6c" transform="translate(216.064453 0)"/>
     <use xlink:href="#DejaVuSans-Bold-79" transform="translate(250.341797 0)"/>
     <use xlink:href="#DejaVuSans-Bold-73" transform="translate(315.527344 0)"/>
     <use xlink:href="#DejaVuSans-Bold-69" transform="translate(375.048828 0)"/>
     <use xlink:href="#DejaVuSans-Bold-73" transform="translate(409.326172 0)"/>
     <use xlink:href="#DejaVuSans-Bold-20" transform="translate(468.847656 0)"/>
     <use xlink:href="#DejaVuSans-Bold-54" transform="translate(503.662109 0)"/>
     <use xlink:href="#DejaVuSans-Bold-61" transform="translate(559 0)"/>
     <use xlink:href="#DejaVuSans-Bold-62" transform="translate(626.480469 0)"/>
     <use xlink:href="#DejaVuSans-Bold-6c" transform="translate(698.0625 0)"/>
     <use xlink:href="#DejaVuSans-Bold-65" transform="translate(732.339844 0)"/>
     <use xlink:href="#DejaVuSans-Bold-73" transform="translate(800.162109 0)"/>
    </g>
    <!-- &amp; Figures -->
    <g style="fill: #222222" transform="translate(317.518594 334.602578) scale(0.09 -0.09)">
     <defs>
      <path id="DejaVuSans-Bold-46" d="M 588 4666 
L 3834 4666 
L 3834 3756 
L 1791 3756 
L 1791 2888 
L 3713 2888 
L 3713 1978 
L 1791 1978 
L 1791 0 
L 588 0 
L 588 4666 
z
" transform="scale(0.015625)"/>
     </defs>
     <use xlink:href="#DejaVuSans-Bold-26"/>
     <use xlink:href="#DejaVuSans-Bold-20" transform="translate(87.207031 0)"/>
     <use xlink:href="#DejaVuSans-Bold-46" transform="translate(122.021484 0)"/>
     <use xlink:href="#DejaVuSans-Bold-69" transform="translate(190.332031 0)"/>
     <use xlink:href="#DejaVuSans-Bold-67" transform="translate(224.609375 0)"/>
     <use xlink:href="#DejaVuSans-Bold-75" transform="translate(296.191406 0)"/>
     <use xlink:href="#DejaVuSans-Bold-72" transform="translate(367.382812 0)"/>
     <use xlink:href="#DejaVuSans-Bold-65" transform="translate(416.699219 0)"/>
     <use xlink:href="#DejaVuSans-Bold-73" transform="translate(484.521484 0)"/>
    </g>
   </g>
   <g id="text_6">
    <!-- Reproducible Archive -->
    <g style="fill: #222222" transform="translate(287.832656 387.587547) scale(0.09 -0.09)">
     <defs>
      <path id="DejaVuSans-Bold-70" d="M 1656 506 
L 1656 -1331 
L 538 -1331 
L 538 3500 
L 1656 3500 
L 1656 2988 
Q 1888 3294 2169 3439 
Q 2450 3584 2816 3584 
Q 3463 3584 3878 3070 
Q 4294 2556 4294 1747 
Q 4294 938 3878 423 
Q 3463 -91 2816 -91 
Q 2450 -91 2169 54 
Q 1888 200 1656 506 
z
M 2400 2772 
Q 2041 2772 1848 2508 
Q 1656 2244 1656 1747 
Q 1656 1250 1848 986 
Q 2041 722 2400 722 
Q 2759 722 2948 984 
Q 3138 1247 3138 1747 
Q 3138 2247 2948 2509 
Q 2759 2772 2400 2772 
z
" transform="scale(0.015625)"/>
      <path id="DejaVuSans-Bold-68" d="M 4056 2131 
L 4056 0 
L 2931 0 
L 2931 347 
L 2931 1625 
Q 2931 2084 2911 2256 
Q 2891 2428 2841 2509 
Q 2775 2619 2662 2680 
Q 2550 2741 2406 2741 
Q 2056 2741 1856 2470 
Q 1656 2200 1656 1722 
L 1656 0 
L 538 0 
L 538 4863 
L 1656 4863 
L 1656 2988 
Q 1909 3294 2193 3439 
Q 2478 3584 2822 3584 
Q 3428 3584 3742 3212 
Q 4056 2841 4056 2131 
z
" transform="scale(0.015625)"/>
     </defs>
     <use xlink:href="#DejaVuSans-Bold-52"/>
     <use xlink:href="#DejaVuSans-Bold-65" transform="translate(77.001953 0)"/>
     <use xlink:href="#DejaVuSans-Bold-70" transform="translate(144.824219 0)"/>
     <use xlink:href="#DejaVuSans-Bold-72" transform="translate(216.40625 0)"/>
     <use xlink:href="#DejaVuSans-Bold-6f" transform="translate(265.722656 0)"/>
     <use xlink:href="#DejaVuSans-Bold-64" transform="translate(334.423828 0)"/>
     <use xlink:href="#DejaVuSans-Bold-75" transform="translate(406.005859 0)"/>
     <use xlink:href="#DejaVuSans-Bold-63" transform="translate(477.197266 0)"/>
     <use xlink:href="#DejaVuSans-Bold-69" transform="translate(536.474609 0)"/>
     <use xlink:href="#DejaVuSans-Bold-62" transform="translate(570.751953 0)"/>
     <use xlink:href="#DejaVuSans-Bold-6c" transform="translate(642.333984 0)"/>
     <use xlink:href="#DejaVuSans-Bold-65" transform="translate(676.611328 0)"/>
     <use xlink:href="#DejaVuSans-Bold-20" transform="translate(744.433594 0)"/>
     <use xlink:href="#DejaVuSans-Bold-41" transform="translate(779.248047 0)"/>
     <use xlink:href="#DejaVuSans-Bold-72" transform="translate(856.640625 0)"/>
     <use xlink:href="#DejaVuSans-Bold-63" transform="translate(905.957031 0)"/>
     <use xlink:href="#DejaVuSans-Bold-68" transform="translate(965.234375 0)"/>
     <use xlink:href="#DejaVuSans-Bold-69" transform="translate(1036.425781 0)"/>
     <use xlink:href="#DejaVuSans-Bold-76" transform="translate(1070.703125 0)"/>
     <use xlink:href="#DejaVuSans-Bold-65" transform="translate(1135.888672 0)"/>
    </g>
    <!-- (CSV / JSONL / Schemas) -->
    <g style="fill: #222222" transform="translate(280.280391 397.665578) scale(0.09 -0.09)">
     <defs>
      <path id="DejaVuSans-Bold-56" d="M 31 4666 
L 1241 4666 
L 2478 1222 
L 3713 4666 
L 4922 4666 
L 3194 0 
L 1759 0 
L 31 4666 
z
" transform="scale(0.015625)"/>
      <path id="DejaVuSans-Bold-2f" d="M 1644 4666 
L 2338 4666 
L 691 -594 
L 0 -594 
L 1644 4666 
z
" transform="scale(0.015625)"/>
      <path id="DejaVuSans-Bold-4a" d="M 588 4666 
L 1791 4666 
L 1791 453 
Q 1791 -419 1317 -850 
Q 844 -1281 -116 -1281 
L -359 -1281 
L -359 -372 
L -172 -372 
Q 203 -372 395 -162 
Q 588 47 588 453 
L 588 4666 
z
" transform="scale(0.015625)"/>
      <path id="DejaVuSans-Bold-4f" d="M 2719 3878 
Q 2169 3878 1866 3472 
Q 1563 3066 1563 2328 
Q 1563 1594 1866 1187 
Q 2169 781 2719 781 
Q 3272 781 3575 1187 
Q 3878 1594 3878 2328 
Q 3878 3066 3575 3472 
Q 3272 3878 2719 3878 
z
M 2719 4750 
Q 3844 4750 4481 4106 
Q 5119 3463 5119 2328 
Q 5119 1197 4481 553 
Q 3844 -91 2719 -91 
Q 1597 -91 958 553 
Q 319 1197 319 2328 
Q 319 3463 958 4106 
Q 1597 4750 2719 4750 
z
" transform="scale(0.015625)"/>
      <path id="DejaVuSans-Bold-4e" d="M 588 4666 
L 1931 4666 
L 3628 1466 
L 3628 4666 
L 4769 4666 
L 4769 0 
L 3425 0 
L 1728 3200 
L 1728 0 
L 588 0 
L 588 4666 
z
" transform="scale(0.015625)"/>
      <path id="DejaVuSans-Bold-4c" d="M 588 4666 
L 1791 4666 
L 1791 909 
L 3903 909 
L 3903 0 
L 588 0 
L 588 4666 
z
" transform="scale(0.015625)"/>
     </defs>
     <use xlink:href="#DejaVuSans-Bold-28"/>
     <use xlink:href="#DejaVuSans-Bold-43" transform="translate(45.703125 0)"/>
     <use xlink:href="#DejaVuSans-Bold-53" transform="translate(120.966797 0)"/>
     <use xlink:href="#DejaVuSans-Bold-56" transform="translate(192.988281 0)"/>
     <use xlink:href="#DejaVuSans-Bold-20" transform="translate(270.380859 0)"/>
     <use xlink:href="#DejaVuSans-Bold-2f" transform="translate(305.195312 0)"/>
     <use xlink:href="#DejaVuSans-Bold-20" transform="translate(341.71875 0)"/>
     <use xlink:href="#DejaVuSans-Bold-4a" transform="translate(376.533203 0)"/>
     <use xlink:href="#DejaVuSans-Bold-53" transform="translate(413.740234 0)"/>
     <use xlink:href="#DejaVuSans-Bold-4f" transform="translate(485.761719 0)"/>
     <use xlink:href="#DejaVuSans-Bold-4e" transform="translate(570.771484 0)"/>
     <use xlink:href="#DejaVuSans-Bold-4c" transform="translate(654.462891 0)"/>
     <use xlink:href="#DejaVuSans-Bold-20" transform="translate(718.183594 0)"/>
     <use xlink:href="#DejaVuSans-Bold-2f" transform="translate(752.998047 0)"/>
     <use xlink:href="#DejaVuSans-Bold-20" transform="translate(789.521484 0)"/>
     <use xlink:href="#DejaVuSans-Bold-53" transform="translate(824.335938 0)"/>
     <use xlink:href="#DejaVuSans-Bold-63" transform="translate(896.357422 0)"/>
     <use xlink:href="#DejaVuSans-Bold-68" transform="translate(955.634766 0)"/>
     <use xlink:href="#DejaVuSans-Bold-65" transform="translate(1026.826172 0)"/>
     <use xlink:href="#DejaVuSans-Bold-6d" transform="translate(1094.648438 0)"/>
     <use xlink:href="#DejaVuSans-Bold-61" transform="translate(1198.847656 0)"/>
     <use xlink:href="#DejaVuSans-Bold-73" transform="translate(1266.328125 0)"/>
     <use xlink:href="#DejaVuSans-Bold-29" transform="translate(1325.849609 0)"/>
    </g>
   </g>
   <g id="patch_8">
    <path d="M 342 96.230675 
Q 342 106.35774 342 114.807754 
" style="fill: none; stroke: #555555; stroke-width: 1.5; stroke-linecap: round"/>
    <path d="M 344 110.807754 
L 342 114.807754 
L 340 110.807754 
z
" style="fill: #555555; stroke: #555555; stroke-width: 1.5; stroke-linecap: round"/>
   </g>
   <g id="patch_9">
    <path d="M 342 159.293675 
Q 342 169.42074 342 177.870754 
" style="fill: none; stroke: #555555; stroke-width: 1.5; stroke-linecap: round"/>
    <path d="M 344 173.870754 
L 342 177.870754 
L 340 173.870754 
z
" style="fill: #555555; stroke: #555555; stroke-width: 1.5; stroke-linecap: round"/>
   </g>
   <g id="patch_10">
    <path d="M 342 222.356675 
Q 342 232.48374 342 240.933754 
" style="fill: none; stroke: #555555; stroke-width: 1.5; stroke-linecap: round"/>
    <path d="M 344 236.933754 
L 342 240.933754 
L 340 236.933754 
z
" style="fill: #555555; stroke: #555555; stroke-width: 1.5; stroke-linecap: round"/>
   </g>
   <g id="patch_11">
    <path d="M 342 285.419675 
Q 342 295.54674 342 303.996754 
" style="fill: none; stroke: #555555; stroke-width: 1.5; stroke-linecap: round"/>
    <path d="M 344 299.996754 
L 342 303.996754 
L 340 299.996754 
z
" style="fill: #555555; stroke: #555555; stroke-width: 1.5; stroke-linecap: round"/>
   </g>
   <g id="patch_12">
    <path d="M 342 348.482675 
Q 342 358.60974 342 367.059754 
" style="fill: none; stroke: #555555; stroke-width: 1.5; stroke-linecap: round"/>
    <path d="M 344 363.059754 
L 342 367.059754 
L 340 363.059754 
z
" style="fill: #555555; stroke: #555555; stroke-width: 1.5; stroke-linecap: round"/>
   </g>
   <g id="text_7">
    <!-- CSA-lite does not produce legal classifications or compliance determinations. -->
    <g style="fill: #666666" transform="translate(206.535234 430.882687) scale(0.07 -0.07)">
     <defs>
      <path id="DejaVuSans-Oblique-43" d="M 4447 4306 
L 4319 3641 
Q 4019 3944 3683 4091 
Q 3347 4238 2956 4238 
Q 2422 4238 2017 3981 
Q 1613 3725 1319 3200 
Q 1131 2863 1032 2486 
Q 934 2109 934 1728 
Q 934 1091 1264 756 
Q 1594 422 2222 422 
Q 2656 422 3056 561 
Q 3456 700 3834 978 
L 3688 231 
Q 3316 72 2936 -9 
Q 2556 -91 2175 -91 
Q 1278 -91 773 396 
Q 269 884 269 1753 
Q 269 2309 461 2846 
Q 653 3384 1013 3828 
Q 1394 4300 1883 4525 
Q 2372 4750 3022 4750 
Q 3422 4750 3780 4639 
Q 4138 4528 4447 4306 
z
" transform="scale(0.015625)"/>
      <path id="DejaVuSans-Oblique-53" d="M 3859 4513 
L 3738 3897 
Q 3422 4066 3111 4152 
Q 2800 4238 2509 4238 
Q 1944 4238 1609 3991 
Q 1275 3744 1275 3334 
Q 1275 3109 1398 2989 
Q 1522 2869 2034 2731 
L 2413 2638 
Q 3053 2472 3303 2217 
Q 3553 1963 3553 1503 
Q 3553 797 2998 353 
Q 2444 -91 1538 -91 
Q 1166 -91 791 -17 
Q 416 56 38 206 
L 166 856 
Q 513 641 861 531 
Q 1209 422 1556 422 
Q 2147 422 2503 684 
Q 2859 947 2859 1369 
Q 2859 1650 2717 1795 
Q 2575 1941 2106 2059 
L 1728 2156 
Q 1081 2325 845 2545 
Q 609 2766 609 3163 
Q 609 3859 1145 4304 
Q 1681 4750 2541 4750 
Q 2875 4750 3203 4690 
Q 3531 4631 3859 4513 
z
" transform="scale(0.015625)"/>
      <path id="DejaVuSans-Oblique-41" d="M 2356 4666 
L 3072 4666 
L 3938 0 
L 3278 0 
L 3084 1197 
L 984 1197 
L 325 0 
L -341 0 
L 2356 4666 
z
M 2584 4044 
L 1275 1722 
L 2988 1722 
L 2584 4044 
z
" transform="scale(0.015625)"/>
      <path id="DejaVuSans-Oblique-2d" d="M 391 2009 
L 2075 2009 
L 1978 1497 
L 288 1497 
L 391 2009 
z
" transform="scale(0.015625)"/>
      <path id="DejaVuSans-Oblique-6c" d="M 1172 4863 
L 1747 4863 
L 800 0 
L 225 0 
L 1172 4863 
z
" transform="scale(0.015625)"/>
      <path id="DejaVuSans-Oblique-69" d="M 1172 4863 
L 1747 4863 
L 1606 4134 
L 1031 4134 
L 1172 4863 
z
M 909 3500 
L 1484 3500 
L 800 0 
L 225 0 
L 909 3500 
z
" transform="scale(0.015625)"/>
      <path id="DejaVuSans-Oblique-74" d="M 2706 3500 
L 2619 3053 
L 1472 3053 
L 1100 1153 
Q 1081 1047 1072 975 
Q 1063 903 1063 863 
Q 1063 663 1183 572 
Q 1303 481 1569 481 
L 2150 481 
L 2053 0 
L 1503 0 
Q 991 0 739 200 
Q 488 400 488 806 
Q 488 878 497 964 
Q 506 1050 525 1153 
L 897 3053 
L 409 3053 
L 500 3500 
L 978 3500 
L 1172 4494 
L 1747 4494 
L 1556 3500 
L 2706 3500 
z
" transform="scale(0.015625)"/>
      <path id="DejaVuSans-Oblique-65" d="M 3078 2063 
Q 3088 2113 3092 2166 
Q 3097 2219 3097 2272 
Q 3097 2653 2873 2875 
Q 2650 3097 2266 3097 
Q 1838 3097 1509 2826 
Q 1181 2556 1013 2059 
L 3078 2063 
z
M 3578 1613 
L 903 1613 
Q 884 1494 878 1425 
Q 872 1356 872 1306 
Q 872 872 1139 634 
Q 1406 397 1894 397 
Q 2269 397 2603 481 
Q 2938 566 3225 728 
L 3116 159 
Q 2806 34 2476 -28 
Q 2147 -91 1806 -91 
Q 1078 -91 686 257 
Q 294 606 294 1247 
Q 294 1794 489 2264 
Q 684 2734 1063 3103 
Q 1306 3334 1642 3459 
Q 1978 3584 2356 3584 
Q 2950 3584 3301 3228 
Q 3653 2872 3653 2272 
Q 3653 2128 3634 1964 
Q 3616 1800 3578 1613 
z
" transform="scale(0.015625)"/>
      <path id="DejaVuSans-Oblique-20" transform="scale(0.015625)"/>
      <path id="DejaVuSans-Oblique-64" d="M 2675 525 
Q 2444 222 2128 65 
Q 1813 -91 1428 -91 
Q 903 -91 598 267 
Q 294 625 294 1247 
Q 294 1766 478 2236 
Q 663 2706 1013 3078 
Q 1244 3325 1534 3454 
Q 1825 3584 2144 3584 
Q 2481 3584 2739 3421 
Q 2997 3259 3138 2956 
L 3513 4863 
L 4091 4863 
L 3144 0 
L 2566 0 
L 2675 525 
z
M 891 1350 
Q 891 897 1095 644 
Q 1300 391 1663 391 
Q 1931 391 2161 520 
Q 2391 650 2566 903 
Q 2750 1166 2856 1509 
Q 2963 1853 2963 2188 
Q 2963 2622 2758 2865 
Q 2553 3109 2194 3109 
Q 1922 3109 1687 2981 
Q 1453 2853 1288 2613 
Q 1106 2353 998 2009 
Q 891 1666 891 1350 
z
" transform="scale(0.015625)"/>
      <path id="DejaVuSans-Oblique-6f" d="M 1625 -91 
Q 1009 -91 651 289 
Q 294 669 294 1325 
Q 294 1706 417 2101 
Q 541 2497 738 2766 
Q 1047 3184 1428 3384 
Q 1809 3584 2291 3584 
Q 2888 3584 3255 3212 
Q 3622 2841 3622 2241 
Q 3622 1825 3500 1412 
Q 3378 1000 3181 728 
Q 2875 309 2494 109 
Q 2113 -91 1625 -91 
z
M 891 1344 
Q 891 869 1089 633 
Q 1288 397 1691 397 
Q 2269 397 2648 901 
Q 3028 1406 3028 2181 
Q 3028 2634 2825 2865 
Q 2622 3097 2228 3097 
Q 1903 3097 1650 2945 
Q 1397 2794 1197 2484 
Q 1050 2253 970 1956 
Q 891 1659 891 1344 
z
" transform="scale(0.015625)"/>
      <path id="DejaVuSans-Oblique-73" d="M 3200 3397 
L 3091 2853 
Q 2863 2978 2609 3040 
Q 2356 3103 2088 3103 
Q 1634 3103 1373 2948 
Q 1113 2794 1113 2528 
Q 1113 2219 1719 2053 
Q 1766 2041 1788 2034 
L 1972 1978 
Q 2547 1819 2739 1644 
Q 2931 1469 2931 1166 
Q 2931 609 2489 259 
Q 2047 -91 1331 -91 
Q 1053 -91 747 -37 
Q 441 16 72 128 
L 184 722 
Q 500 559 806 475 
Q 1113 391 1394 391 
Q 1816 391 2080 572 
Q 2344 753 2344 1031 
Q 2344 1331 1650 1516 
L 1591 1531 
L 1394 1581 
Q 956 1697 753 1886 
Q 550 2075 550 2369 
Q 550 2928 970 3256 
Q 1391 3584 2113 3584 
Q 2397 3584 2667 3537 
Q 2938 3491 3200 3397 
z
" transform="scale(0.015625)"/>
      <path id="DejaVuSans-Oblique-6e" d="M 3566 2113 
L 3156 0 
L 2578 0 
L 2988 2091 
Q 3016 2238 3031 2350 
Q 3047 2463 3047 2528 
Q 3047 2791 2881 2937 
Q 2716 3084 2419 3084 
Q 1956 3084 1622 2776 
Q 1288 2469 1184 1941 
L 800 0 
L 225 0 
L 903 3500 
L 1478 3500 
L 1363 2950 
Q 1603 3253 1940 3418 
Q 2278 3584 2650 3584 
Q 3113 3584 3367 3334 
Q 3622 3084 3622 2631 
Q 3622 2519 3608 2391 
Q 3594 2263 3566 2113 
z
" transform="scale(0.015625)"/>
      <path id="DejaVuSans-Oblique-70" d="M 3175 2156 
Q 3175 2616 2975 2859 
Q 2775 3103 2400 3103 
Q 2144 3103 1911 2972 
Q 1678 2841 1497 2591 
Q 1319 2344 1212 1994 
Q 1106 1644 1106 1300 
Q 1106 863 1306 627 
Q 1506 391 1875 391 
Q 2147 391 2380 519 
Q 2613 647 2778 891 
Q 2956 1147 3065 1494 
Q 3175 1841 3175 2156 
z
M 1394 2969 
Q 1625 3272 1939 3428 
Q 2253 3584 2638 3584 
Q 3175 3584 3472 3232 
Q 3769 2881 3769 2247 
Q 3769 1728 3584 1258 
Q 3400 788 3053 416 
Q 2822 169 2531 39 
Q 2241 -91 1919 -91 
Q 1547 -91 1294 64 
Q 1041 219 916 525 
L 556 -1331 
L -19 -1331 
L 922 3500 
L 1497 3500 
L 1394 2969 
z
" transform="scale(0.015625)"/>
      <path id="DejaVuSans-Oblique-72" d="M 2853 2969 
Q 2766 3016 2653 3041 
Q 2541 3066 2413 3066 
Q 1953 3066 1609 2717 
Q 1266 2369 1153 1784 
L 800 0 
L 225 0 
L 909 3500 
L 1484 3500 
L 1375 2956 
Q 1603 3259 1920 3421 
Q 2238 3584 2597 3584 
Q 2691 3584 2781 3573 
Q 2872 3563 2963 3538 
L 2853 2969 
z
" transform="scale(0.015625)"/>
      <path id="DejaVuSans-Oblique-75" d="M 428 1388 
L 838 3500 
L 1416 3500 
L 1006 1409 
Q 975 1256 961 1147 
Q 947 1038 947 966 
Q 947 700 1109 554 
Q 1272 409 1569 409 
Q 2031 409 2368 721 
Q 2706 1034 2809 1563 
L 3194 3500 
L 3769 3500 
L 3091 0 
L 2516 0 
L 2631 550 
Q 2388 244 2052 76 
Q 1716 -91 1338 -91 
Q 878 -91 622 161 
Q 366 413 366 863 
Q 366 956 381 1097 
Q 397 1238 428 1388 
z
" transform="scale(0.015625)"/>
      <path id="DejaVuSans-Oblique-63" d="M 3431 3366 
L 3316 2797 
Q 3109 2947 2876 3022 
Q 2644 3097 2394 3097 
Q 2119 3097 1870 3000 
Q 1622 2903 1453 2725 
Q 1184 2453 1037 2087 
Q 891 1722 891 1331 
Q 891 859 1127 628 
Q 1363 397 1844 397 
Q 2081 397 2348 469 
Q 2616 541 2906 684 
L 2797 116 
Q 2547 13 2283 -39 
Q 2019 -91 1741 -91 
Q 1044 -91 669 257 
Q 294 606 294 1253 
Q 294 1797 489 2255 
Q 684 2713 1069 3078 
Q 1331 3328 1684 3456 
Q 2038 3584 2456 3584 
Q 2700 3584 2940 3529 
Q 3181 3475 3431 3366 
z
" transform="scale(0.015625)"/>
      <path id="DejaVuSans-Oblique-67" d="M 3816 3500 
L 3219 434 
Q 3047 -456 2561 -893 
Q 2075 -1331 1253 -1331 
Q 950 -1331 690 -1286 
Q 431 -1241 206 -1147 
L 313 -588 
Q 525 -725 762 -790 
Q 1000 -856 1269 -856 
Q 1816 -856 2167 -557 
Q 2519 -259 2631 300 
L 2681 563 
Q 2441 288 2122 144 
Q 1803 0 1434 0 
Q 903 0 598 351 
Q 294 703 294 1319 
Q 294 1803 478 2267 
Q 663 2731 997 3091 
Q 1219 3328 1514 3456 
Q 1809 3584 2131 3584 
Q 2484 3584 2746 3420 
Q 3009 3256 3138 2956 
L 3238 3500 
L 3816 3500 
z
M 2950 2216 
Q 2950 2641 2750 2872 
Q 2550 3103 2181 3103 
Q 1953 3103 1747 3012 
Q 1541 2922 1394 2759 
Q 1156 2491 1023 2127 
Q 891 1763 891 1375 
Q 891 944 1092 712 
Q 1294 481 1672 481 
Q 2219 481 2584 976 
Q 2950 1472 2950 2216 
z
" transform="scale(0.015625)"/>
      <path id="DejaVuSans-Oblique-61" d="M 3438 1997 
L 3047 0 
L 2472 0 
L 2578 531 
Q 2325 219 2001 64 
Q 1678 -91 1281 -91 
Q 834 -91 548 182 
Q 263 456 263 884 
Q 263 1497 752 1853 
Q 1241 2209 2100 2209 
L 2900 2209 
L 2931 2363 
Q 2938 2388 2941 2417 
Q 2944 2447 2944 2509 
Q 2944 2788 2717 2942 
Q 2491 3097 2081 3097 
Q 1800 3097 1504 3025 
Q 1209 2953 897 2809 
L 997 3341 
Q 1322 3463 1633 3523 
Q 1944 3584 2234 3584 
Q 2853 3584 3176 3315 
Q 3500 3047 3500 2534 
Q 3500 2431 3484 2292 
Q 3469 2153 3438 1997 
z
M 2816 1759 
L 2241 1759 
Q 1534 1759 1195 1570 
Q 856 1381 856 984 
Q 856 709 1029 553 
Q 1203 397 1509 397 
Q 1978 397 2328 733 
Q 2678 1069 2791 1631 
L 2816 1759 
z
" transform="scale(0.015625)"/>
      <path id="DejaVuSans-Oblique-66" d="M 3059 4863 
L 2969 4384 
L 2419 4384 
Q 2106 4384 1964 4261 
Q 1822 4138 1753 3809 
L 1691 3500 
L 2638 3500 
L 2553 3053 
L 1606 3053 
L 1013 0 
L 434 0 
L 1031 3053 
L 481 3053 
L 563 3500 
L 1113 3500 
L 1159 3744 
Q 1278 4363 1576 4613 
Q 1875 4863 2516 4863 
L 3059 4863 
z
" transform="scale(0.015625)"/>
      <path id="DejaVuSans-Oblique-6d" d="M 5747 2113 
L 5338 0 
L 4763 0 
L 5166 2094 
Q 5191 2228 5203 2325 
Q 5216 2422 5216 2491 
Q 5216 2772 5059 2928 
Q 4903 3084 4622 3084 
Q 4203 3084 3875 2770 
Q 3547 2456 3450 1953 
L 3066 0 
L 2491 0 
L 2900 2094 
Q 2925 2209 2937 2307 
Q 2950 2406 2950 2484 
Q 2950 2769 2794 2926 
Q 2638 3084 2363 3084 
Q 1938 3084 1609 2770 
Q 1281 2456 1184 1953 
L 800 0 
L 225 0 
L 909 3500 
L 1484 3500 
L 1375 2956 
Q 1609 3263 1923 3423 
Q 2238 3584 2597 3584 
Q 2978 3584 3223 3384 
Q 3469 3184 3519 2828 
Q 3781 3197 4126 3390 
Q 4472 3584 4856 3584 
Q 5306 3584 5551 3325 
Q 5797 3066 5797 2591 
Q 5797 2488 5784 2364 
Q 5772 2241 5747 2113 
z
" transform="scale(0.015625)"/>
      <path id="DejaVuSans-Oblique-2e" d="M 525 794 
L 1184 794 
L 1031 0 
L 372 0 
L 525 794 
z
" transform="scale(0.015625)"/>
     </defs>
     <use xlink:href="#DejaVuSans-Oblique-43"/>
     <use xlink:href="#DejaVuSans-Oblique-53" transform="translate(71.699219 0)"/>
     <use xlink:href="#DejaVuSans-Oblique-41" transform="translate(135.175781 0)"/>
     <use xlink:href="#DejaVuSans-Oblique-2d" transform="translate(203.583984 0)"/>
     <use xlink:href="#DejaVuSans-Oblique-6c" transform="translate(239.667969 0)"/>
     <use xlink:href="#DejaVuSans-Oblique-69" transform="translate(267.451172 0)"/>
     <use xlink:href="#DejaVuSans-Oblique-74" transform="translate(295.234375 0)"/>
     <use xlink:href="#DejaVuSans-Oblique-65" transform="translate(334.443359 0)"/>
     <use xlink:href="#DejaVuSans-Oblique-20" transform="translate(395.966797 0)"/>
     <use xlink:href="#DejaVuSans-Oblique-64" transform="translate(427.753906 0)"/>
     <use xlink:href="#DejaVuSans-Oblique-6f" transform="translate(491.230469 0)"/>
     <use xlink:href="#DejaVuSans-Oblique-65" transform="translate(552.412109 0)"/>
     <use xlink:href="#DejaVuSans-Oblique-73" transform="translate(613.935547 0)"/>
     <use xlink:href="#DejaVuSans-Oblique-20" transform="translate(666.035156 0)"/>
     <use xlink:href="#DejaVuSans-Oblique-6e" transform="translate(697.822266 0)"/>
     <use xlink:href="#DejaVuSans-Oblique-6f" transform="translate(761.201172 0)"/>
     <use xlink:href="#DejaVuSans-Oblique-74" transform="translate(822.382812 0)"/>
     <use xlink:href="#DejaVuSans-Oblique-20" transform="translate(861.591797 0)"/>
     <use xlink:href="#DejaVuSans-Oblique-70" transform="translate(893.378906 0)"/>
     <use xlink:href="#DejaVuSans-Oblique-72" transform="translate(956.855469 0)"/>
     <use xlink:href="#DejaVuSans-Oblique-6f" transform="translate(997.96875 0)"/>
     <use xlink:href="#DejaVuSans-Oblique-64" transform="translate(1059.150391 0)"/>
     <use xlink:href="#DejaVuSans-Oblique-75" transform="translate(1122.626953 0)"/>
     <use xlink:href="#DejaVuSans-Oblique-63" transform="translate(1186.005859 0)"/>
     <use xlink:href="#DejaVuSans-Oblique-65" transform="translate(1240.986328 0)"/>
     <use xlink:href="#DejaVuSans-Oblique-20" transform="translate(1302.509766 0)"/>
     <use xlink:href="#DejaVuSans-Oblique-6c" transform="translate(1334.296875 0)"/>
     <use xlink:href="#DejaVuSans-Oblique-65" transform="translate(1362.080078 0)"/>
     <use xlink:href="#DejaVuSans-Oblique-67" transform="translate(1423.603516 0)"/>
     <use xlink:href="#DejaVuSans-Oblique-61" transform="translate(1487.080078 0)"/>
     <use xlink:href="#DejaVuSans-Oblique-6c" transform="translate(1548.359375 0)"/>
     <use xlink:href="#DejaVuSans-Oblique-20" transform="translate(1576.142578 0)"/>
     <use xlink:href="#DejaVuSans-Oblique-63" transform="translate(1607.929688 0)"/>
     <use xlink:href="#DejaVuSans-Oblique-6c" transform="translate(1662.910156 0)"/>
     <use xlink:href="#DejaVuSans-Oblique-61" transform="translate(1690.693359 0)"/>
     <use xlink:href="#DejaVuSans-Oblique-73" transform="translate(1751.972656 0)"/>
     <use xlink:href="#DejaVuSans-Oblique-73" transform="translate(1804.072266 0)"/>
     <use xlink:href="#DejaVuSans-Oblique-69" transform="translate(1856.171875 0)"/>
     <use xlink:href="#DejaVuSans-Oblique-66" transform="translate(1883.955078 0)"/>
     <use xlink:href="#DejaVuSans-Oblique-69" transform="translate(1919.160156 0)"/>
     <use xlink:href="#DejaVuSans-Oblique-63" transform="translate(1946.943359 0)"/>
     <use xlink:href="#DejaVuSans-Oblique-61" transform="translate(2001.923828 0)"/>
     <use xlink:href="#DejaVuSans-Oblique-74" transform="translate(2063.203125 0)"/>
     <use xlink:href="#DejaVuSans-Oblique-69" transform="translate(2102.412109 0)"/>
     <use xlink:href="#DejaVuSans-Oblique-6f" transform="translate(2130.195312 0)"/>
     <use xlink:href="#DejaVuSans-Oblique-6e" transform="translate(2191.376953 0)"/>
     <use xlink:href="#DejaVuSans-Oblique-73" transform="translate(2254.755859 0)"/>
     <use xlink:href="#DejaVuSans-Oblique-20" transform="translate(2306.855469 0)"/>
     <use xlink:href="#DejaVuSans-Oblique-6f" transform="translate(2338.642578 0)"/>
     <use xlink:href="#DejaVuSans-Oblique-72" transform="translate(2399.824219 0)"/>
     <use xlink:href="#DejaVuSans-Oblique-20" transform="translate(2440.9375 0)"/>
     <use xlink:href="#DejaVuSans-Oblique-63" transform="translate(2472.724609 0)"/>
     <use xlink:href="#DejaVuSans-Oblique-6f" transform="translate(2527.705078 0)"/>
     <use xlink:href="#DejaVuSans-Oblique-6d" transform="translate(2588.886719 0)"/>
     <use xlink:href="#DejaVuSans-Oblique-70" transform="translate(2686.298828 0)"/>
     <use xlink:href="#DejaVuSans-Oblique-6c" transform="translate(2749.775391 0)"/>
     <use xlink:href="#DejaVuSans-Oblique-69" transform="translate(2777.558594 0)"/>
     <use xlink:href="#DejaVuSans-Oblique-61" transform="translate(2805.341797 0)"/>
     <use xlink:href="#DejaVuSans-Oblique-6e" transform="translate(2866.621094 0)"/>
     <use xlink:href="#DejaVuSans-Oblique-63" transform="translate(2930 0)"/>
     <use xlink:href="#DejaVuSans-Oblique-65" transform="translate(2984.980469 0)"/>
     <use xlink:href="#DejaVuSans-Oblique-20" transform="translate(3046.503906 0)"/>
     <use xlink:href="#DejaVuSans-Oblique-64" transform="translate(3078.291016 0)"/>
     <use xlink:href="#DejaVuSans-Oblique-65" transform="translate(3141.767578 0)"/>
     <use xlink:href="#DejaVuSans-Oblique-74" transform="translate(3203.291016 0)"/>
     <use xlink:href="#DejaVuSans-Oblique-65" transform="translate(3242.5 0)"/>
     <use xlink:href="#DejaVuSans-Oblique-72" transform="translate(3304.023438 0)"/>
     <use xlink:href="#DejaVuSans-Oblique-6d" transform="translate(3345.136719 0)"/>
     <use xlink:href="#DejaVuSans-Oblique-69" transform="translate(3442.548828 0)"/>
     <use xlink:href="#DejaVuSans-Oblique-6e" transform="translate(3470.332031 0)"/>
     <use xlink:href="#DejaVuSans-Oblique-61" transform="translate(3533.710938 0)"/>
     <use xlink:href="#DejaVuSans-Oblique-74" transform="translate(3594.990234 0)"/>
     <use xlink:href="#DejaVuSans-Oblique-69" transform="translate(3634.199219 0)"/>
     <use xlink:href="#DejaVuSans-Oblique-6f" transform="translate(3661.982422 0)"/>
     <use xlink:href="#DejaVuSans-Oblique-6e" transform="translate(3723.164062 0)"/>
     <use xlink:href="#DejaVuSans-Oblique-73" transform="translate(3786.542969 0)"/>
     <use xlink:href="#DejaVuSans-Oblique-2e" transform="translate(3838.642578 0)"/>
    </g>
   </g>
   <g id="text_8">
    <!-- CSA-lite Analysis Pipeline Architecture -->
    <g transform="translate(211.15875 16.318125) scale(0.12 -0.12)">
     <defs>
      <path id="DejaVuSans-Bold-2d" d="M 347 2297 
L 2309 2297 
L 2309 1388 
L 347 1388 
L 347 2297 
z
" transform="scale(0.015625)"/>
     </defs>
     <use xlink:href="#DejaVuSans-Bold-43"/>
     <use xlink:href="#DejaVuSans-Bold-53" transform="translate(75.263672 0)"/>
     <use xlink:href="#DejaVuSans-Bold-41" transform="translate(147.285156 0)"/>
     <use xlink:href="#DejaVuSans-Bold-2d" transform="translate(224.677734 0)"/>
     <use xlink:href="#DejaVuSans-Bold-6c" transform="translate(266.181641 0)"/>
     <use xlink:href="#DejaVuSans-Bold-69" transform="translate(300.458984 0)"/>
     <use xlink:href="#DejaVuSans-Bold-74" transform="translate(334.736328 0)"/>
     <use xlink:href="#DejaVuSans-Bold-65" transform="translate(382.539062 0)"/>
     <use xlink:href="#DejaVuSans-Bold-20" transform="translate(450.361328 0)"/>
     <use xlink:href="#DejaVuSans-Bold-41" transform="translate(485.175781 0)"/>
     <use xlink:href="#DejaVuSans-Bold-6e" transform="translate(562.568359 0)"/>
     <use xlink:href="#DejaVuSans-Bold-61" transform="translate(633.759766 0)"/>
     <use xlink:href="#DejaVuSans-Bold-6c" transform="translate(701.240234 0)"/>
     <use xlink:href="#DejaVuSans-Bold-79" transform="translate(735.517578 0)"/>
     <use xlink:href="#DejaVuSans-Bold-73" transform="translate(800.703125 0)"/>
     <use xlink:href="#DejaVuSans-Bold-69" transform="translate(860.224609 0)"/>
     <use xlink:href="#DejaVuSans-Bold-73" transform="translate(894.501953 0)"/>
     <use xlink:href="#DejaVuSans-Bold-20" transform="translate(954.023438 0)"/>
     <use xlink:href="#DejaVuSans-Bold-50" transform="translate(988.837891 0)"/>
     <use xlink:href="#DejaVuSans-Bold-69" transform="translate(1062.128906 0)"/>
     <use xlink:href="#DejaVuSans-Bold-70" transform="translate(1096.40625 0)"/>
     <use xlink:href="#DejaVuSans-Bold-65" transform="translate(1167.988281 0)"/>
     <use xlink:href="#DejaVuSans-Bold-6c" transform="translate(1235.810547 0)"/>
     <use xlink:href="#DejaVuSans-Bold-69" transform="translate(1270.087891 0)"/>
     <use xlink:href="#DejaVuSans-Bold-6e" transform="translate(1304.365234 0)"/>
     <use xlink:href="#DejaVuSans-Bold-65" transform="translate(1375.556641 0)"/>
     <use xlink:href="#DejaVuSans-Bold-20" transform="translate(1443.378906 0)"/>
     <use xlink:href="#DejaVuSans-Bold-41" transform="translate(1478.193359 0)"/>
     <use xlink:href="#DejaVuSans-Bold-72" transform="translate(1555.585938 0)"/>
     <use xlink:href="#DejaVuSans-Bold-63" transform="translate(1604.902344 0)"/>
     <use xlink:href="#DejaVuSans-Bold-68" transform="translate(1664.179688 0)"/>
     <use xlink:href="#DejaVuSans-Bold-69" transform="translate(1735.371094 0)"/>
     <use xlink:href="#DejaVuSans-Bold-74" transform="translate(1769.648438 0)"/>
     <use xlink:href="#DejaVuSans-Bold-65" transform="translate(1817.451172 0)"/>
     <use xlink:href="#DejaVuSans-Bold-63" transform="translate(1885.273438 0)"/>
     <use xlink:href="#DejaVuSans-Bold-74" transform="translate(1944.550781 0)"/>
     <use xlink:href="#DejaVuSans-Bold-75" transform="translate(1992.353516 0)"/>
     <use xlink:href="#DejaVuSans-Bold-72" transform="translate(2063.544922 0)"/>
     <use xlink:href="#DejaVuSans-Bold-65" transform="translate(2112.861328 0)"/>
    </g>
   </g>
  </g>
 </g>
 <defs>
  <clipPath id="p3720ae8eef">
   <rect x="7.2" y="26.318125" width="669.6" height="388.08"/>
  </clipPath>
 </defs>
</svg>
